<?xml version="1.0" encoding="UTF-8"?>
<svg xmlns="http://www.w3.org/2000/svg" xmlns:xlink="http://www.w3.org/1999/xlink" width="350pt" height="290pt" viewBox="0 0 350 290" version="1.1">
<defs>
<filter id="alpha" filterUnits="objectBoundingBox" x="0%" y="0%" width="100%" height="100%">
  <feColorMatrix type="matrix" in="SourceGraphic" values="0 0 0 0 1 0 0 0 0 1 0 0 0 0 1 0 0 0 1 0"/>
</filter>
<mask id="mask0">
  <g filter="url(#alpha)">
<rect x="0" y="0" width="350" height="290" style="fill:rgb(0%,0%,0%);fill-opacity:0.101961;stroke:none;"/>
  </g>
</mask>
<clipPath id="clip1">
  <rect width="350" height="290"/>
</clipPath>
<g id="surface6" clip-path="url(#clip1)">
<path style=" stroke:none;fill-rule:nonzero;fill:rgb(7.45098%,4.705882%,71.764706%);fill-opacity:1;" d="M 148.921875 11.140625 C 134.691406 4.738281 119.65625 -0.613281 104.304688 0.0625 C 81.738281 1.046875 60.070312 16.074219 49.460938 38.140625 C 40.460938 56.835938 39.347656 78.746094 35.472656 99.492188 C 30.699219 125.050781 21.542969 149.347656 11.765625 173.101562 C 6.515625 185.863281 0.976562 198.898438 0.113281 212.886719 C -1.082031 232.308594 7.304688 251.660156 20.453125 264.582031 C 33.605469 277.5 51.070312 284.316406 68.597656 285.800781 C 77.925781 286.59375 87.675781 285.859375 95.960938 281.050781 C 104.726562 275.964844 111.117188 266.777344 119.917969 261.765625 C 128.074219 257.117188 137.613281 256.46875 146.769531 257.070312 C 158.726562 257.859375 170.527344 260.636719 181.828125 265.324219 C 194.628906 270.644531 206.527344 278.351562 219.28125 283.746094 C 232.035156 289.140625 246.320312 292.152344 259.371094 287.648438 C 271.640625 283.421875 281.328125 273.148438 290.0625 262.75 C 304.34375 245.773438 317.433594 227.453125 329.199219 207.964844 C 337.082031 194.890625 344.417969 181.101562 347.902344 165.871094 C 354.566406 136.742188 345.394531 103.882812 325.058594 83.992188 C 308.207031 67.515625 285.59375 60.359375 263.457031 56.019531 C 243.269531 52.0625 219.929688 51.816406 201.347656 41.5 C 183.628906 31.652344 167.503906 19.507812 148.921875 11.140625 Z M 148.921875 11.140625 "/>
</g>
<mask id="mask1">
  <g filter="url(#alpha)">
<rect x="0" y="0" width="350" height="290" style="fill:rgb(0%,0%,0%);fill-opacity:0.101961;stroke:none;"/>
  </g>
</mask>
<clipPath id="clip2">
  <rect width="350" height="290"/>
</clipPath>
<g id="surface9" clip-path="url(#clip2)">
<path style=" stroke:none;fill-rule:nonzero;fill:rgb(0%,0%,0%);fill-opacity:1;" d="M 169.050781 43.429688 C 169.050781 43.429688 167.4375 25.597656 169.050781 23.4375 C 170.667969 21.273438 197.789062 0.765625 222.867188 24.835938 C 222.867188 24.835938 225.234375 24.964844 224.804688 31.332031 C 224.550781 35.359375 224.566406 39.40625 224.855469 43.429688 C 224.855469 43.429688 170.882812 48.015625 169.050781 43.429688 Z M 169.050781 43.429688 "/>
</g>
<mask id="mask2">
  <g filter="url(#alpha)">
<rect x="0" y="0" width="350" height="290" style="fill:rgb(0%,0%,0%);fill-opacity:0.101961;stroke:none;"/>
  </g>
</mask>
<clipPath id="clip3">
  <rect width="350" height="290"/>
</clipPath>
<g id="surface12" clip-path="url(#clip3)">
<path style=" stroke:none;fill-rule:nonzero;fill:rgb(0%,0%,0%);fill-opacity:1;" d="M 190.796875 28.53125 C 190.796875 28.53125 180.675781 28.402344 178.203125 34.769531 C 175.730469 41.136719 175.621094 43.304688 174.652344 44.320312 C 173.683594 45.335938 185.195312 50.691406 185.195312 50.691406 L 185.734375 72.59375 C 185.734375 72.59375 187.996094 69.886719 191.652344 71.113281 C 195.3125 72.339844 199.941406 71.113281 199.941406 71.113281 C 199.941406 71.113281 199.726562 70.652344 202.742188 71.113281 C 205.757812 71.574219 215.332031 65.59375 215.332031 65.59375 C 215.332031 65.59375 215.492188 56.007812 215.277344 53.96875 C 215.066406 51.929688 222.109375 36.9375 222.109375 36.9375 C 222.109375 36.9375 227.601562 30.695312 221.898438 28.53125 C 221.898438 28.53125 219.878906 24.929688 214.6875 24.964844 C 209.496094 25 190.796875 28.53125 190.796875 28.53125 Z M 190.796875 28.53125 "/>
</g>
<mask id="mask3">
  <g filter="url(#alpha)">
<rect x="0" y="0" width="350" height="290" style="fill:rgb(0%,0%,0%);fill-opacity:0.101961;stroke:none;"/>
  </g>
</mask>
<clipPath id="clip4">
  <rect width="350" height="290"/>
</clipPath>
<g id="surface15" clip-path="url(#clip4)">
<path style=" stroke:none;fill-rule:nonzero;fill:rgb(0%,0%,0%);fill-opacity:1;" d="M 191.816406 119.214844 C 189.597656 118.394531 186.117188 120.199219 185.007812 120.742188 C 185.46875 118.546875 185.855469 117.058594 185.855469 117.058594 L 191.667969 115.914062 C 191.667969 115.914062 191.675781 117.410156 191.816406 119.214844 Z M 191.816406 119.214844 "/>
</g>
<mask id="mask4">
  <g filter="url(#alpha)">
<rect x="0" y="0" width="350" height="290" style="fill:rgb(0%,0%,0%);fill-opacity:0.101961;stroke:none;"/>
  </g>
</mask>
<clipPath id="clip5">
  <rect width="350" height="290"/>
</clipPath>
<g id="surface18" clip-path="url(#clip5)">
<path style=" stroke:none;fill-rule:nonzero;fill:rgb(0%,0%,0%);fill-opacity:1;" d="M 158.398438 245.296875 C 158.398438 245.296875 153.878906 244.148438 153.769531 245.296875 C 153.664062 246.441406 148.386719 258.160156 154.957031 261.601562 C 161.523438 265.039062 179.0625 272.425781 207.585938 262.871094 C 207.585938 262.871094 209.414062 263.636719 208.984375 258.925781 C 208.554688 254.214844 208.554688 248.992188 208.554688 248.992188 C 208.554688 248.992188 204.246094 247.589844 201.015625 248.101562 C 197.789062 248.613281 169.699219 255.359375 158.398438 245.296875 Z M 158.398438 245.296875 "/>
</g>
<mask id="mask5">
  <g filter="url(#alpha)">
<rect x="0" y="0" width="350" height="290" style="fill:rgb(0%,0%,0%);fill-opacity:0.101961;stroke:none;"/>
  </g>
</mask>
<clipPath id="clip6">
  <rect width="350" height="290"/>
</clipPath>
<g id="surface21" clip-path="url(#clip6)">
<path style=" stroke:none;fill-rule:nonzero;fill:rgb(0%,0%,0%);fill-opacity:1;" d="M 170.449219 157.671875 L 193.816406 157.671875 L 193.816406 199.445312 L 170.449219 199.445312 Z M 170.449219 157.671875 "/>
</g>
<mask id="mask6">
  <g filter="url(#alpha)">
<rect x="0" y="0" width="350" height="290" style="fill:rgb(0%,0%,0%);fill-opacity:0.101961;stroke:none;"/>
  </g>
</mask>
<clipPath id="clip7">
  <rect width="350" height="290"/>
</clipPath>
<g id="surface24" clip-path="url(#clip7)">
<path style=" stroke:none;fill-rule:nonzero;fill:rgb(0%,0%,0%);fill-opacity:1;" d="M 213.449219 36.296875 C 213.449219 45.125 207.402344 52.28125 199.941406 52.28125 C 192.484375 52.28125 186.4375 45.125 186.4375 36.296875 C 186.4375 27.472656 192.484375 20.316406 199.941406 20.316406 C 207.402344 20.316406 213.449219 27.472656 213.449219 36.296875 Z M 213.449219 36.296875 "/>
</g>
<mask id="mask7">
  <g filter="url(#alpha)">
<rect x="0" y="0" width="350" height="290" style="fill:rgb(0%,0%,0%);fill-opacity:0.101961;stroke:none;"/>
  </g>
</mask>
<clipPath id="clip8">
  <rect width="350" height="290"/>
</clipPath>
<g id="surface27" clip-path="url(#clip8)">
<path style=" stroke:none;fill-rule:nonzero;fill:rgb(0%,0%,0%);fill-opacity:1;" d="M 198.222656 236.765625 C 198.222656 236.765625 191.90625 248.320312 172.175781 247.082031 C 153.585938 245.933594 144.515625 235.109375 144.945312 231.289062 C 145.378906 227.46875 143.761719 218.167969 147.742188 215.492188 C 150.050781 213.945312 153.089844 214.863281 155.234375 215.910156 C 156.746094 216.636719 158.476562 216.269531 159.679688 214.96875 C 161.640625 212.875 165.292969 210.523438 171.0625 212.375 C 171.804688 212.609375 172.589844 212.59375 173.324219 212.328125 C 175.726562 211.460938 181.445312 209.953125 185.59375 213.296875 C 186.933594 214.390625 188.683594 214.46875 190.089844 213.5 L 190.144531 213.457031 C 192.082031 212.054688 201.125 225.300781 201.125 225.300781 C 201.125 225.300781 201.558594 235.492188 198.222656 236.765625 Z M 198.222656 236.765625 "/>
</g>
<mask id="mask8">
  <g filter="url(#alpha)">
<rect x="0" y="0" width="350" height="290" style="fill:rgb(0%,0%,0%);fill-opacity:0.101961;stroke:none;"/>
  </g>
</mask>
<clipPath id="clip9">
  <rect width="350" height="290"/>
</clipPath>
<g id="surface30" clip-path="url(#clip9)">
<path style=" stroke:none;fill-rule:nonzero;fill:rgb(0%,0%,0%);fill-opacity:1;" d="M 185.039062 226.449219 C 185.039062 234.855469 179.277344 241.671875 172.175781 241.671875 C 165.070312 241.671875 159.3125 234.855469 159.3125 226.449219 C 159.3125 218.042969 165.070312 211.226562 172.175781 211.226562 C 179.277344 211.226562 185.039062 218.042969 185.039062 226.449219 Z M 185.039062 226.449219 "/>
</g>
<mask id="mask9">
  <g filter="url(#alpha)">
<rect x="0" y="0" width="350" height="290" style="fill:rgb(0%,0%,0%);fill-opacity:0.101961;stroke:none;"/>
  </g>
</mask>
<clipPath id="clip10">
  <rect width="350" height="290"/>
</clipPath>
<g id="surface33" clip-path="url(#clip10)">
<path style=" stroke:none;fill-rule:nonzero;fill:rgb(0%,0%,0%);fill-opacity:1;" d="M 193.558594 149.605469 L 193.160156 153.214844 L 188.535156 153.980469 C 188.535156 153.980469 188.035156 152.710938 187.328125 150.761719 L 193.484375 149.394531 Z M 193.558594 149.605469 "/>
</g>
<mask id="mask10">
  <g filter="url(#alpha)">
<rect x="0" y="0" width="350" height="290" style="fill:rgb(0%,0%,0%);fill-opacity:0.101961;stroke:none;"/>
  </g>
</mask>
<clipPath id="clip11">
  <rect width="350" height="290"/>
</clipPath>
<g id="surface36" clip-path="url(#clip11)">
<path style=" stroke:none;fill-rule:nonzero;fill:rgb(0%,0%,0%);fill-opacity:1;" d="M 217.808594 26.179688 C 217.445312 28.417969 217.28125 30.691406 217.324219 32.96875 C 217.351562 31.078125 217.519531 29.1875 217.824219 27.332031 C 218.109375 25.632812 218.46875 23.808594 218.390625 22.113281 C 218.273438 23.484375 218.078125 24.839844 217.808594 26.179688 Z M 217.808594 26.179688 "/>
<path style=" stroke:none;fill-rule:nonzero;fill:rgb(0%,0%,0%);fill-opacity:1;" d="M 183.683594 41.953125 C 183.339844 41.570312 182.925781 41.304688 182.570312 40.941406 C 181.628906 39.988281 181.230469 38.609375 181.152344 37.121094 C 181.058594 39.03125 181.390625 40.878906 182.570312 42.085938 C 182.925781 42.449219 183.339844 42.722656 183.683594 43.097656 C 184.40625 43.945312 184.828125 45.085938 184.855469 46.289062 C 184.949219 44.683594 184.671875 43.015625 183.683594 41.953125 Z M 183.683594 41.953125 "/>
<path style=" stroke:none;fill-rule:nonzero;fill:rgb(0%,0%,0%);fill-opacity:1;" d="M 182.65625 27.6875 C 182.710938 26.878906 182.652344 26.066406 182.480469 25.28125 C 182.292969 24.464844 181.957031 23.667969 181.835938 22.84375 C 181.835938 22.933594 181.808594 23.023438 181.800781 23.121094 C 181.707031 24.265625 182.230469 25.324219 182.480469 26.429688 C 182.574219 26.839844 182.632812 27.261719 182.65625 27.6875 Z M 182.65625 27.6875 "/>
<path style=" stroke:none;fill-rule:nonzero;fill:rgb(0%,0%,0%);fill-opacity:1;" d="M 216.445312 40.269531 C 215.550781 41.414062 214.125 41.695312 212.816406 41.683594 C 211.503906 41.671875 210.175781 41.421875 208.890625 41.726562 C 207.992188 41.941406 207.078125 42.417969 206.195312 42.109375 C 204.980469 41.691406 204.492188 39.816406 203.324219 39.453125 C 202 39.042969 200.988281 41.191406 200.097656 42.046875 C 197.917969 44.113281 194.859375 44.09375 192.074219 43.957031 C 190.890625 43.894531 189.425781 44.003906 188.917969 45.273438 C 188.761719 45.65625 188.726562 46.09375 188.824219 46.507812 L 184.875 47.242188 C 184.863281 47.625 184.828125 48.007812 184.769531 48.386719 L 188.824219 47.621094 C 188.726562 47.210938 188.761719 46.773438 188.917969 46.386719 C 189.425781 45.121094 190.890625 45.007812 192.074219 45.074219 C 194.859375 45.226562 197.917969 45.246094 200.097656 43.164062 C 201 42.308594 202.011719 40.15625 203.324219 40.570312 C 204.492188 40.929688 204.980469 42.808594 206.195312 43.226562 C 207.078125 43.523438 207.992188 43.046875 208.890625 42.84375 C 210.179688 42.539062 211.503906 42.789062 212.816406 42.800781 C 214.125 42.8125 215.550781 42.519531 216.445312 41.382812 C 217.339844 40.25 217.46875 38.554688 217.414062 36.90625 C 217.375 38.183594 217.152344 39.371094 216.445312 40.269531 Z M 216.445312 40.269531 "/>
</g>
<mask id="mask11">
  <g filter="url(#alpha)">
<rect x="0" y="0" width="350" height="290" style="fill:rgb(0%,0%,0%);fill-opacity:0.101961;stroke:none;"/>
  </g>
</mask>
<clipPath id="clip12">
  <rect width="350" height="290"/>
</clipPath>
<g id="surface39" clip-path="url(#clip12)">
<path style=" stroke:none;fill-rule:nonzero;fill:rgb(0%,0%,0%);fill-opacity:1;" d="M 186.554688 58.617188 C 186.175781 58.382812 185.777344 58.191406 185.363281 58.046875 C 184.664062 57.667969 184.109375 56.996094 183.804688 56.160156 C 184.046875 57.476562 184.660156 58.675781 185.6875 59.191406 C 186.097656 59.335938 186.5 59.527344 186.878906 59.765625 C 187.121094 59.96875 187.316406 60.242188 187.449219 60.554688 C 187.320312 59.808594 187.085938 59.042969 186.554688 58.617188 Z M 186.554688 58.617188 "/>
<path style=" stroke:none;fill-rule:nonzero;fill:rgb(0%,0%,0%);fill-opacity:1;" d="M 192.070312 67.914062 C 190.582031 68.363281 188.636719 68.59375 187.820312 67.101562 C 187.847656 67.460938 187.933594 67.8125 188.078125 68.128906 C 188.777344 69.601562 190.480469 69.550781 191.933594 69.1875 Z M 192.070312 67.914062 "/>
<path style=" stroke:none;fill-rule:nonzero;fill:rgb(0%,0%,0%);fill-opacity:1;" d="M 198.101562 68.960938 C 198.308594 70.511719 197.457031 72.0625 196.324219 72.875 C 195.195312 73.6875 193.816406 73.914062 192.488281 74.019531 C 192.277344 74.054688 192.0625 74.023438 191.859375 73.9375 C 191.738281 74.265625 191.789062 74.652344 191.996094 74.917969 C 192.203125 75.1875 192.519531 75.28125 192.808594 75.167969 C 194.140625 75.066406 195.507812 74.851562 196.648438 74.019531 C 197.789062 73.191406 198.640625 71.648438 198.421875 70.09375 C 198.359375 69.699219 198.253906 69.320312 198.101562 68.960938 Z M 198.101562 68.960938 "/>
<path style=" stroke:none;fill-rule:nonzero;fill:rgb(0%,0%,0%);fill-opacity:1;" d="M 199.535156 55.128906 C 199.933594 57.011719 199.578125 59.007812 198.566406 60.535156 C 197.804688 61.628906 196.644531 62.503906 196.480469 63.90625 C 196.425781 64.550781 196.539062 65.199219 196.804688 65.769531 C 196.773438 65.53125 196.773438 65.289062 196.804688 65.054688 C 196.96875 63.652344 198.128906 62.761719 198.890625 61.683594 C 200.140625 59.890625 200.316406 57.25 199.535156 55.128906 Z M 199.535156 55.128906 "/>
</g>
<mask id="mask12">
  <g filter="url(#alpha)">
<rect x="0" y="0" width="350" height="290" style="fill:rgb(0%,0%,0%);fill-opacity:0.101961;stroke:none;"/>
  </g>
</mask>
<clipPath id="clip13">
  <rect width="350" height="290"/>
</clipPath>
<g id="surface42" clip-path="url(#clip13)">
<path style=" stroke:none;fill-rule:nonzero;fill:rgb(0%,0%,0%);fill-opacity:1;" d="M 160.753906 220.882812 C 161.851562 220.34375 163.226562 220.324219 164.042969 219.351562 C 164.617188 218.671875 164.753906 217.691406 165.152344 216.878906 C 165.796875 215.515625 167.136719 214.695312 168.488281 214.265625 C 173.007812 212.8125 183.3125 215.914062 186 220.410156 C 186.789062 221.773438 187.21875 223.378906 187.234375 225.027344 C 187.335938 223.125 186.90625 221.234375 186.003906 219.652344 C 183.316406 215.152344 173.019531 212.050781 168.492188 213.503906 C 167.140625 213.933594 165.8125 214.757812 165.15625 216.117188 C 164.757812 216.929688 164.621094 217.914062 164.042969 218.59375 C 163.226562 219.558594 161.855469 219.578125 160.757812 220.121094 C 159.921875 220.53125 159.300781 221.738281 159.527344 222.546875 C 159.710938 221.804688 160.160156 221.195312 160.753906 220.882812 Z M 160.753906 220.882812 "/>
<path style=" stroke:none;fill-rule:nonzero;fill:rgb(0%,0%,0%);fill-opacity:1;" d="M 157.914062 226.433594 C 158.050781 225.210938 158.882812 223.988281 160.007812 223.917969 C 159.769531 223.800781 159.585938 223.5625 159.515625 223.265625 C 158.640625 223.648438 158.019531 224.574219 157.898438 225.667969 C 157.871094 225.980469 157.871094 226.292969 157.898438 226.605469 C 157.914062 226.546875 157.914062 226.492188 157.914062 226.433594 Z M 157.914062 226.433594 "/>
</g>
<mask id="mask13">
  <g filter="url(#alpha)">
<rect x="0" y="0" width="350" height="290" style="fill:rgb(0%,0%,0%);fill-opacity:0.101961;stroke:none;"/>
  </g>
</mask>
<clipPath id="clip14">
  <rect width="350" height="290"/>
</clipPath>
<g id="surface45" clip-path="url(#clip14)">
<path style=" stroke:none;fill-rule:nonzero;fill:rgb(0%,0%,0%);fill-opacity:1;" d="M 196.925781 87.96875 L 226.308594 87.96875 L 226.308594 133.3125 L 196.925781 133.3125 Z M 196.925781 87.96875 "/>
</g>
<mask id="mask14">
  <g filter="url(#alpha)">
<rect x="0" y="0" width="350" height="290" style="fill:rgb(0%,0%,0%);fill-opacity:0.101961;stroke:none;"/>
  </g>
</mask>
<clipPath id="clip15">
  <rect width="350" height="290"/>
</clipPath>
<g id="surface48" clip-path="url(#clip15)">
<path style=" stroke:none;fill-rule:nonzero;fill:rgb(0%,0%,0%);fill-opacity:1;" d="M 212.265625 74.234375 L 210.597656 78.597656 C 210.597656 78.597656 218.832031 79.964844 220.550781 82.910156 L 219.53125 75.210938 L 218.320312 71.925781 Z M 212.265625 74.234375 "/>
</g>
<mask id="mask15">
  <g filter="url(#alpha)">
<rect x="0" y="0" width="350" height="290" style="fill:rgb(0%,0%,0%);fill-opacity:0.101961;stroke:none;"/>
  </g>
</mask>
<clipPath id="clip16">
  <rect width="350" height="290"/>
</clipPath>
<g id="surface51" clip-path="url(#clip16)">
<path style=" stroke:none;fill-rule:nonzero;fill:rgb(0%,0%,0%);fill-opacity:1;" d="M 262.429688 154.078125 L 262.25 154.222656 L 262.496094 154.351562 L 262.761719 154.328125 L 262.792969 154.109375 Z M 262.429688 154.078125 "/>
</g>
<mask id="mask16">
  <g filter="url(#alpha)">
<rect x="0" y="0" width="350" height="290" style="fill:rgb(0%,0%,0%);fill-opacity:0.101961;stroke:none;"/>
  </g>
</mask>
<clipPath id="clip17">
  <rect width="350" height="290"/>
</clipPath>
<g id="surface54" clip-path="url(#clip17)">
<path style=" stroke:none;fill-rule:nonzero;fill:rgb(0%,0%,0%);fill-opacity:1;" d="M 262.429688 154.078125 L 262.25 154.214844 L 262.105469 154.007812 L 262.191406 153.839844 L 262.273438 153.8125 Z M 262.429688 154.078125 "/>
</g>
<mask id="mask17">
  <g filter="url(#alpha)">
<rect x="0" y="0" width="350" height="290" style="fill:rgb(0%,0%,0%);fill-opacity:0.101961;stroke:none;"/>
  </g>
</mask>
<clipPath id="clip18">
  <rect width="350" height="290"/>
</clipPath>
<g id="surface57" clip-path="url(#clip18)">
<path style=" stroke:none;fill-rule:nonzero;fill:rgb(0%,0%,0%);fill-opacity:1;" d="M 294.210938 127.671875 L 280.992188 105.082031 C 280.753906 104.671875 280.390625 104.394531 279.980469 104.304688 C 279.570312 104.214844 279.144531 104.320312 278.800781 104.601562 L 249.335938 128.535156 C 248.617188 129.121094 248.433594 130.28125 248.925781 131.128906 L 262.109375 154.007812 Z M 294.210938 127.671875 "/>
</g>
<mask id="mask18">
  <g filter="url(#alpha)">
<rect x="0" y="0" width="350" height="290" style="fill:rgb(0%,0%,0%);fill-opacity:0.101961;stroke:none;"/>
  </g>
</mask>
<clipPath id="clip19">
  <rect width="350" height="290"/>
</clipPath>
<g id="surface60" clip-path="url(#clip19)">
<path style=" stroke:none;fill-rule:nonzero;fill:rgb(0%,0%,0%);fill-opacity:1;" d="M 305.582031 132.191406 L 294.605469 128.019531 L 262.496094 154.355469 L 273.648438 158.675781 C 274.15625 158.871094 274.710938 158.769531 275.144531 158.40625 L 305.671875 132.898438 C 305.789062 132.820312 305.851562 132.667969 305.832031 132.507812 C 305.8125 132.351562 305.714844 132.226562 305.582031 132.191406 Z M 305.582031 132.191406 "/>
</g>
<mask id="mask19">
  <g filter="url(#alpha)">
<rect x="0" y="0" width="350" height="290" style="fill:rgb(0%,0%,0%);fill-opacity:0.101961;stroke:none;"/>
  </g>
</mask>
<clipPath id="clip20">
  <rect width="350" height="290"/>
</clipPath>
<g id="surface63" clip-path="url(#clip20)">
<path style=" stroke:none;fill-rule:nonzero;fill:rgb(0%,0%,0%);fill-opacity:1;" d="M 289.347656 126.71875 L 288.535156 125.34375 C 288.4375 125.175781 288.242188 125.132812 288.097656 125.246094 L 286.894531 126.199219 C 286.753906 126.316406 286.714844 126.542969 286.804688 126.714844 L 287.550781 128.070312 C 287.648438 128.238281 287.839844 128.289062 287.988281 128.179688 L 289.257812 127.238281 C 289.398438 127.121094 289.441406 126.890625 289.347656 126.71875 Z M 289.347656 126.71875 "/>
<path style=" stroke:none;fill-rule:nonzero;fill:rgb(0%,0%,0%);fill-opacity:1;" d="M 287.183594 128.492188 L 286.371094 127.117188 C 286.269531 126.953125 286.074219 126.910156 285.929688 127.023438 L 284.730469 127.980469 C 284.589844 128.097656 284.550781 128.324219 284.640625 128.496094 L 285.386719 129.855469 C 285.480469 130.023438 285.671875 130.074219 285.820312 129.96875 L 287.09375 129.023438 C 287.167969 128.96875 287.214844 128.878906 287.234375 128.78125 C 287.25 128.679688 287.234375 128.574219 287.183594 128.492188 Z M 287.183594 128.492188 "/>
<path style=" stroke:none;fill-rule:nonzero;fill:rgb(0%,0%,0%);fill-opacity:1;" d="M 284.910156 130.351562 L 284.097656 128.980469 C 283.996094 128.8125 283.800781 128.769531 283.660156 128.882812 L 282.453125 129.84375 C 282.3125 129.960938 282.273438 130.191406 282.367188 130.363281 L 283.113281 131.71875 C 283.210938 131.886719 283.402344 131.9375 283.546875 131.828125 L 284.816406 130.886719 C 284.890625 130.832031 284.941406 130.742188 284.960938 130.640625 C 284.976562 130.542969 284.960938 130.4375 284.910156 130.351562 Z M 284.910156 130.351562 "/>
<path style=" stroke:none;fill-rule:nonzero;fill:rgb(0%,0%,0%);fill-opacity:1;" d="M 282.609375 132.238281 L 281.796875 130.863281 C 281.695312 130.699219 281.503906 130.65625 281.359375 130.765625 L 280.15625 131.730469 C 280.015625 131.847656 279.976562 132.074219 280.066406 132.246094 L 280.8125 133.601562 C 280.910156 133.769531 281.097656 133.820312 281.246094 133.71875 L 282.519531 132.769531 C 282.589844 132.714844 282.640625 132.625 282.65625 132.527344 C 282.675781 132.425781 282.65625 132.324219 282.609375 132.238281 Z M 282.609375 132.238281 "/>
<path style=" stroke:none;fill-rule:nonzero;fill:rgb(0%,0%,0%);fill-opacity:1;" d="M 280.308594 134.121094 L 279.496094 132.75 C 279.394531 132.585938 279.203125 132.542969 279.058594 132.65625 L 277.855469 133.613281 C 277.714844 133.730469 277.675781 133.957031 277.765625 134.128906 L 278.511719 135.484375 C 278.609375 135.65625 278.800781 135.707031 278.949219 135.601562 L 280.21875 134.652344 C 280.292969 134.597656 280.339844 134.507812 280.359375 134.410156 C 280.375 134.308594 280.359375 134.207031 280.308594 134.121094 Z M 280.308594 134.121094 "/>
<path style=" stroke:none;fill-rule:nonzero;fill:rgb(0%,0%,0%);fill-opacity:1;" d="M 278.109375 136.175781 L 277.101562 134.472656 C 277.078125 134.433594 277.046875 134.410156 277.007812 134.398438 C 276.96875 134.390625 276.929688 134.402344 276.898438 134.429688 L 275.417969 135.609375 C 275.386719 135.632812 275.363281 135.671875 275.355469 135.71875 C 275.347656 135.761719 275.355469 135.8125 275.375 135.847656 L 276.304688 137.535156 C 276.347656 137.613281 276.4375 137.636719 276.507812 137.585938 L 278.070312 136.441406 C 278.105469 136.414062 278.132812 136.371094 278.140625 136.320312 C 278.148438 136.269531 278.140625 136.21875 278.109375 136.175781 Z M 278.109375 136.175781 "/>
<path style=" stroke:none;fill-rule:nonzero;fill:rgb(0%,0%,0%);fill-opacity:1;" d="M 275.8125 138.0625 L 274.796875 136.355469 C 274.773438 136.320312 274.738281 136.292969 274.699219 136.285156 C 274.660156 136.273438 274.621094 136.285156 274.589844 136.3125 L 273.109375 137.492188 C 273.042969 137.546875 273.027344 137.652344 273.070312 137.734375 L 273.996094 139.417969 C 274.019531 139.457031 274.050781 139.488281 274.089844 139.496094 C 274.128906 139.507812 274.167969 139.496094 274.199219 139.472656 L 275.761719 138.324219 C 275.800781 138.300781 275.832031 138.257812 275.839844 138.207031 C 275.851562 138.15625 275.839844 138.101562 275.8125 138.0625 Z M 275.8125 138.0625 "/>
<path style=" stroke:none;fill-rule:nonzero;fill:rgb(0%,0%,0%);fill-opacity:1;" d="M 273.773438 139.730469 L 272.765625 138.042969 C 272.71875 137.964844 272.628906 137.945312 272.5625 138 L 271.082031 139.175781 C 271.015625 139.230469 270.996094 139.339844 271.039062 139.421875 L 271.964844 141.105469 C 272.011719 141.183594 272.101562 141.207031 272.171875 141.160156 L 273.734375 140.015625 C 273.777344 139.988281 273.808594 139.941406 273.816406 139.886719 C 273.824219 139.828125 273.808594 139.773438 273.773438 139.730469 Z M 273.773438 139.730469 "/>
<path style=" stroke:none;fill-rule:nonzero;fill:rgb(0%,0%,0%);fill-opacity:1;" d="M 271.496094 141.59375 L 270.484375 139.890625 C 270.4375 139.816406 270.347656 139.796875 270.28125 139.847656 L 268.800781 141.027344 C 268.769531 141.050781 268.746094 141.09375 268.738281 141.136719 C 268.730469 141.183594 268.738281 141.230469 268.761719 141.269531 L 269.6875 142.957031 C 269.730469 143.035156 269.820312 143.058594 269.890625 143.007812 L 271.453125 141.863281 C 271.492188 141.835938 271.519531 141.792969 271.527344 141.742188 C 271.535156 141.6875 271.523438 141.636719 271.496094 141.59375 Z M 271.496094 141.59375 "/>
<path style=" stroke:none;fill-rule:nonzero;fill:rgb(0%,0%,0%);fill-opacity:1;" d="M 269.285156 143.390625 L 268.277344 141.6875 C 268.253906 141.648438 268.222656 141.621094 268.183594 141.613281 C 268.144531 141.605469 268.105469 141.617188 268.074219 141.640625 L 266.59375 142.820312 C 266.5625 142.847656 266.539062 142.886719 266.53125 142.933594 C 266.523438 142.976562 266.53125 143.023438 266.550781 143.0625 L 267.480469 144.746094 C 267.523438 144.828125 267.613281 144.851562 267.683594 144.800781 L 269.246094 143.65625 C 269.28125 143.628906 269.308594 143.585938 269.316406 143.535156 C 269.324219 143.484375 269.3125 143.429688 269.285156 143.390625 Z M 269.285156 143.390625 "/>
<path style=" stroke:none;fill-rule:nonzero;fill:rgb(0%,0%,0%);fill-opacity:1;" d="M 267.078125 145.21875 L 266.078125 143.511719 C 266.03125 143.433594 265.941406 143.414062 265.875 143.46875 L 264.394531 144.644531 C 264.363281 144.671875 264.339844 144.710938 264.332031 144.757812 C 264.324219 144.800781 264.332031 144.851562 264.351562 144.890625 L 265.28125 146.574219 C 265.324219 146.652344 265.414062 146.675781 265.484375 146.628906 L 267.046875 145.480469 C 267.082031 145.453125 267.105469 145.410156 267.113281 145.359375 C 267.121094 145.308594 267.105469 145.257812 267.078125 145.21875 Z M 267.078125 145.21875 "/>
<path style=" stroke:none;fill-rule:nonzero;fill:rgb(0%,0%,0%);fill-opacity:1;" d="M 264.871094 147.023438 L 263.859375 145.320312 C 263.835938 145.28125 263.804688 145.257812 263.765625 145.246094 C 263.726562 145.238281 263.6875 145.25 263.65625 145.273438 L 262.175781 146.449219 C 262.144531 146.472656 262.121094 146.511719 262.113281 146.558594 C 262.105469 146.601562 262.113281 146.652344 262.136719 146.6875 L 263.0625 148.375 C 263.105469 148.453125 263.195312 148.476562 263.265625 148.425781 L 264.828125 147.28125 C 264.863281 147.253906 264.890625 147.210938 264.898438 147.164062 C 264.90625 147.117188 264.894531 147.066406 264.871094 147.023438 Z M 264.871094 147.023438 "/>
<path style=" stroke:none;fill-rule:nonzero;fill:rgb(0%,0%,0%);fill-opacity:1;" d="M 287.894531 124.230469 L 287.082031 122.855469 C 286.980469 122.6875 286.785156 122.648438 286.640625 122.757812 L 285.449219 123.722656 C 285.308594 123.835938 285.269531 124.066406 285.359375 124.238281 L 286.105469 125.59375 C 286.203125 125.761719 286.394531 125.8125 286.542969 125.703125 L 287.8125 124.761719 C 287.960938 124.640625 287.996094 124.402344 287.894531 124.230469 Z M 287.894531 124.230469 "/>
<path style=" stroke:none;fill-rule:nonzero;fill:rgb(0%,0%,0%);fill-opacity:1;" d="M 284.714844 118.792969 L 283.898438 117.410156 C 283.800781 117.246094 283.609375 117.203125 283.464844 117.3125 L 282.261719 118.273438 C 282.117188 118.390625 282.078125 118.617188 282.167969 118.789062 L 282.914062 120.144531 C 283.011719 120.316406 283.203125 120.367188 283.351562 120.261719 L 284.625 119.316406 C 284.769531 119.199219 284.808594 118.96875 284.714844 118.792969 Z M 284.714844 118.792969 "/>
<path style=" stroke:none;fill-rule:nonzero;fill:rgb(0%,0%,0%);fill-opacity:1;" d="M 285.726562 126.003906 L 284.914062 124.632812 C 284.8125 124.46875 284.621094 124.425781 284.476562 124.535156 L 283.273438 125.496094 C 283.132812 125.613281 283.09375 125.839844 283.1875 126.011719 L 283.929688 127.367188 C 284.023438 127.535156 284.21875 127.585938 284.367188 127.480469 L 285.636719 126.539062 C 285.710938 126.480469 285.761719 126.394531 285.777344 126.292969 C 285.792969 126.191406 285.777344 126.085938 285.726562 126.003906 Z M 285.726562 126.003906 "/>
<path style=" stroke:none;fill-rule:nonzero;fill:rgb(0%,0%,0%);fill-opacity:1;" d="M 283.453125 127.863281 L 282.640625 126.492188 C 282.539062 126.328125 282.347656 126.285156 282.203125 126.394531 L 281 127.34375 C 280.859375 127.460938 280.816406 127.691406 280.910156 127.863281 L 281.65625 129.21875 C 281.753906 129.390625 281.945312 129.4375 282.09375 129.332031 L 283.363281 128.386719 C 283.507812 128.269531 283.550781 128.039062 283.453125 127.863281 Z M 283.453125 127.863281 "/>
<path style=" stroke:none;fill-rule:nonzero;fill:rgb(0%,0%,0%);fill-opacity:1;" d="M 281.152344 129.75 L 280.34375 128.375 C 280.242188 128.210938 280.046875 128.167969 279.902344 128.28125 L 278.699219 129.253906 C 278.558594 129.371094 278.519531 129.597656 278.613281 129.769531 L 279.359375 131.125 C 279.453125 131.296875 279.644531 131.34375 279.792969 131.238281 L 281.0625 130.292969 C 281.136719 130.238281 281.1875 130.148438 281.207031 130.046875 C 281.222656 129.941406 281.203125 129.835938 281.152344 129.75 Z M 281.152344 129.75 "/>
<path style=" stroke:none;fill-rule:nonzero;fill:rgb(0%,0%,0%);fill-opacity:1;" d="M 282.597656 120.652344 L 281.785156 119.28125 C 281.683594 119.117188 281.492188 119.078125 281.351562 119.1875 L 280.144531 120.144531 C 280.003906 120.261719 279.964844 120.488281 280.054688 120.660156 L 280.800781 122.019531 C 280.898438 122.1875 281.089844 122.238281 281.238281 122.132812 L 282.507812 121.1875 C 282.582031 121.132812 282.632812 121.042969 282.648438 120.945312 C 282.664062 120.84375 282.648438 120.738281 282.597656 120.652344 Z M 282.597656 120.652344 "/>
<path style=" stroke:none;fill-rule:nonzero;fill:rgb(0%,0%,0%);fill-opacity:1;" d="M 280.324219 122.519531 L 279.511719 121.144531 C 279.410156 120.976562 279.21875 120.933594 279.074219 121.046875 L 277.871094 121.996094 C 277.730469 122.109375 277.691406 122.335938 277.78125 122.511719 L 278.527344 123.867188 C 278.625 124.035156 278.816406 124.085938 278.964844 123.976562 L 280.234375 123.035156 C 280.378906 122.917969 280.417969 122.691406 280.324219 122.519531 Z M 280.324219 122.519531 "/>
<path style=" stroke:none;fill-rule:nonzero;fill:rgb(0%,0%,0%);fill-opacity:1;" d="M 278.023438 124.402344 L 277.210938 123.03125 C 277.109375 122.867188 276.917969 122.820312 276.773438 122.929688 L 275.570312 123.90625 C 275.429688 124.023438 275.390625 124.25 275.484375 124.421875 L 276.230469 125.777344 C 276.324219 125.949219 276.515625 126 276.664062 125.890625 L 277.933594 124.945312 C 278.007812 124.886719 278.058594 124.796875 278.078125 124.695312 C 278.09375 124.59375 278.074219 124.488281 278.023438 124.402344 Z M 278.023438 124.402344 "/>
<path style=" stroke:none;fill-rule:nonzero;fill:rgb(0%,0%,0%);fill-opacity:1;" d="M 278.855469 131.636719 L 278.039062 130.261719 C 277.941406 130.097656 277.75 130.054688 277.605469 130.164062 L 276.410156 131.125 C 276.269531 131.242188 276.230469 131.46875 276.324219 131.640625 L 277.054688 133 C 277.152344 133.167969 277.339844 133.21875 277.488281 133.113281 L 278.761719 132.164062 C 278.832031 132.109375 278.882812 132.023438 278.902344 131.921875 C 278.917969 131.824219 278.902344 131.71875 278.855469 131.636719 Z M 278.855469 131.636719 "/>
<path style=" stroke:none;fill-rule:nonzero;fill:rgb(0%,0%,0%);fill-opacity:1;" d="M 276.554688 133.519531 L 275.742188 132.148438 C 275.640625 131.980469 275.445312 131.9375 275.300781 132.050781 L 274.101562 133.011719 C 273.960938 133.125 273.917969 133.351562 274.011719 133.527344 L 274.757812 134.882812 C 274.851562 135.050781 275.042969 135.101562 275.191406 134.996094 L 276.464844 134.054688 C 276.535156 133.996094 276.585938 133.910156 276.605469 133.808594 C 276.621094 133.707031 276.605469 133.601562 276.554688 133.519531 Z M 276.554688 133.519531 "/>
<path style=" stroke:none;fill-rule:nonzero;fill:rgb(0%,0%,0%);fill-opacity:1;" d="M 274.355469 135.574219 L 273.34375 133.871094 C 273.324219 133.832031 273.289062 133.804688 273.25 133.796875 C 273.214844 133.789062 273.175781 133.796875 273.140625 133.824219 L 271.664062 135.003906 C 271.628906 135.03125 271.605469 135.070312 271.597656 135.113281 C 271.589844 135.160156 271.597656 135.207031 271.621094 135.246094 L 272.546875 136.929688 C 272.570312 136.96875 272.601562 136.996094 272.640625 137.007812 C 272.679688 137.019531 272.71875 137.007812 272.75 136.984375 L 274.3125 135.835938 C 274.351562 135.8125 274.378906 135.769531 274.386719 135.71875 C 274.394531 135.667969 274.382812 135.613281 274.355469 135.574219 Z M 274.355469 135.574219 "/>
<path style=" stroke:none;fill-rule:nonzero;fill:rgb(0%,0%,0%);fill-opacity:1;" d="M 272.320312 137.242188 L 271.308594 135.535156 C 271.261719 135.460938 271.171875 135.441406 271.105469 135.492188 L 269.628906 136.671875 C 269.5625 136.726562 269.542969 136.832031 269.585938 136.914062 L 270.515625 138.601562 C 270.558594 138.679688 270.648438 138.703125 270.71875 138.652344 L 272.28125 137.507812 C 272.320312 137.484375 272.347656 137.4375 272.355469 137.386719 C 272.363281 137.335938 272.347656 137.28125 272.320312 137.242188 Z M 272.320312 137.242188 "/>
<path style=" stroke:none;fill-rule:nonzero;fill:rgb(0%,0%,0%);fill-opacity:1;" d="M 270.039062 139.109375 L 269.027344 137.402344 C 268.980469 137.328125 268.890625 137.308594 268.824219 137.363281 L 267.347656 138.539062 C 267.3125 138.5625 267.289062 138.605469 267.28125 138.648438 C 267.273438 138.695312 267.28125 138.742188 267.304688 138.78125 L 268.230469 140.46875 C 268.277344 140.546875 268.367188 140.570312 268.433594 140.523438 L 269.996094 139.375 C 270.035156 139.347656 270.0625 139.304688 270.070312 139.253906 C 270.078125 139.203125 270.066406 139.148438 270.039062 139.109375 Z M 270.039062 139.109375 "/>
<path style=" stroke:none;fill-rule:nonzero;fill:rgb(0%,0%,0%);fill-opacity:1;" d="M 267.832031 140.917969 L 266.820312 139.214844 C 266.796875 139.175781 266.765625 139.152344 266.726562 139.140625 C 266.6875 139.132812 266.648438 139.144531 266.617188 139.167969 L 265.136719 140.335938 C 265.105469 140.359375 265.082031 140.398438 265.074219 140.445312 C 265.066406 140.488281 265.074219 140.539062 265.097656 140.574219 L 266.023438 142.261719 C 266.066406 142.339844 266.15625 142.363281 266.226562 142.3125 L 267.789062 141.167969 C 267.824219 141.140625 267.847656 141.101562 267.855469 141.054688 C 267.863281 141.007812 267.855469 140.957031 267.832031 140.917969 Z M 267.832031 140.917969 "/>
<path style=" stroke:none;fill-rule:nonzero;fill:rgb(0%,0%,0%);fill-opacity:1;" d="M 281.941406 125.277344 L 281.125 123.90625 C 281.027344 123.742188 280.835938 123.699219 280.691406 123.808594 L 279.488281 124.773438 C 279.347656 124.890625 279.308594 125.117188 279.398438 125.289062 L 280.144531 126.644531 C 280.242188 126.8125 280.433594 126.859375 280.578125 126.753906 L 281.851562 125.8125 C 281.921875 125.753906 281.972656 125.667969 281.988281 125.566406 C 282.007812 125.464844 281.988281 125.363281 281.941406 125.277344 Z M 281.941406 125.277344 "/>
<path style=" stroke:none;fill-rule:nonzero;fill:rgb(0%,0%,0%);fill-opacity:1;" d="M 279.636719 127.164062 L 278.824219 125.789062 C 278.722656 125.625 278.53125 125.582031 278.386719 125.695312 L 277.183594 126.65625 C 277.042969 126.773438 277.003906 127 277.09375 127.171875 L 277.839844 128.527344 C 277.9375 128.699219 278.128906 128.75 278.277344 128.644531 L 279.546875 127.695312 C 279.621094 127.640625 279.667969 127.550781 279.6875 127.453125 C 279.703125 127.351562 279.6875 127.25 279.636719 127.164062 Z M 279.636719 127.164062 "/>
<path style=" stroke:none;fill-rule:nonzero;fill:rgb(0%,0%,0%);fill-opacity:1;" d="M 277.34375 129.046875 L 276.527344 127.675781 C 276.429688 127.511719 276.234375 127.46875 276.089844 127.582031 L 274.886719 128.539062 C 274.746094 128.65625 274.707031 128.882812 274.796875 129.054688 L 275.542969 130.414062 C 275.640625 130.582031 275.832031 130.632812 275.980469 130.527344 L 277.25 129.578125 C 277.320312 129.523438 277.371094 129.4375 277.390625 129.335938 C 277.40625 129.238281 277.390625 129.132812 277.34375 129.046875 Z M 277.34375 129.046875 "/>
<path style=" stroke:none;fill-rule:nonzero;fill:rgb(0%,0%,0%);fill-opacity:1;" d="M 275.039062 130.933594 L 274.226562 129.558594 C 274.125 129.398438 273.933594 129.355469 273.792969 129.464844 L 272.585938 130.421875 C 272.445312 130.539062 272.40625 130.765625 272.5 130.9375 L 273.246094 132.3125 C 273.339844 132.480469 273.53125 132.527344 273.679688 132.425781 L 274.949219 131.480469 C 275.027344 131.425781 275.078125 131.335938 275.097656 131.230469 C 275.113281 131.125 275.09375 131.019531 275.039062 130.933594 Z M 275.039062 130.933594 "/>
<path style=" stroke:none;fill-rule:nonzero;fill:rgb(0%,0%,0%);fill-opacity:1;" d="M 272.859375 132.988281 L 271.847656 131.285156 C 271.824219 131.246094 271.792969 131.21875 271.753906 131.210938 C 271.714844 131.203125 271.675781 131.210938 271.644531 131.238281 L 270.164062 132.417969 C 270.097656 132.472656 270.078125 132.578125 270.125 132.660156 L 271.050781 134.347656 C 271.070312 134.386719 271.105469 134.414062 271.144531 134.421875 C 271.179688 134.433594 271.222656 134.421875 271.253906 134.398438 L 272.816406 133.25 C 272.855469 133.226562 272.878906 133.179688 272.886719 133.128906 C 272.898438 133.078125 272.886719 133.027344 272.859375 132.988281 Z M 272.859375 132.988281 "/>
<path style=" stroke:none;fill-rule:nonzero;fill:rgb(0%,0%,0%);fill-opacity:1;" d="M 270.808594 134.65625 L 269.796875 132.949219 C 269.75 132.871094 269.65625 132.851562 269.589844 132.90625 L 268.113281 134.082031 C 268.046875 134.140625 268.027344 134.246094 268.074219 134.328125 L 269 136.011719 C 269.042969 136.09375 269.132812 136.117188 269.203125 136.066406 L 270.765625 134.921875 C 270.804688 134.894531 270.832031 134.851562 270.839844 134.800781 C 270.847656 134.75 270.835938 134.695312 270.808594 134.65625 Z M 270.808594 134.65625 "/>
<path style=" stroke:none;fill-rule:nonzero;fill:rgb(0%,0%,0%);fill-opacity:1;" d="M 268.527344 136.515625 L 267.515625 134.804688 C 267.46875 134.730469 267.378906 134.710938 267.3125 134.765625 L 265.832031 135.941406 C 265.765625 135.996094 265.746094 136.101562 265.789062 136.183594 L 266.71875 137.871094 C 266.765625 137.949219 266.855469 137.976562 266.921875 137.925781 L 268.484375 136.777344 C 268.523438 136.753906 268.550781 136.710938 268.558594 136.660156 C 268.566406 136.605469 268.554688 136.554688 268.527344 136.515625 Z M 268.527344 136.515625 "/>
<path style=" stroke:none;fill-rule:nonzero;fill:rgb(0%,0%,0%);fill-opacity:1;" d="M 266.320312 138.332031 L 265.308594 136.628906 C 265.285156 136.589844 265.253906 136.5625 265.214844 136.554688 C 265.175781 136.546875 265.136719 136.554688 265.101562 136.582031 L 263.625 137.761719 C 263.558594 137.816406 263.539062 137.925781 263.585938 138.003906 L 264.511719 139.6875 C 264.53125 139.730469 264.566406 139.757812 264.601562 139.769531 C 264.640625 139.777344 264.683594 139.769531 264.714844 139.742188 L 266.273438 138.597656 C 266.3125 138.574219 266.34375 138.527344 266.351562 138.476562 C 266.359375 138.425781 266.347656 138.371094 266.320312 138.332031 Z M 266.320312 138.332031 "/>
<path style=" stroke:none;fill-rule:nonzero;fill:rgb(0%,0%,0%);fill-opacity:1;" d="M 265.621094 142.726562 L 264.613281 141.023438 C 264.566406 140.945312 264.472656 140.925781 264.410156 140.980469 L 262.929688 142.15625 C 262.898438 142.183594 262.875 142.222656 262.867188 142.265625 C 262.859375 142.3125 262.867188 142.359375 262.886719 142.398438 L 263.8125 144.085938 C 263.859375 144.164062 263.949219 144.1875 264.015625 144.140625 L 265.582031 142.992188 C 265.617188 142.96875 265.644531 142.921875 265.652344 142.871094 C 265.660156 142.820312 265.648438 142.765625 265.621094 142.726562 Z M 265.621094 142.726562 "/>
<path style=" stroke:none;fill-rule:nonzero;fill:rgb(0%,0%,0%);fill-opacity:1;" d="M 263.414062 144.539062 L 262.402344 142.832031 C 262.382812 142.796875 262.347656 142.769531 262.308594 142.761719 C 262.269531 142.75 262.230469 142.761719 262.199219 142.789062 L 260.722656 143.96875 C 260.6875 143.992188 260.664062 144.03125 260.65625 144.078125 C 260.648438 144.125 260.65625 144.171875 260.679688 144.210938 L 261.605469 145.894531 C 261.648438 145.976562 261.742188 146 261.808594 145.949219 L 263.371094 144.800781 C 263.410156 144.777344 263.4375 144.730469 263.445312 144.679688 C 263.453125 144.628906 263.441406 144.578125 263.414062 144.539062 Z M 263.414062 144.539062 "/>
<path style=" stroke:none;fill-rule:nonzero;fill:rgb(0%,0%,0%);fill-opacity:1;" d="M 266.882812 133.710938 L 265.914062 132.105469 C 265.847656 132 265.726562 131.976562 265.636719 132.046875 L 264.242188 133.160156 C 264.199219 133.195312 264.167969 133.246094 264.160156 133.308594 C 264.148438 133.367188 264.160156 133.433594 264.1875 133.484375 L 265.058594 135.070312 C 265.085938 135.121094 265.132812 135.160156 265.183594 135.175781 C 265.234375 135.1875 265.289062 135.175781 265.332031 135.140625 L 266.808594 134.046875 C 266.855469 134.015625 266.890625 133.960938 266.90625 133.898438 C 266.921875 133.832031 266.910156 133.765625 266.882812 133.710938 Z M 266.882812 133.710938 "/>
<path style=" stroke:none;fill-rule:nonzero;fill:rgb(0%,0%,0%);fill-opacity:1;" d="M 264.671875 135.519531 L 263.71875 133.914062 C 263.691406 133.863281 263.644531 133.828125 263.59375 133.816406 C 263.542969 133.804688 263.488281 133.820312 263.445312 133.855469 L 262.050781 134.984375 C 262.007812 135.019531 261.976562 135.070312 261.964844 135.132812 C 261.957031 135.191406 261.96875 135.253906 261.996094 135.304688 L 262.867188 136.894531 C 262.925781 137.003906 263.046875 137.035156 263.140625 136.96875 L 264.613281 135.871094 C 264.664062 135.835938 264.699219 135.78125 264.710938 135.710938 C 264.722656 135.644531 264.707031 135.574219 264.671875 135.519531 Z M 264.671875 135.519531 "/>
<path style=" stroke:none;fill-rule:nonzero;fill:rgb(0%,0%,0%);fill-opacity:1;" d="M 262.464844 137.332031 L 261.511719 135.722656 C 261.449219 135.621094 261.328125 135.59375 261.238281 135.664062 L 259.84375 136.777344 C 259.800781 136.8125 259.769531 136.867188 259.757812 136.925781 C 259.746094 136.988281 259.757812 137.050781 259.789062 137.101562 L 260.660156 138.6875 C 260.6875 138.742188 260.730469 138.777344 260.78125 138.792969 C 260.832031 138.804688 260.886719 138.792969 260.929688 138.761719 L 262.40625 137.664062 C 262.453125 137.628906 262.484375 137.574219 262.496094 137.511719 C 262.507812 137.449219 262.496094 137.382812 262.464844 137.332031 Z M 262.464844 137.332031 "/>
<path style=" stroke:none;fill-rule:nonzero;fill:rgb(0%,0%,0%);fill-opacity:1;" d="M 260.285156 139.1875 L 259.273438 137.480469 C 259.226562 137.402344 259.136719 137.386719 259.070312 137.4375 L 257.59375 138.617188 C 257.523438 138.671875 257.507812 138.777344 257.550781 138.859375 L 258.476562 140.546875 C 258.523438 140.625 258.609375 140.648438 258.679688 140.597656 L 260.242188 139.453125 C 260.28125 139.429688 260.3125 139.382812 260.320312 139.332031 C 260.328125 139.28125 260.316406 139.226562 260.285156 139.1875 Z M 260.285156 139.1875 "/>
<path style=" stroke:none;fill-rule:nonzero;fill:rgb(0%,0%,0%);fill-opacity:1;" d="M 286.417969 121.554688 L 285.542969 120.085938 C 285.441406 119.921875 285.25 119.878906 285.105469 119.992188 L 281.6875 122.824219 C 281.550781 122.941406 281.515625 123.164062 281.605469 123.335938 L 282.429688 124.839844 C 282.476562 124.925781 282.550781 124.984375 282.632812 125.003906 C 282.71875 125.023438 282.804688 125 282.875 124.945312 L 286.34375 122.074219 C 286.484375 121.953125 286.515625 121.722656 286.417969 121.554688 Z M 286.417969 121.554688 "/>
<path style=" stroke:none;fill-rule:nonzero;fill:rgb(0%,0%,0%);fill-opacity:1;" d="M 264.105469 140.085938 L 263.03125 138.292969 C 263.011719 138.253906 262.976562 138.230469 262.9375 138.222656 C 262.898438 138.214844 262.859375 138.226562 262.824219 138.253906 L 259.140625 141.308594 C 259.074219 141.363281 259.054688 141.46875 259.101562 141.546875 L 260.109375 143.390625 C 260.128906 143.433594 260.164062 143.460938 260.203125 143.46875 C 260.242188 143.476562 260.285156 143.46875 260.316406 143.441406 L 264.066406 140.335938 C 264.132812 140.277344 264.152344 140.167969 264.105469 140.085938 Z M 264.105469 140.085938 "/>
<path style=" stroke:none;fill-rule:nonzero;fill:rgb(0%,0%,0%);fill-opacity:1;" d="M 275.835938 126.382812 L 274.847656 124.667969 C 274.800781 124.589844 274.710938 124.570312 274.644531 124.625 L 266.457031 131.164062 C 266.386719 131.21875 266.371094 131.324219 266.414062 131.40625 L 267.425781 133.238281 C 267.445312 133.28125 267.480469 133.308594 267.519531 133.316406 C 267.558594 133.328125 267.601562 133.316406 267.632812 133.289062 L 275.796875 126.625 C 275.828125 126.597656 275.851562 126.558594 275.859375 126.511719 C 275.867188 126.46875 275.855469 126.417969 275.835938 126.382812 Z M 275.835938 126.382812 "/>
</g>
<mask id="mask20">
  <g filter="url(#alpha)">
<rect x="0" y="0" width="350" height="290" style="fill:rgb(0%,0%,0%);fill-opacity:0.101961;stroke:none;"/>
  </g>
</mask>
<clipPath id="clip21">
  <rect width="350" height="290"/>
</clipPath>
<g id="surface66" clip-path="url(#clip21)">
<path style=" stroke:none;fill-rule:nonzero;fill:rgb(0%,0%,0%);fill-opacity:1;" d="M 276.085938 120.589844 L 271.734375 113.105469 C 271.484375 112.671875 270.984375 112.558594 270.617188 112.851562 L 258.628906 122.375 C 258.449219 122.519531 258.328125 122.742188 258.285156 122.992188 C 258.246094 123.242188 258.292969 123.5 258.414062 123.710938 L 262.847656 131.410156 C 262.96875 131.621094 263.15625 131.765625 263.367188 131.8125 C 263.578125 131.859375 263.796875 131.804688 263.976562 131.660156 L 275.878906 121.914062 C 276.054688 121.773438 276.175781 121.550781 276.214844 121.300781 C 276.253906 121.054688 276.207031 120.796875 276.085938 120.589844 Z M 276.085938 120.589844 "/>
</g>
</defs>
<g id="surface1">
<use xlink:href="#surface6" mask="url(#mask0)"/>
<path style=" stroke:none;fill-rule:nonzero;fill:rgb(66.666667%,67.058824%,69.019608%);fill-opacity:1;" d="M 204.246094 236.507812 L 204.246094 250.390625 L 207.582031 250.390625 L 206.9375 235.488281 Z M 204.246094 236.507812 "/>
<path style=" stroke:none;fill-rule:nonzero;fill:rgb(66.666667%,67.058824%,69.019608%);fill-opacity:1;" d="M 154.144531 233.707031 L 154.144531 247.589844 L 157.484375 247.589844 L 156.839844 232.6875 Z M 154.144531 233.707031 "/>
<path style=" stroke:none;fill-rule:nonzero;fill:rgb(66.666667%,67.058824%,69.019608%);fill-opacity:1;" d="M 210.273438 210.78125 C 211.460938 210.78125 212.425781 211.925781 212.425781 213.332031 L 212.425781 232.945312 C 212.425781 234.351562 211.460938 235.492188 210.273438 235.492188 C 209.085938 235.492188 208.121094 234.351562 208.121094 232.945312 L 208.121094 213.332031 C 208.121094 211.925781 209.085938 210.78125 210.273438 210.78125 Z M 210.273438 210.78125 "/>
<path style=" stroke:none;fill-rule:nonzero;fill:rgb(66.666667%,67.058824%,69.019608%);fill-opacity:1;" d="M 155.0625 205.304688 C 156.25 205.304688 157.210938 206.445312 157.210938 207.851562 L 157.210938 232.941406 C 157.210938 234.347656 156.25 235.488281 155.0625 235.488281 C 153.871094 235.488281 152.910156 234.347656 152.910156 232.941406 L 152.910156 207.851562 C 152.910156 206.445312 153.871094 205.304688 155.0625 205.304688 Z M 155.0625 205.304688 "/>
<path style=" stroke:none;fill-rule:nonzero;fill:rgb(66.666667%,67.058824%,69.019608%);fill-opacity:1;" d="M 217.917969 62.917969 C 217.917969 62.917969 222.222656 60.75 222.867188 62.917969 C 223.511719 65.082031 223.835938 83.804688 223.835938 83.804688 L 219.746094 83.804688 Z M 217.917969 62.917969 "/>
<path style=" stroke:none;fill-rule:nonzero;fill:rgb(66.666667%,67.058824%,69.019608%);fill-opacity:1;" d="M 170.777344 62.917969 C 170.777344 62.917969 166.46875 60.75 165.824219 62.917969 C 165.179688 65.082031 164.855469 83.804688 164.855469 83.804688 L 168.945312 83.804688 Z M 170.777344 62.917969 "/>
<path style=" stroke:none;fill-rule:nonzero;fill:rgb(66.666667%,67.058824%,69.019608%);fill-opacity:1;" d="M 171.417969 44.320312 L 170.773438 59.859375 L 173.679688 59.859375 L 173.679688 43.9375 Z M 171.417969 44.320312 "/>
<path style=" stroke:none;fill-rule:nonzero;fill:rgb(20%,19.607843%,23.921569%);fill-opacity:1;" d="M 168.945312 83.804688 L 169.808594 61.390625 C 169.808594 61.390625 169.484375 56.421875 179.707031 57.949219 C 189.929688 59.480469 219.855469 62.535156 219.855469 62.535156 L 219.855469 83.804688 Z M 168.945312 83.804688 "/>
<path style=" stroke:none;fill-rule:nonzero;fill:rgb(20%,19.607843%,23.921569%);fill-opacity:1;" d="M 209.84375 201.867188 L 208.230469 236.125 C 208.230469 236.125 184.550781 251.664062 155.816406 236.890625 L 158.398438 200.847656 Z M 209.84375 201.867188 "/>
<path style=" stroke:none;fill-rule:nonzero;fill:rgb(26.666667%,25.098039%,32.54902%);fill-opacity:1;" d="M 187.351562 66.992188 L 187.886719 89.152344 L 221.253906 89.152344 L 219.316406 59.859375 Z M 187.351562 66.992188 "/>
<path style=" stroke:none;fill-rule:nonzero;fill:rgb(29.803922%,28.627451%,50.588235%);fill-opacity:1;" d="M 159.3125 187.21875 L 190.742188 187.21875 L 190.742188 234.34375 L 159.3125 234.34375 Z M 159.3125 187.21875 "/>
<path style=" stroke:none;fill-rule:nonzero;fill:rgb(100%,72.54902%,72.54902%);fill-opacity:1;" d="M 179.171875 206.453125 C 179.171875 206.453125 183.691406 202.25 184.445312 203.523438 C 185.195312 204.796875 181.757812 210.273438 180.355469 209.636719 C 178.957031 209 179.171875 206.453125 179.171875 206.453125 Z M 179.171875 206.453125 "/>
<path style=" stroke:none;fill-rule:nonzero;fill:rgb(31.372549%,30.980392%,37.647059%);fill-opacity:1;" d="M 98.320312 82.53125 L 304.628906 82.53125 L 304.628906 204.796875 L 98.320312 204.796875 Z M 98.320312 82.53125 "/>
<path style=" stroke:none;fill-rule:nonzero;fill:rgb(20%,19.607843%,23.921569%);fill-opacity:1;" d="M 169.050781 43.429688 C 169.050781 43.429688 167.4375 25.597656 169.050781 23.4375 C 170.667969 21.273438 197.789062 0.765625 222.867188 24.835938 C 222.867188 24.835938 225.234375 24.964844 224.804688 31.332031 C 224.550781 35.359375 224.566406 39.40625 224.855469 43.429688 C 224.855469 43.429688 170.882812 48.015625 169.050781 43.429688 Z M 169.050781 43.429688 "/>
<use xlink:href="#surface9" mask="url(#mask1)"/>
<path style=" stroke:none;fill-rule:nonzero;fill:rgb(20%,19.607843%,23.921569%);fill-opacity:1;" d="M 169.050781 45.722656 C 169.050781 45.722656 167.4375 27.890625 169.050781 25.730469 C 170.667969 23.566406 197.789062 3.058594 222.867188 27.128906 C 222.867188 27.128906 225.234375 27.257812 224.804688 33.625 C 224.550781 37.652344 224.566406 41.699219 224.855469 45.722656 C 224.855469 45.722656 170.882812 50.308594 169.050781 45.722656 Z M 169.050781 45.722656 "/>
<path style=" stroke:none;fill-rule:nonzero;fill:rgb(29.803922%,28.627451%,50.588235%);fill-opacity:1;" d="M 225.773438 37.574219 C 225.773438 37.574219 227.492188 45.214844 226.957031 46.488281 C 226.421875 47.761719 226.519531 51.328125 226.519531 51.328125 C 226.519531 51.328125 226.632812 53.621094 225.773438 53.875 C 224.910156 54.125 224.160156 54.253906 224.855469 55.019531 C 225.554688 55.785156 224.855469 56.929688 224.855469 56.929688 C 224.855469 56.929688 224.476562 58.714844 224.855469 59.859375 C 225.234375 61.007812 222.648438 61.484375 222.867188 62.917969 C 223.085938 64.351562 223.808594 68.394531 222.867188 68.523438 C 221.925781 68.652344 223.191406 73.617188 222.339844 73.617188 C 221.492188 73.617188 220.886719 82.53125 220.886719 82.53125 C 220.886719 82.53125 214.914062 76.546875 210.933594 78.199219 C 210.933594 78.199219 211.257812 73.234375 212.546875 71.449219 C 213.839844 69.664062 213.449219 65.082031 213.449219 65.082031 L 219.855469 42.285156 Z M 225.773438 37.574219 "/>
<path style=" stroke:none;fill-rule:nonzero;fill:rgb(68.235294%,43.137255%,47.45098%);fill-opacity:1;" d="M 193.808594 142.945312 C 192.410156 144.773438 190.902344 135 190.902344 135 C 190.902344 135 186.921875 141.496094 184.335938 137.167969 C 182.550781 134.167969 183.960938 125.671875 184.984375 120.738281 C 185.441406 118.542969 185.828125 117.054688 185.828125 117.054688 L 191.640625 115.910156 C 191.640625 115.910156 191.660156 117.40625 191.789062 119.226562 C 191.964844 121.679688 192.339844 124.730469 193.144531 125.460938 C 194.5625 126.726562 195.207031 141.097656 193.808594 142.945312 Z M 193.808594 142.945312 "/>
<use xlink:href="#surface12" mask="url(#mask2)"/>
<path style=" stroke:none;fill-rule:nonzero;fill:rgb(29.803922%,28.627451%,50.588235%);fill-opacity:1;" d="M 190.796875 28.148438 C 190.796875 28.148438 180.675781 28.023438 178.203125 34.386719 C 175.730469 40.753906 175.621094 42.921875 174.652344 43.9375 C 173.683594 44.957031 185.195312 50.308594 185.195312 50.308594 L 185.734375 72.214844 C 185.734375 72.214844 187.996094 69.503906 191.652344 70.730469 C 195.3125 71.957031 199.941406 70.730469 199.941406 70.730469 C 199.941406 70.730469 199.726562 70.269531 202.742188 70.730469 C 205.757812 71.191406 215.332031 65.210938 215.332031 65.210938 C 215.332031 65.210938 219.097656 57.949219 218.886719 55.914062 C 218.671875 53.878906 226.417969 38.464844 226.417969 38.464844 C 226.417969 38.464844 227.601562 30.3125 221.898438 28.148438 C 221.898438 28.148438 219.878906 24.546875 214.6875 24.582031 C 209.496094 24.617188 190.796875 28.148438 190.796875 28.148438 Z M 190.796875 28.148438 "/>
<use xlink:href="#surface15" mask="url(#mask3)"/>
<path style=" stroke:none;fill-rule:nonzero;fill:rgb(29.803922%,28.627451%,50.588235%);fill-opacity:1;" d="M 177.769531 43.9375 L 174.652344 43.9375 C 174.652344 43.9375 174.003906 51.710938 174.652344 54.003906 C 175.296875 56.296875 175.621094 55.964844 175.402344 57.660156 C 175.1875 59.355469 176.910156 61.953125 176.910156 61.953125 C 176.910156 61.953125 177.125 68.359375 178.203125 70.742188 C 179.28125 73.125 177.019531 83.816406 177.019531 83.816406 C 177.636719 85.664062 178.546875 87.347656 179.707031 88.785156 C 181.539062 90.945312 182.507812 98.96875 181.96875 102.027344 C 181.429688 105.082031 183.476562 106.230469 183.476562 106.230469 C 183.476562 106.230469 184.335938 120.496094 184.660156 120.496094 C 184.984375 120.496094 191.226562 116.675781 193.160156 119.984375 L 191.652344 106.867188 L 191.765625 81.523438 C 191.765625 81.523438 189.714844 78.339844 190.796875 75.539062 C 191.875 72.738281 189.933594 66.113281 189.933594 66.113281 L 187.132812 51.339844 Z M 177.769531 43.9375 "/>
<path style=" stroke:none;fill-rule:nonzero;fill:rgb(20%,19.607843%,23.921569%);fill-opacity:1;" d="M 158.398438 245.296875 C 158.398438 245.296875 153.878906 244.148438 153.769531 245.296875 C 153.664062 246.441406 148.386719 258.160156 154.957031 261.601562 C 161.523438 265.039062 179.0625 272.425781 207.585938 262.871094 C 207.585938 262.871094 209.414062 263.636719 208.984375 258.925781 C 208.554688 254.214844 208.554688 248.992188 208.554688 248.992188 C 208.554688 248.992188 204.246094 247.589844 201.015625 248.101562 C 197.789062 248.613281 169.699219 255.359375 158.398438 245.296875 Z M 158.398438 245.296875 "/>
<use xlink:href="#surface18" mask="url(#mask4)"/>
<path style=" stroke:none;fill-rule:nonzero;fill:rgb(20%,19.607843%,23.921569%);fill-opacity:1;" d="M 158.398438 243.769531 C 158.398438 243.769531 153.878906 242.621094 153.769531 243.769531 C 153.664062 244.914062 148.386719 256.632812 154.957031 260.070312 C 161.523438 263.511719 179.0625 270.894531 207.585938 261.34375 C 207.585938 261.34375 209.414062 262.109375 208.984375 257.398438 C 208.554688 252.6875 208.554688 247.460938 208.554688 247.460938 C 208.554688 247.460938 204.246094 246.0625 201.015625 246.574219 C 197.789062 247.085938 169.699219 253.832031 158.398438 243.769531 Z M 158.398438 243.769531 "/>
<path style=" stroke:none;fill-rule:nonzero;fill:rgb(26.666667%,25.098039%,32.54902%);fill-opacity:1;" d="M 184.757812 48.515625 C 184.480469 50.386719 183.851562 52.179688 183.753906 54.070312 C 183.65625 55.964844 184.273438 58.113281 185.75 58.855469 C 186.160156 59 186.558594 59.191406 186.941406 59.429688 C 187.507812 59.882812 187.742188 60.738281 187.859375 61.542969 C 188.019531 62.578125 188.058594 63.632812 187.972656 64.683594 C 187.890625 65.738281 187.703125 66.871094 188.140625 67.792969 C 188.914062 69.425781 190.925781 69.183594 192.453125 68.726562 L 191.929688 73.550781 C 191.886719 73.933594 191.859375 74.363281 192.097656 74.625 C 192.320312 74.8125 192.601562 74.882812 192.871094 74.824219 C 194.203125 74.722656 195.570312 74.507812 196.710938 73.675781 C 197.851562 72.847656 198.699219 71.304688 198.484375 69.75 C 198.230469 67.945312 196.65625 66.511719 196.867188 64.703125 C 197.035156 63.300781 198.191406 62.410156 198.953125 61.332031 C 200.332031 59.359375 200.40625 56.363281 199.324219 54.132812 C 198.242188 51.902344 196.15625 50.519531 194.003906 50.265625 C 192.8125 50.125 191.574219 50.296875 190.453125 49.808594 C 189.664062 49.464844 189.054688 48.703125 188.804688 47.753906 "/>
<path style=" stroke:none;fill-rule:nonzero;fill:rgb(46.27451%,49.019608%,62.352941%);fill-opacity:1;" d="M 147.207031 218.425781 L 148.332031 215.519531 C 148.332031 215.519531 154.417969 208.816406 155.816406 208.34375 C 157.210938 207.875 162.917969 205.828125 163.78125 205.828125 C 164.640625 205.828125 180.355469 204.808594 180.355469 204.808594 L 182.183594 209.902344 L 162.460938 215.027344 L 155.816406 220.757812 Z M 147.207031 218.425781 "/>
<path style=" stroke:none;fill-rule:nonzero;fill:rgb(100%,72.54902%,72.54902%);fill-opacity:1;" d="M 194.589844 140.222656 L 193.558594 149.605469 L 193.160156 153.214844 L 188.535156 153.980469 C 188.535156 153.980469 188.035156 152.710938 187.328125 150.761719 C 185.179688 144.847656 181.136719 132.652344 183.480469 130.546875 C 186.597656 127.742188 187.355469 137.042969 187.355469 137.042969 L 190.910156 135 Z M 194.589844 140.222656 "/>
<path style=" stroke:none;fill-rule:nonzero;fill:rgb(100%,100%,100%);fill-opacity:1;" d="M 170.449219 157.671875 L 193.816406 157.671875 L 193.816406 199.445312 L 170.449219 199.445312 Z M 170.449219 157.671875 "/>
<use xlink:href="#surface21" mask="url(#mask5)"/>
<path style=" stroke:none;fill-rule:nonzero;fill:rgb(100%,100%,100%);fill-opacity:1;" d="M 181.203125 155.890625 L 204.320312 159.933594 L 199.15625 201.257812 L 176.042969 197.214844 Z M 181.203125 155.890625 "/>
<path style=" stroke:none;fill-rule:nonzero;fill:rgb(7.45098%,4.705882%,71.764706%);fill-opacity:1;" d="M 183.378906 159.832031 L 195.277344 161.914062 L 192.621094 183.183594 L 180.722656 181.101562 Z M 183.378906 159.832031 "/>
<path style=" stroke:none;fill-rule:nonzero;fill:rgb(7.45098%,4.705882%,71.764706%);fill-opacity:1;" d="M 179.445312 187.152344 L 193.863281 189.675781 L 193.285156 194.292969 L 178.871094 191.773438 Z M 179.445312 187.152344 "/>
<use xlink:href="#surface24" mask="url(#mask6)"/>
<path style=" stroke:none;fill-rule:nonzero;fill:rgb(68.235294%,43.137255%,47.45098%);fill-opacity:1;" d="M 213.449219 35.914062 C 213.449219 44.742188 207.402344 51.898438 199.941406 51.898438 C 192.484375 51.898438 186.4375 44.742188 186.4375 35.914062 C 186.4375 27.089844 192.484375 19.933594 199.941406 19.933594 C 207.402344 19.933594 213.449219 27.089844 213.449219 35.914062 Z M 213.449219 35.914062 "/>
<path style=" stroke:none;fill-rule:nonzero;fill:rgb(26.666667%,25.098039%,32.54902%);fill-opacity:1;" d="M 188.804688 47.761719 C 188.714844 47.347656 188.746094 46.910156 188.898438 46.527344 C 189.414062 45.261719 190.875 45.152344 192.0625 45.214844 C 194.847656 45.367188 197.90625 45.386719 200.085938 43.304688 C 200.988281 42.449219 202 40.296875 203.3125 40.707031 C 204.480469 41.070312 204.96875 42.945312 206.1875 43.363281 C 207.066406 43.664062 207.980469 43.183594 208.878906 42.980469 C 210.171875 42.679688 211.496094 42.929688 212.804688 42.941406 C 214.117188 42.953125 215.539062 42.660156 216.433594 41.523438 C 217.640625 39.996094 217.445312 37.609375 217.339844 35.515625 C 217.207031 32.808594 217.363281 30.097656 217.800781 27.4375 C 218.238281 24.792969 218.914062 21.835938 217.679688 19.570312 C 216.507812 17.410156 214.070312 16.820312 212.410156 15.164062 C 210.851562 13.636719 210.027344 11.1875 208.386719 9.769531 C 206.316406 7.984375 203.503906 8.242188 200.960938 8.550781 L 195.4375 9.246094 C 194.015625 9.425781 192.53125 9.628906 191.359375 10.632812 C 189.246094 12.445312 188.953125 16.207031 186.953125 18.191406 C 186.0625 19.070312 184.921875 19.503906 183.90625 20.164062 C 182.886719 20.820312 181.90625 21.859375 181.789062 23.21875 C 181.691406 24.367188 182.214844 25.421875 182.472656 26.527344 C 183.074219 29.164062 182.132812 31.878906 181.527344 34.53125 C 180.925781 37.1875 180.808594 40.414062 182.5625 42.175781 C 182.917969 42.535156 183.332031 42.808594 183.675781 43.183594 C 184.859375 44.460938 185.023438 46.621094 184.746094 48.484375 "/>
<path style=" stroke:none;fill-rule:nonzero;fill:rgb(26.666667%,25.098039%,32.54902%);fill-opacity:1;" d="M 201.367188 54.925781 C 201.367188 54.398438 201.222656 53.96875 201.042969 53.96875 C 200.863281 53.96875 200.71875 54.398438 200.71875 54.925781 C 200.71875 55.453125 200.863281 55.878906 201.042969 55.878906 C 201.222656 55.878906 201.367188 55.453125 201.367188 54.925781 Z M 201.367188 54.925781 "/>
<path style=" stroke:none;fill-rule:nonzero;fill:rgb(26.666667%,25.098039%,32.54902%);fill-opacity:1;" d="M 201.367188 58.90625 C 201.367188 58.378906 201.222656 57.949219 201.042969 57.949219 C 200.863281 57.949219 200.71875 58.378906 200.71875 58.90625 C 200.71875 59.433594 200.863281 59.859375 201.042969 59.859375 C 201.222656 59.859375 201.367188 59.433594 201.367188 58.90625 Z M 201.367188 58.90625 "/>
<path style=" stroke:none;fill-rule:nonzero;fill:rgb(68.235294%,43.137255%,47.45098%);fill-opacity:1;" d="M 193.882812 142.917969 C 194.226562 142.449219 194.457031 141.242188 194.589844 139.648438 L 190.742188 133.96875 C 190.742188 133.96875 192.371094 144.976562 193.882812 142.917969 Z M 193.882812 142.917969 "/>
<use xlink:href="#surface27" mask="url(#mask7)"/>
<path style=" stroke:none;fill-rule:nonzero;fill:rgb(46.27451%,49.019608%,62.352941%);fill-opacity:1;" d="M 198.222656 237.148438 C 198.222656 237.148438 191.90625 248.699219 172.175781 247.460938 C 153.585938 246.316406 144.515625 235.492188 144.945312 231.671875 C 145.378906 227.851562 143.761719 218.550781 147.742188 215.875 C 150.050781 214.328125 153.089844 215.246094 155.234375 216.292969 C 156.746094 217.019531 158.476562 216.652344 159.679688 215.347656 C 161.640625 213.257812 165.292969 210.90625 171.0625 212.757812 C 171.804688 212.992188 172.589844 212.976562 173.324219 212.707031 C 175.726562 211.839844 181.445312 210.335938 185.59375 213.679688 C 186.933594 214.769531 188.683594 214.851562 190.089844 213.882812 L 190.144531 213.839844 C 192.082031 212.4375 201.125 225.683594 201.125 225.683594 C 201.125 225.683594 201.558594 235.875 198.222656 237.148438 Z M 198.222656 237.148438 "/>
<use xlink:href="#surface30" mask="url(#mask8)"/>
<path style=" stroke:none;fill-rule:nonzero;fill:rgb(100%,72.54902%,72.54902%);fill-opacity:1;" d="M 185.039062 226.832031 C 185.039062 235.238281 179.277344 242.050781 172.175781 242.050781 C 165.070312 242.050781 159.3125 235.238281 159.3125 226.832031 C 159.3125 218.421875 165.070312 211.609375 172.175781 211.609375 C 179.277344 211.609375 185.039062 218.421875 185.039062 226.832031 Z M 185.039062 226.832031 "/>
<path style=" stroke:none;fill-rule:nonzero;fill:rgb(72.54902%,41.960784%,41.960784%);fill-opacity:1;" d="M 168.488281 213.671875 C 167.136719 214.101562 165.808594 214.929688 165.148438 216.285156 C 164.75 217.101562 164.613281 218.085938 164.039062 218.765625 C 163.226562 219.730469 161.851562 219.75 160.75 220.292969 C 159.648438 220.835938 158.925781 222.746094 160.003906 223.351562 C 158.878906 223.417969 158.046875 224.644531 157.90625 225.863281 C 157.769531 227.082031 158.160156 228.296875 158.535156 229.460938 C 159.769531 233.21875 161.097656 237.144531 163.816406 239.816406 C 168.246094 244.179688 174.921875 243.976562 180.875 243.515625 C 181.359375 243.535156 181.839844 243.402344 182.269531 243.132812 C 182.917969 242.628906 182.996094 241.664062 183.105469 240.816406 C 183.554688 237.191406 185.210938 233.902344 186.296875 230.445312 C 187.382812 226.988281 187.828125 222.925781 186 219.863281 C 183.3125 215.324219 173.015625 212.21875 168.488281 213.671875 Z M 168.488281 213.671875 "/>
<use xlink:href="#surface33" mask="url(#mask9)"/>
<path style=" stroke:none;fill-rule:nonzero;fill:rgb(46.27451%,49.019608%,62.352941%);fill-opacity:1;" d="M 198.433594 229.378906 L 201.128906 225.683594 L 200.589844 205.308594 C 200.851562 203.835938 201.035156 202.347656 201.128906 200.847656 C 201.234375 198.683594 199.78125 193.84375 199.78125 193.84375 C 200.007812 192.878906 200.3125 191.9375 200.695312 191.039062 C 201.339844 189.511719 199.785156 186.074219 199.785156 186.074219 C 199.785156 186.074219 197.464844 177.160156 198.433594 172.699219 C 199.402344 168.242188 198.199219 165.699219 198.199219 165.699219 C 198.199219 165.699219 197.253906 160.730469 197.359375 158.695312 C 197.464844 156.65625 195.207031 154.742188 195.207031 154.742188 L 193.484375 149.777344 L 186.597656 151.304688 L 186.597656 168.496094 C 186.597656 168.496094 187.027344 184.925781 186.597656 188.113281 C 186.167969 191.300781 187.457031 194.351562 187.457031 194.351562 C 187.457031 194.351562 186.703125 199.066406 187.351562 200.847656 C 187.996094 202.632812 189.289062 206.960938 189.289062 206.960938 C 189.046875 208.507812 189.121094 210.101562 189.503906 211.609375 C 190.148438 213.839844 189.503906 215.113281 189.503906 215.113281 Z M 198.433594 229.378906 "/>
<use xlink:href="#surface36" mask="url(#mask10)"/>
<use xlink:href="#surface39" mask="url(#mask11)"/>
<use xlink:href="#surface42" mask="url(#mask12)"/>
<path style=" stroke:none;fill-rule:nonzero;fill:rgb(100%,100%,100%);fill-opacity:1;" d="M 196.925781 87.96875 L 226.308594 87.96875 L 226.308594 133.3125 L 196.925781 133.3125 Z M 196.925781 87.96875 "/>
<use xlink:href="#surface45" mask="url(#mask13)"/>
<path style=" stroke:none;fill-rule:nonzero;fill:rgb(100%,100%,100%);fill-opacity:1;" d="M 208.578125 96.523438 L 237.535156 90.628906 L 244.03125 135.316406 L 215.074219 141.210938 Z M 208.578125 96.523438 "/>
<path style=" stroke:none;fill-rule:nonzero;fill:rgb(7.45098%,4.705882%,71.764706%);fill-opacity:1;" d="M 215.597656 126.988281 L 222.398438 125.601562 L 223.925781 136.101562 L 217.121094 137.484375 Z M 215.597656 126.988281 "/>
<path style=" stroke:none;fill-rule:nonzero;fill:rgb(7.45098%,4.705882%,71.764706%);fill-opacity:1;" d="M 225.011719 125.070312 L 231.8125 123.683594 L 233.339844 134.183594 L 226.535156 135.566406 Z M 225.011719 125.070312 "/>
<path style=" stroke:none;fill-rule:nonzero;fill:rgb(7.45098%,4.705882%,71.764706%);fill-opacity:1;" d="M 214.605469 113.152344 L 238.464844 108.304688 L 239.996094 118.847656 L 216.136719 123.695312 Z M 214.605469 113.152344 "/>
<path style=" stroke:none;fill-rule:nonzero;fill:rgb(7.45098%,4.705882%,71.764706%);fill-opacity:1;" d="M 212.617188 100.5625 L 236.476562 95.714844 L 236.820312 98.070312 L 212.960938 102.917969 Z M 212.617188 100.5625 "/>
<path style=" stroke:none;fill-rule:nonzero;fill:rgb(7.45098%,4.705882%,71.764706%);fill-opacity:1;" d="M 213.402344 104.890625 L 237.261719 100.042969 L 237.601562 102.398438 L 213.742188 107.246094 Z M 213.402344 104.890625 "/>
<path style=" stroke:none;fill-rule:nonzero;fill:rgb(68.235294%,43.137255%,47.45098%);fill-opacity:1;" d="M 213.449219 75.652344 C 213.449219 75.652344 199.941406 91.699219 206.722656 95.777344 C 213.503906 99.851562 217.917969 82.210938 217.917969 82.210938 L 218.988281 78.199219 Z M 213.449219 75.652344 "/>
<use xlink:href="#surface48" mask="url(#mask14)"/>
<path style=" stroke:none;fill-rule:nonzero;fill:rgb(29.803922%,28.627451%,50.588235%);fill-opacity:1;" d="M 212.589844 73.851562 L 210.921875 78.214844 C 210.921875 78.214844 219.152344 79.582031 220.875 82.53125 L 219.855469 74.832031 L 218.644531 71.542969 Z M 212.589844 73.851562 "/>
<path style=" stroke:none;fill-rule:nonzero;fill:rgb(27.45098%,29.019608%,37.254902%);fill-opacity:1;" d="M 262.429688 154.078125 L 262.25 154.222656 L 262.496094 154.351562 L 262.761719 154.328125 L 262.792969 154.109375 Z M 262.429688 154.078125 "/>
<use xlink:href="#surface51" mask="url(#mask15)"/>
<path style=" stroke:none;fill-rule:nonzero;fill:rgb(61.176471%,61.176471%,63.137255%);fill-opacity:1;" d="M 262.429688 154.078125 L 262.25 154.214844 L 262.105469 154.007812 L 262.191406 153.839844 L 262.273438 153.8125 Z M 262.429688 154.078125 "/>
<use xlink:href="#surface54" mask="url(#mask16)"/>
<path style=" stroke:none;fill-rule:nonzero;fill:rgb(61.176471%,61.176471%,63.137255%);fill-opacity:1;" d="M 294.210938 127.671875 L 280.992188 105.082031 C 280.753906 104.671875 280.390625 104.394531 279.980469 104.304688 C 279.570312 104.214844 279.144531 104.320312 278.800781 104.601562 L 249.335938 128.535156 C 248.617188 129.121094 248.433594 130.28125 248.925781 131.128906 L 262.109375 154.007812 Z M 294.210938 127.671875 "/>
<use xlink:href="#surface57" mask="url(#mask17)"/>
<path style=" stroke:none;fill-rule:nonzero;fill:rgb(61.176471%,61.176471%,63.137255%);fill-opacity:1;" d="M 294.53125 127.726562 L 281.3125 105.132812 C 280.820312 104.285156 279.839844 104.070312 279.121094 104.65625 L 249.660156 128.605469 C 248.941406 129.1875 248.757812 130.347656 249.246094 131.199219 L 262.429688 154.089844 Z M 294.53125 127.726562 "/>
<path style=" stroke:none;fill-rule:nonzero;fill:rgb(27.45098%,29.019608%,37.254902%);fill-opacity:1;" d="M 305.582031 132.191406 L 294.605469 128.019531 L 262.496094 154.355469 L 273.648438 158.675781 C 274.15625 158.871094 274.710938 158.769531 275.144531 158.40625 L 305.671875 132.898438 C 305.789062 132.820312 305.851562 132.667969 305.832031 132.507812 C 305.8125 132.351562 305.714844 132.226562 305.582031 132.191406 Z M 305.582031 132.191406 "/>
<use xlink:href="#surface60" mask="url(#mask18)"/>
<path style=" stroke:none;fill-rule:nonzero;fill:rgb(27.45098%,29.019608%,37.254902%);fill-opacity:1;" d="M 305.515625 131.929688 L 294.535156 127.753906 L 262.429688 154.089844 L 273.582031 158.398438 C 274.085938 158.597656 274.640625 158.5 275.074219 158.136719 L 305.605469 132.628906 C 305.714844 132.546875 305.777344 132.394531 305.757812 132.242188 C 305.738281 132.089844 305.640625 131.964844 305.515625 131.929688 Z M 305.515625 131.929688 "/>
<use xlink:href="#surface63" mask="url(#mask19)"/>
<path style=" stroke:none;fill-rule:nonzero;fill:rgb(27.45098%,29.019608%,37.254902%);fill-opacity:1;" d="M 289.5625 126.761719 L 288.75 125.386719 C 288.648438 125.222656 288.457031 125.179688 288.3125 125.292969 L 287.109375 126.253906 C 286.96875 126.371094 286.929688 126.597656 287.019531 126.769531 L 287.765625 128.128906 C 287.859375 128.296875 288.054688 128.347656 288.199219 128.242188 L 289.472656 127.292969 C 289.546875 127.238281 289.59375 127.152344 289.613281 127.050781 C 289.628906 126.953125 289.613281 126.847656 289.5625 126.761719 Z M 289.5625 126.761719 "/>
<path style=" stroke:none;fill-rule:nonzero;fill:rgb(27.45098%,29.019608%,37.254902%);fill-opacity:1;" d="M 287.386719 128.535156 L 286.574219 127.164062 C 286.472656 127 286.28125 126.960938 286.136719 127.070312 L 284.933594 128.027344 C 284.792969 128.144531 284.753906 128.371094 284.84375 128.542969 L 285.589844 129.898438 C 285.683594 130.070312 285.878906 130.121094 286.023438 130.015625 L 287.296875 129.070312 C 287.371094 129.015625 287.421875 128.925781 287.4375 128.824219 C 287.453125 128.726562 287.4375 128.621094 287.386719 128.535156 Z M 287.386719 128.535156 "/>
<path style=" stroke:none;fill-rule:nonzero;fill:rgb(27.45098%,29.019608%,37.254902%);fill-opacity:1;" d="M 285.128906 130.402344 L 284.3125 129.027344 C 284.210938 128.863281 284.019531 128.820312 283.875 128.933594 L 282.671875 129.894531 C 282.53125 130.011719 282.492188 130.238281 282.582031 130.414062 L 283.328125 131.769531 C 283.425781 131.9375 283.617188 131.984375 283.765625 131.878906 L 285.035156 130.9375 C 285.109375 130.878906 285.160156 130.792969 285.175781 130.691406 C 285.195312 130.589844 285.175781 130.484375 285.128906 130.402344 Z M 285.128906 130.402344 "/>
<path style=" stroke:none;fill-rule:nonzero;fill:rgb(27.45098%,29.019608%,37.254902%);fill-opacity:1;" d="M 282.820312 132.285156 L 282.007812 130.910156 C 281.90625 130.746094 281.714844 130.703125 281.574219 130.8125 L 280.367188 131.777344 C 280.296875 131.832031 280.246094 131.921875 280.230469 132.023438 C 280.214844 132.125 280.234375 132.226562 280.285156 132.3125 L 281.03125 133.667969 C 281.125 133.835938 281.316406 133.886719 281.464844 133.78125 L 282.734375 132.835938 C 282.8125 132.777344 282.863281 132.6875 282.878906 132.582031 C 282.894531 132.476562 282.875 132.371094 282.820312 132.285156 Z M 282.820312 132.285156 "/>
<path style=" stroke:none;fill-rule:nonzero;fill:rgb(27.45098%,29.019608%,37.254902%);fill-opacity:1;" d="M 280.523438 134.167969 L 279.710938 132.796875 C 279.609375 132.632812 279.417969 132.589844 279.273438 132.699219 L 278.070312 133.660156 C 277.929688 133.777344 277.890625 134.003906 277.980469 134.175781 L 278.726562 135.53125 C 278.820312 135.703125 279.011719 135.753906 279.160156 135.648438 L 280.433594 134.699219 C 280.503906 134.644531 280.554688 134.554688 280.570312 134.457031 C 280.589844 134.355469 280.570312 134.253906 280.523438 134.167969 Z M 280.523438 134.167969 "/>
<path style=" stroke:none;fill-rule:nonzero;fill:rgb(27.45098%,29.019608%,37.254902%);fill-opacity:1;" d="M 278.324219 136.222656 L 277.3125 134.519531 C 277.292969 134.480469 277.257812 134.453125 277.21875 134.445312 C 277.183594 134.4375 277.140625 134.449219 277.109375 134.472656 L 275.632812 135.652344 C 275.597656 135.679688 275.574219 135.71875 275.566406 135.765625 C 275.558594 135.808594 275.566406 135.855469 275.589844 135.894531 L 276.515625 137.578125 C 276.558594 137.660156 276.652344 137.683594 276.71875 137.632812 L 278.28125 136.488281 C 278.320312 136.460938 278.347656 136.417969 278.355469 136.367188 C 278.363281 136.316406 278.351562 136.265625 278.324219 136.222656 Z M 278.324219 136.222656 "/>
<path style=" stroke:none;fill-rule:nonzero;fill:rgb(27.45098%,29.019608%,37.254902%);fill-opacity:1;" d="M 276.023438 138.105469 L 275.015625 136.402344 C 274.992188 136.363281 274.957031 136.339844 274.917969 136.328125 C 274.878906 136.320312 274.839844 136.332031 274.808594 136.355469 L 273.332031 137.539062 C 273.300781 137.5625 273.277344 137.601562 273.269531 137.648438 C 273.261719 137.691406 273.269531 137.742188 273.289062 137.777344 L 274.21875 139.46875 C 274.238281 139.507812 274.273438 139.535156 274.308594 139.542969 C 274.347656 139.550781 274.386719 139.542969 274.421875 139.515625 L 275.984375 138.371094 C 276.019531 138.34375 276.046875 138.300781 276.054688 138.25 C 276.0625 138.199219 276.050781 138.148438 276.023438 138.105469 Z M 276.023438 138.105469 "/>
<path style=" stroke:none;fill-rule:nonzero;fill:rgb(27.45098%,29.019608%,37.254902%);fill-opacity:1;" d="M 273.988281 139.777344 L 272.976562 138.070312 C 272.929688 137.992188 272.839844 137.972656 272.773438 138.027344 L 271.296875 139.1875 C 271.226562 139.242188 271.210938 139.351562 271.253906 139.433594 L 272.179688 141.117188 C 272.226562 141.195312 272.3125 141.21875 272.382812 141.171875 L 273.945312 140.023438 C 273.980469 140 274.003906 139.957031 274.011719 139.910156 C 274.019531 139.863281 274.011719 139.816406 273.988281 139.777344 Z M 273.988281 139.777344 "/>
<path style=" stroke:none;fill-rule:nonzero;fill:rgb(27.45098%,29.019608%,37.254902%);fill-opacity:1;" d="M 271.707031 141.644531 L 270.699219 139.953125 C 270.652344 139.875 270.5625 139.859375 270.496094 139.910156 L 269.015625 141.085938 C 268.984375 141.113281 268.960938 141.152344 268.953125 141.199219 C 268.945312 141.246094 268.953125 141.292969 268.972656 141.332031 L 269.898438 143.015625 C 269.945312 143.097656 270.035156 143.121094 270.105469 143.070312 L 271.667969 141.925781 C 271.707031 141.898438 271.738281 141.851562 271.746094 141.796875 C 271.753906 141.742188 271.742188 141.6875 271.707031 141.644531 Z M 271.707031 141.644531 "/>
<path style=" stroke:none;fill-rule:nonzero;fill:rgb(27.45098%,29.019608%,37.254902%);fill-opacity:1;" d="M 269.5 143.453125 L 268.488281 141.75 C 268.46875 141.710938 268.433594 141.683594 268.394531 141.675781 C 268.359375 141.667969 268.316406 141.675781 268.285156 141.703125 L 266.808594 142.882812 C 266.773438 142.910156 266.75 142.949219 266.742188 142.992188 C 266.734375 143.039062 266.742188 143.085938 266.765625 143.125 L 267.691406 144.808594 C 267.710938 144.847656 267.746094 144.875 267.785156 144.886719 C 267.824219 144.898438 267.863281 144.886719 267.894531 144.863281 L 269.457031 143.714844 C 269.496094 143.691406 269.523438 143.648438 269.53125 143.597656 C 269.539062 143.546875 269.527344 143.492188 269.5 143.453125 Z M 269.5 143.453125 "/>
<path style=" stroke:none;fill-rule:nonzero;fill:rgb(27.45098%,29.019608%,37.254902%);fill-opacity:1;" d="M 267.292969 145.261719 L 266.28125 143.554688 C 266.234375 143.480469 266.144531 143.460938 266.078125 143.515625 L 264.597656 144.691406 C 264.53125 144.746094 264.511719 144.851562 264.558594 144.933594 L 265.484375 146.621094 C 265.527344 146.699219 265.617188 146.722656 265.6875 146.671875 L 267.25 145.527344 C 267.289062 145.5 267.3125 145.457031 267.320312 145.40625 C 267.332031 145.355469 267.320312 145.304688 267.292969 145.261719 Z M 267.292969 145.261719 "/>
<path style=" stroke:none;fill-rule:nonzero;fill:rgb(27.45098%,29.019608%,37.254902%);fill-opacity:1;" d="M 265.082031 147.070312 L 264.074219 145.367188 C 264.050781 145.328125 264.015625 145.300781 263.980469 145.292969 C 263.941406 145.285156 263.902344 145.292969 263.867188 145.320312 L 262.390625 146.5 C 262.355469 146.527344 262.335938 146.566406 262.328125 146.613281 C 262.320312 146.65625 262.328125 146.703125 262.347656 146.742188 L 263.273438 148.425781 C 263.296875 148.46875 263.328125 148.496094 263.367188 148.503906 C 263.40625 148.515625 263.445312 148.507812 263.476562 148.480469 L 265.042969 147.335938 C 265.078125 147.308594 265.105469 147.265625 265.113281 147.214844 C 265.121094 147.164062 265.109375 147.109375 265.082031 147.070312 Z M 265.082031 147.070312 "/>
<path style=" stroke:none;fill-rule:nonzero;fill:rgb(27.45098%,29.019608%,37.254902%);fill-opacity:1;" d="M 288.109375 124.289062 L 287.292969 122.910156 C 287.191406 122.75 287 122.707031 286.859375 122.816406 L 285.652344 123.777344 C 285.511719 123.894531 285.476562 124.121094 285.566406 124.296875 L 286.308594 125.652344 C 286.40625 125.820312 286.597656 125.871094 286.746094 125.765625 L 288.015625 124.820312 C 288.089844 124.761719 288.136719 124.675781 288.15625 124.574219 C 288.171875 124.476562 288.15625 124.371094 288.109375 124.289062 Z M 288.109375 124.289062 "/>
<path style=" stroke:none;fill-rule:nonzero;fill:rgb(27.45098%,29.019608%,37.254902%);fill-opacity:1;" d="M 284.925781 118.839844 L 284.113281 117.46875 C 284.011719 117.304688 283.820312 117.261719 283.675781 117.371094 L 282.472656 118.332031 C 282.332031 118.449219 282.292969 118.675781 282.386719 118.847656 L 283.132812 120.203125 C 283.226562 120.371094 283.417969 120.421875 283.566406 120.316406 L 284.835938 119.375 C 284.910156 119.316406 284.960938 119.230469 284.976562 119.128906 C 284.992188 119.027344 284.976562 118.921875 284.925781 118.839844 Z M 284.925781 118.839844 "/>
<path style=" stroke:none;fill-rule:nonzero;fill:rgb(27.45098%,29.019608%,37.254902%);fill-opacity:1;" d="M 285.941406 126.046875 L 285.128906 124.667969 C 285.027344 124.507812 284.835938 124.464844 284.691406 124.574219 L 283.488281 125.53125 C 283.347656 125.648438 283.308594 125.875 283.398438 126.046875 L 284.144531 127.40625 C 284.242188 127.574219 284.429688 127.625 284.578125 127.519531 L 285.851562 126.574219 C 285.996094 126.460938 286.039062 126.222656 285.941406 126.046875 Z M 285.941406 126.046875 "/>
<path style=" stroke:none;fill-rule:nonzero;fill:rgb(27.45098%,29.019608%,37.254902%);fill-opacity:1;" d="M 283.667969 127.910156 L 282.867188 126.539062 C 282.765625 126.375 282.574219 126.332031 282.429688 126.441406 L 281.226562 127.402344 C 281.085938 127.519531 281.046875 127.75 281.140625 127.921875 L 281.882812 129.277344 C 281.980469 129.445312 282.171875 129.496094 282.316406 129.386719 L 283.589844 128.445312 C 283.660156 128.386719 283.707031 128.296875 283.722656 128.195312 C 283.738281 128.09375 283.71875 127.992188 283.667969 127.910156 Z M 283.667969 127.910156 "/>
<path style=" stroke:none;fill-rule:nonzero;fill:rgb(27.45098%,29.019608%,37.254902%);fill-opacity:1;" d="M 281.367188 129.796875 L 280.554688 128.421875 C 280.453125 128.253906 280.261719 128.214844 280.117188 128.324219 L 278.914062 129.289062 C 278.773438 129.40625 278.734375 129.632812 278.824219 129.804688 L 279.570312 131.160156 C 279.667969 131.332031 279.859375 131.382812 280.007812 131.277344 L 281.277344 130.328125 C 281.351562 130.273438 281.398438 130.183594 281.417969 130.085938 C 281.433594 129.984375 281.417969 129.882812 281.367188 129.796875 Z M 281.367188 129.796875 "/>
<path style=" stroke:none;fill-rule:nonzero;fill:rgb(27.45098%,29.019608%,37.254902%);fill-opacity:1;" d="M 282.8125 120.699219 L 282 119.320312 C 281.898438 119.15625 281.707031 119.113281 281.5625 119.226562 L 280.359375 120.183594 C 280.21875 120.300781 280.179688 120.527344 280.269531 120.699219 L 281.015625 122.054688 C 281.113281 122.222656 281.300781 122.273438 281.449219 122.171875 L 282.722656 121.226562 C 282.871094 121.109375 282.910156 120.875 282.8125 120.699219 Z M 282.8125 120.699219 "/>
<path style=" stroke:none;fill-rule:nonzero;fill:rgb(27.45098%,29.019608%,37.254902%);fill-opacity:1;" d="M 280.539062 122.5625 L 279.726562 121.1875 C 279.625 121.023438 279.433594 120.984375 279.289062 121.09375 L 278.085938 122.054688 C 277.945312 122.171875 277.902344 122.398438 277.996094 122.570312 L 278.742188 123.929688 C 278.835938 124.097656 279.027344 124.148438 279.175781 124.042969 L 280.449219 123.09375 C 280.519531 123.039062 280.570312 122.953125 280.585938 122.851562 C 280.605469 122.753906 280.585938 122.648438 280.539062 122.5625 Z M 280.539062 122.5625 "/>
<path style=" stroke:none;fill-rule:nonzero;fill:rgb(27.45098%,29.019608%,37.254902%);fill-opacity:1;" d="M 278.242188 124.449219 L 277.425781 123.074219 C 277.324219 122.910156 277.132812 122.867188 276.988281 122.980469 L 275.785156 123.941406 C 275.644531 124.054688 275.605469 124.28125 275.695312 124.457031 L 276.441406 125.816406 C 276.539062 125.984375 276.730469 126.035156 276.878906 125.929688 L 278.148438 124.984375 C 278.21875 124.925781 278.269531 124.839844 278.289062 124.738281 C 278.304688 124.636719 278.289062 124.53125 278.242188 124.449219 Z M 278.242188 124.449219 "/>
<path style=" stroke:none;fill-rule:nonzero;fill:rgb(27.45098%,29.019608%,37.254902%);fill-opacity:1;" d="M 279.066406 131.679688 L 278.253906 130.308594 C 278.152344 130.144531 277.960938 130.105469 277.816406 130.214844 L 276.613281 131.164062 C 276.472656 131.28125 276.433594 131.507812 276.527344 131.679688 L 277.273438 133.035156 C 277.367188 133.203125 277.558594 133.253906 277.703125 133.152344 L 278.976562 132.203125 C 279.121094 132.085938 279.160156 131.855469 279.066406 131.679688 Z M 279.066406 131.679688 "/>
<path style=" stroke:none;fill-rule:nonzero;fill:rgb(27.45098%,29.019608%,37.254902%);fill-opacity:1;" d="M 276.769531 133.5625 L 275.953125 132.191406 C 275.851562 132.027344 275.664062 131.988281 275.519531 132.097656 L 274.3125 133.074219 C 274.171875 133.191406 274.132812 133.417969 274.222656 133.589844 L 274.96875 134.949219 C 275.066406 135.117188 275.257812 135.167969 275.40625 135.0625 L 276.675781 134.117188 C 276.753906 134.0625 276.808594 133.96875 276.824219 133.863281 C 276.84375 133.757812 276.820312 133.652344 276.769531 133.5625 Z M 276.769531 133.5625 "/>
<path style=" stroke:none;fill-rule:nonzero;fill:rgb(27.45098%,29.019608%,37.254902%);fill-opacity:1;" d="M 274.570312 135.621094 L 273.558594 133.914062 C 273.535156 133.878906 273.503906 133.851562 273.464844 133.84375 C 273.425781 133.832031 273.386719 133.84375 273.355469 133.871094 L 271.890625 135.050781 C 271.855469 135.074219 271.832031 135.113281 271.824219 135.160156 C 271.816406 135.207031 271.824219 135.253906 271.847656 135.292969 L 272.773438 136.976562 C 272.792969 137.015625 272.828125 137.042969 272.867188 137.054688 C 272.90625 137.0625 272.945312 137.054688 272.976562 137.03125 L 274.539062 135.882812 C 274.574219 135.855469 274.597656 135.808594 274.605469 135.757812 C 274.609375 135.710938 274.597656 135.660156 274.570312 135.621094 Z M 274.570312 135.621094 "/>
<path style=" stroke:none;fill-rule:nonzero;fill:rgb(27.45098%,29.019608%,37.254902%);fill-opacity:1;" d="M 272.535156 137.277344 L 271.523438 135.570312 C 271.476562 135.492188 271.386719 135.472656 271.316406 135.527344 L 269.839844 136.703125 C 269.773438 136.761719 269.753906 136.867188 269.796875 136.949219 L 270.726562 138.632812 C 270.769531 138.714844 270.863281 138.738281 270.929688 138.6875 L 272.488281 137.542969 C 272.527344 137.519531 272.558594 137.472656 272.566406 137.421875 C 272.574219 137.371094 272.5625 137.316406 272.535156 137.277344 Z M 272.535156 137.277344 "/>
<path style=" stroke:none;fill-rule:nonzero;fill:rgb(27.45098%,29.019608%,37.254902%);fill-opacity:1;" d="M 270.253906 139.15625 L 269.242188 137.449219 C 269.195312 137.375 269.105469 137.355469 269.039062 137.40625 L 267.558594 138.585938 C 267.492188 138.640625 267.472656 138.746094 267.515625 138.828125 L 268.445312 140.515625 C 268.488281 140.59375 268.578125 140.617188 268.648438 140.566406 L 270.210938 139.421875 C 270.25 139.398438 270.277344 139.355469 270.285156 139.300781 C 270.296875 139.25 270.28125 139.195312 270.253906 139.15625 Z M 270.253906 139.15625 "/>
<path style=" stroke:none;fill-rule:nonzero;fill:rgb(27.45098%,29.019608%,37.254902%);fill-opacity:1;" d="M 268.046875 140.964844 L 267.046875 139.261719 C 267.023438 139.222656 266.992188 139.195312 266.953125 139.1875 C 266.914062 139.179688 266.875 139.1875 266.84375 139.214844 L 265.363281 140.394531 C 265.296875 140.449219 265.277344 140.554688 265.320312 140.636719 L 266.25 142.320312 C 266.292969 142.402344 266.382812 142.425781 266.453125 142.375 L 268.015625 141.230469 C 268.050781 141.203125 268.078125 141.15625 268.082031 141.105469 C 268.089844 141.054688 268.078125 141.003906 268.046875 140.964844 Z M 268.046875 140.964844 "/>
<path style=" stroke:none;fill-rule:nonzero;fill:rgb(27.45098%,29.019608%,37.254902%);fill-opacity:1;" d="M 282.152344 125.328125 L 281.34375 123.949219 C 281.242188 123.785156 281.046875 123.742188 280.902344 123.855469 L 279.699219 124.820312 C 279.558594 124.9375 279.519531 125.164062 279.613281 125.335938 L 280.359375 126.691406 C 280.457031 126.859375 280.648438 126.90625 280.792969 126.800781 L 282.0625 125.859375 C 282.136719 125.800781 282.183594 125.714844 282.203125 125.613281 C 282.21875 125.515625 282.203125 125.410156 282.152344 125.328125 Z M 282.152344 125.328125 "/>
<path style=" stroke:none;fill-rule:nonzero;fill:rgb(27.45098%,29.019608%,37.254902%);fill-opacity:1;" d="M 279.855469 127.210938 L 279.042969 125.839844 C 278.941406 125.671875 278.75 125.628906 278.605469 125.738281 L 277.402344 126.703125 C 277.261719 126.820312 277.222656 127.046875 277.3125 127.21875 L 278.058594 128.574219 C 278.15625 128.742188 278.34375 128.792969 278.492188 128.6875 L 279.765625 127.742188 C 279.835938 127.683594 279.886719 127.597656 279.902344 127.5 C 279.917969 127.398438 279.902344 127.292969 279.855469 127.210938 Z M 279.855469 127.210938 "/>
<path style=" stroke:none;fill-rule:nonzero;fill:rgb(27.45098%,29.019608%,37.254902%);fill-opacity:1;" d="M 277.554688 129.09375 L 276.734375 127.726562 C 276.632812 127.558594 276.4375 127.519531 276.292969 127.628906 L 275.117188 128.585938 C 274.976562 128.703125 274.9375 128.929688 275.027344 129.101562 L 275.773438 130.457031 C 275.871094 130.628906 276.0625 130.679688 276.210938 130.574219 L 277.480469 129.628906 C 277.550781 129.570312 277.597656 129.480469 277.613281 129.378906 C 277.625 129.277344 277.605469 129.175781 277.554688 129.09375 Z M 277.554688 129.09375 "/>
<path style=" stroke:none;fill-rule:nonzero;fill:rgb(27.45098%,29.019608%,37.254902%);fill-opacity:1;" d="M 275.253906 130.976562 L 274.441406 129.605469 C 274.339844 129.441406 274.148438 129.402344 274.003906 129.511719 L 272.800781 130.46875 C 272.660156 130.585938 272.621094 130.8125 272.710938 130.984375 L 273.457031 132.339844 C 273.554688 132.507812 273.742188 132.558594 273.890625 132.457031 L 275.164062 131.511719 C 275.234375 131.457031 275.285156 131.367188 275.304688 131.265625 C 275.320312 131.167969 275.300781 131.0625 275.253906 130.976562 Z M 275.253906 130.976562 "/>
<path style=" stroke:none;fill-rule:nonzero;fill:rgb(27.45098%,29.019608%,37.254902%);fill-opacity:1;" d="M 273.058594 133.03125 L 272.046875 131.328125 C 272.023438 131.289062 271.992188 131.265625 271.953125 131.253906 C 271.914062 131.246094 271.875 131.257812 271.839844 131.285156 L 270.363281 132.464844 C 270.296875 132.515625 270.277344 132.625 270.320312 132.703125 L 271.246094 134.394531 C 271.269531 134.433594 271.300781 134.460938 271.339844 134.46875 C 271.378906 134.476562 271.421875 134.46875 271.453125 134.441406 L 273.011719 133.296875 C 273.050781 133.273438 273.078125 133.226562 273.085938 133.175781 C 273.097656 133.125 273.085938 133.074219 273.058594 133.03125 Z M 273.058594 133.03125 "/>
<path style=" stroke:none;fill-rule:nonzero;fill:rgb(27.45098%,29.019608%,37.254902%);fill-opacity:1;" d="M 271.019531 134.703125 L 270.011719 133 C 269.988281 132.960938 269.953125 132.933594 269.917969 132.925781 C 269.878906 132.917969 269.839844 132.925781 269.808594 132.953125 L 268.335938 134.128906 C 268.269531 134.183594 268.25 134.292969 268.296875 134.375 L 269.222656 136.058594 C 269.265625 136.136719 269.355469 136.160156 269.425781 136.113281 L 270.988281 134.964844 C 271.023438 134.9375 271.050781 134.894531 271.054688 134.84375 C 271.0625 134.792969 271.050781 134.742188 271.019531 134.703125 Z M 271.019531 134.703125 "/>
<path style=" stroke:none;fill-rule:nonzero;fill:rgb(27.45098%,29.019608%,37.254902%);fill-opacity:1;" d="M 268.742188 136.570312 L 267.730469 134.863281 C 267.683594 134.785156 267.589844 134.769531 267.523438 134.820312 L 266.046875 136 C 265.980469 136.054688 265.960938 136.160156 266.007812 136.242188 L 266.933594 137.925781 C 266.976562 138.007812 267.066406 138.03125 267.136719 137.980469 L 268.699219 136.835938 C 268.738281 136.808594 268.765625 136.765625 268.773438 136.714844 C 268.78125 136.664062 268.769531 136.613281 268.742188 136.570312 Z M 268.742188 136.570312 "/>
<path style=" stroke:none;fill-rule:nonzero;fill:rgb(27.45098%,29.019608%,37.254902%);fill-opacity:1;" d="M 266.53125 138.378906 L 265.523438 136.675781 C 265.5 136.636719 265.464844 136.609375 265.425781 136.601562 C 265.386719 136.59375 265.347656 136.601562 265.316406 136.628906 L 263.839844 137.808594 C 263.808594 137.835938 263.785156 137.875 263.777344 137.917969 C 263.769531 137.964844 263.777344 138.011719 263.796875 138.050781 L 264.726562 139.738281 C 264.746094 139.777344 264.777344 139.804688 264.816406 139.8125 C 264.855469 139.824219 264.894531 139.8125 264.929688 139.789062 L 266.492188 138.640625 C 266.527344 138.617188 266.554688 138.570312 266.5625 138.523438 C 266.570312 138.472656 266.558594 138.417969 266.53125 138.378906 Z M 266.53125 138.378906 "/>
<path style=" stroke:none;fill-rule:nonzero;fill:rgb(27.45098%,29.019608%,37.254902%);fill-opacity:1;" d="M 265.839844 142.777344 L 264.828125 141.070312 C 264.78125 140.992188 264.6875 140.972656 264.621094 141.027344 L 263.140625 142.203125 C 263.074219 142.257812 263.054688 142.367188 263.101562 142.449219 L 264.027344 144.132812 C 264.074219 144.210938 264.160156 144.234375 264.230469 144.1875 L 265.792969 143.039062 C 265.832031 143.015625 265.859375 142.972656 265.871094 142.921875 C 265.878906 142.871094 265.867188 142.816406 265.839844 142.777344 Z M 265.839844 142.777344 "/>
<path style=" stroke:none;fill-rule:nonzero;fill:rgb(27.45098%,29.019608%,37.254902%);fill-opacity:1;" d="M 263.628906 144.582031 L 262.621094 142.878906 C 262.597656 142.839844 262.5625 142.8125 262.523438 142.804688 C 262.484375 142.796875 262.445312 142.808594 262.414062 142.832031 L 260.933594 144.015625 C 260.867188 144.066406 260.847656 144.175781 260.890625 144.253906 L 261.820312 145.941406 C 261.839844 145.980469 261.875 146.007812 261.914062 146.019531 C 261.953125 146.027344 261.992188 146.019531 262.023438 145.992188 L 263.585938 144.847656 C 263.625 144.824219 263.652344 144.78125 263.660156 144.726562 C 263.671875 144.675781 263.660156 144.625 263.628906 144.582031 Z M 263.628906 144.582031 "/>
<path style=" stroke:none;fill-rule:nonzero;fill:rgb(27.45098%,29.019608%,37.254902%);fill-opacity:1;" d="M 267.09375 133.757812 L 266.140625 132.152344 C 266.078125 132.046875 265.957031 132.023438 265.867188 132.09375 L 264.464844 133.207031 C 264.375 133.277344 264.347656 133.421875 264.410156 133.53125 L 265.28125 135.121094 C 265.339844 135.226562 265.460938 135.257812 265.554688 135.1875 L 267.027344 134.089844 C 267.074219 134.058594 267.109375 134.007812 267.121094 133.941406 C 267.136719 133.878906 267.125 133.8125 267.09375 133.757812 Z M 267.09375 133.757812 "/>
<path style=" stroke:none;fill-rule:nonzero;fill:rgb(27.45098%,29.019608%,37.254902%);fill-opacity:1;" d="M 264.886719 135.566406 L 263.933594 133.960938 C 263.902344 133.910156 263.859375 133.875 263.808594 133.863281 C 263.753906 133.851562 263.703125 133.867188 263.660156 133.902344 L 262.265625 135.015625 C 262.175781 135.085938 262.152344 135.230469 262.210938 135.335938 L 263.082031 136.925781 C 263.140625 137.035156 263.261719 137.066406 263.355469 137 L 264.832031 135.902344 C 264.875 135.867188 264.90625 135.8125 264.917969 135.75 C 264.929688 135.683594 264.917969 135.621094 264.886719 135.566406 Z M 264.886719 135.566406 "/>
<path style=" stroke:none;fill-rule:nonzero;fill:rgb(27.45098%,29.019608%,37.254902%);fill-opacity:1;" d="M 262.675781 137.378906 L 261.707031 135.769531 C 261.648438 135.664062 261.527344 135.640625 261.4375 135.710938 L 260.039062 136.824219 C 259.949219 136.894531 259.925781 137.039062 259.984375 137.148438 L 260.855469 138.738281 C 260.917969 138.84375 261.039062 138.875 261.132812 138.804688 L 262.605469 137.710938 C 262.65625 137.679688 262.691406 137.625 262.703125 137.5625 C 262.71875 137.5 262.707031 137.433594 262.675781 137.378906 Z M 262.675781 137.378906 "/>
<path style=" stroke:none;fill-rule:nonzero;fill:rgb(27.45098%,29.019608%,37.254902%);fill-opacity:1;" d="M 260.5 139.238281 L 259.492188 137.53125 C 259.441406 137.453125 259.351562 137.433594 259.285156 137.488281 L 257.804688 138.664062 C 257.738281 138.722656 257.722656 138.828125 257.765625 138.910156 L 258.691406 140.59375 C 258.738281 140.675781 258.828125 140.699219 258.898438 140.648438 L 260.460938 139.5 C 260.496094 139.476562 260.523438 139.433594 260.53125 139.382812 C 260.539062 139.332031 260.527344 139.277344 260.5 139.238281 Z M 260.5 139.238281 "/>
<path style=" stroke:none;fill-rule:nonzero;fill:rgb(27.45098%,29.019608%,37.254902%);fill-opacity:1;" d="M 286.636719 121.613281 L 285.773438 120.136719 C 285.671875 119.972656 285.476562 119.933594 285.332031 120.046875 L 281.898438 122.878906 C 281.761719 122.996094 281.722656 123.21875 281.816406 123.390625 L 282.640625 124.894531 C 282.6875 124.980469 282.761719 125.039062 282.847656 125.054688 C 282.933594 125.074219 283.019531 125.054688 283.089844 124.996094 L 286.554688 122.128906 C 286.691406 122.007812 286.726562 121.78125 286.636719 121.613281 Z M 286.636719 121.613281 "/>
<path style=" stroke:none;fill-rule:nonzero;fill:rgb(27.45098%,29.019608%,37.254902%);fill-opacity:1;" d="M 264.316406 140.132812 L 263.246094 138.339844 C 263.222656 138.300781 263.1875 138.273438 263.148438 138.265625 C 263.109375 138.257812 263.070312 138.269531 263.039062 138.296875 L 259.351562 141.355469 C 259.285156 141.410156 259.269531 141.515625 259.3125 141.59375 L 260.324219 143.4375 C 260.34375 143.476562 260.378906 143.503906 260.417969 143.515625 C 260.460938 143.523438 260.5 143.515625 260.535156 143.488281 L 264.28125 140.378906 C 264.347656 140.324219 264.367188 140.210938 264.316406 140.132812 Z M 264.316406 140.132812 "/>
<path style=" stroke:none;fill-rule:nonzero;fill:rgb(27.45098%,29.019608%,37.254902%);fill-opacity:1;" d="M 276.046875 126.425781 L 275.078125 124.726562 C 275.03125 124.648438 274.941406 124.625 274.871094 124.675781 L 266.6875 131.210938 C 266.65625 131.234375 266.632812 131.273438 266.625 131.320312 C 266.617188 131.367188 266.625 131.414062 266.644531 131.453125 L 267.652344 133.285156 C 267.675781 133.324219 267.710938 133.355469 267.75 133.363281 C 267.789062 133.371094 267.828125 133.363281 267.863281 133.335938 L 276.023438 126.671875 C 276.085938 126.609375 276.097656 126.503906 276.046875 126.425781 Z M 276.046875 126.425781 "/>
<use xlink:href="#surface66" mask="url(#mask20)"/>
<path style=" stroke:none;fill-rule:nonzero;fill:rgb(57.647059%,58.039216%,59.607843%);fill-opacity:1;" d="M 276.285156 120.632812 L 271.933594 113.148438 C 271.683594 112.71875 271.183594 112.605469 270.816406 112.898438 L 258.84375 122.429688 C 258.664062 122.570312 258.542969 122.792969 258.5 123.042969 C 258.457031 123.292969 258.503906 123.554688 258.625 123.765625 L 263.050781 131.457031 C 263.167969 131.667969 263.355469 131.8125 263.566406 131.859375 C 263.78125 131.90625 264 131.851562 264.175781 131.707031 L 276.085938 121.960938 C 276.261719 121.816406 276.382812 121.59375 276.417969 121.347656 C 276.457031 121.097656 276.410156 120.84375 276.285156 120.632812 Z M 276.285156 120.632812 "/>
<path style=" stroke:none;fill-rule:nonzero;fill:rgb(7.45098%,4.705882%,71.764706%);fill-opacity:1;" d="M 303.277344 132.730469 L 294.042969 129.085938 L 264.425781 153.433594 L 273.589844 156.96875 C 274.09375 157.160156 274.640625 157.0625 275.074219 156.707031 L 303.359375 133.429688 C 303.472656 133.351562 303.535156 133.199219 303.515625 133.046875 C 303.496094 132.894531 303.402344 132.769531 303.277344 132.730469 Z M 303.277344 132.730469 "/>
</g>
</svg>
