<?xml version="1.0" encoding="UTF-8"?>
<svg xmlns="http://www.w3.org/2000/svg" xmlns:xlink="http://www.w3.org/1999/xlink" width="350pt" height="290pt" viewBox="0 0 350 290" version="1.1">
<defs>
<filter id="alpha" filterUnits="objectBoundingBox" x="0%" y="0%" width="100%" height="100%">
  <feColorMatrix type="matrix" in="SourceGraphic" values="0 0 0 0 1 0 0 0 0 1 0 0 0 0 1 0 0 0 1 0"/>
</filter>
<mask id="mask0">
  <g filter="url(#alpha)">
<rect x="0" y="0" width="350" height="290" style="fill:rgb(0%,0%,0%);fill-opacity:0.501961;stroke:none;"/>
  </g>
</mask>
<mask id="mask1">
  <g filter="url(#alpha)">
<rect x="0" y="0" width="350" height="290" style="fill:rgb(0%,0%,0%);fill-opacity:0.501961;stroke:none;"/>
  </g>
</mask>
<linearGradient id="linear0" gradientUnits="userSpaceOnUse" x1="728.85" y1="502.58" x2="728.85" y2="461.76" gradientTransform="matrix(-0.344977,-0.205751,-0.219924,0.322744,455.086989,76.54678)">
<stop offset="0" style="stop-color:rgb(50.196078%,50.196078%,50.196078%);stop-opacity:0.25098;"/>
<stop offset="0.54" style="stop-color:rgb(50.196078%,50.196078%,50.196078%);stop-opacity:0.121569;"/>
<stop offset="1" style="stop-color:rgb(50.196078%,50.196078%,50.196078%);stop-opacity:0.101961;"/>
</linearGradient>
<clipPath id="clip2">
  <rect width="350" height="290"/>
</clipPath>
<g id="surface7" clip-path="url(#clip2)">
<path style=" stroke:none;fill-rule:nonzero;fill:url(#linear0);" d="M 92.765625 89.410156 L 92.898438 77.332031 L 103.714844 77.433594 L 103.585938 89.511719 Z M 92.765625 89.410156 "/>
</g>
<clipPath id="clip1">
  <rect width="350" height="290"/>
</clipPath>
<g id="surface9" clip-path="url(#clip1)">
<use xlink:href="#surface7" mask="url(#mask1)"/>
<path style=" stroke:none;fill-rule:nonzero;fill:rgb(90.196078%,90.196078%,90.196078%);fill-opacity:1;" d="M 103.230469 89.136719 L 92.777344 89.046875 L 92.890625 77.464844 L 103.34375 77.550781 Z M 103.230469 89.136719 "/>
<path style=" stroke:none;fill-rule:nonzero;fill:rgb(100%,100%,100%);fill-opacity:1;" d="M 98.054688 81.191406 C 99.121094 81.199219 99.976562 82.015625 99.964844 83.011719 C 99.957031 84.007812 99.085938 84.808594 98.019531 84.796875 C 96.957031 84.789062 96.101562 83.976562 96.109375 82.980469 C 96.121094 81.984375 96.992188 81.183594 98.054688 81.191406 Z M 98.054688 81.191406 "/>
<path style=" stroke:none;fill-rule:nonzero;fill:rgb(100%,100%,100%);fill-opacity:1;" d="M 98.054688 81.953125 C 99.019531 81.960938 99.796875 82.703125 99.789062 83.609375 C 99.78125 84.511719 98.988281 85.242188 98.023438 85.230469 C 97.054688 85.222656 96.277344 84.484375 96.285156 83.578125 C 96.292969 82.671875 97.085938 81.945312 98.054688 81.953125 Z M 98.054688 81.953125 "/>
<path style=" stroke:none;fill-rule:nonzero;fill:rgb(100%,100%,100%);fill-opacity:1;" d="M 98.417969 85.871094 L 97.601562 85.863281 L 97.613281 84.554688 L 98.433594 84.5625 Z M 98.417969 85.871094 "/>
<path style=" stroke:none;fill-rule:nonzero;fill:rgb(100%,100%,100%);fill-opacity:1;" d="M 99.90625 89.105469 L 95.875 89.074219 L 95.890625 87.351562 C 95.902344 86.308594 96.8125 85.472656 97.925781 85.484375 C 99.035156 85.492188 99.929688 86.34375 99.917969 87.382812 L 99.902344 89.105469 Z M 99.90625 89.105469 "/>
<path style=" stroke:none;fill-rule:nonzero;fill:rgb(100%,100%,100%);fill-opacity:1;" d="M 98.0625 80.53125 C 98.449219 80.53125 98.761719 80.828125 98.757812 81.191406 C 98.753906 81.554688 98.4375 81.847656 98.046875 81.84375 C 97.660156 81.839844 97.347656 81.542969 97.351562 81.179688 C 97.355469 80.816406 97.671875 80.527344 98.0625 80.53125 Z M 98.0625 80.53125 "/>
<path style=" stroke:none;fill-rule:nonzero;fill:rgb(100%,100%,100%);fill-opacity:1;" d="M 97.832031 80.113281 C 97.457031 80.078125 97.078125 80.136719 96.734375 80.28125 C 96.421875 80.371094 96.132812 80.515625 95.882812 80.710938 C 95.480469 81.152344 95.277344 81.726562 95.324219 82.308594 C 95.371094 82.882812 95.285156 83.460938 95.066406 84 C 94.75 84.578125 94.101562 84.929688 93.410156 84.90625 C 93.828125 85.132812 94.335938 85.148438 94.769531 84.949219 C 95.152344 84.789062 95.472656 84.519531 95.6875 84.183594 C 95.820312 83.949219 95.929688 83.703125 96.015625 83.449219 C 96.3125 82.703125 96.707031 81.992188 97.191406 81.335938 C 97.265625 81.230469 97.351562 81.132812 97.453125 81.050781 C 97.597656 80.945312 97.773438 80.882812 97.953125 80.863281 C 98.105469 80.863281 98.363281 80.910156 98.453125 80.773438 C 98.648438 80.46875 98.03125 80.15625 97.832031 80.113281 Z M 97.832031 80.113281 "/>
</g>
<mask id="mask2">
  <g filter="url(#alpha)">
<rect x="0" y="0" width="350" height="290" style="fill:rgb(0%,0%,0%);fill-opacity:0.501961;stroke:none;"/>
  </g>
</mask>
<mask id="mask3">
  <g filter="url(#alpha)">
<rect x="0" y="0" width="350" height="290" style="fill:rgb(0%,0%,0%);fill-opacity:0.501961;stroke:none;"/>
  </g>
</mask>
<linearGradient id="linear1" gradientUnits="userSpaceOnUse" x1="715.36" y1="501.1" x2="715.36" y2="446.22" gradientTransform="matrix(0.345396,-0.203884,0.217929,0.323137,-110.553267,76.110032)">
<stop offset="0" style="stop-color:rgb(50.196078%,50.196078%,50.196078%);stop-opacity:0.25098;"/>
<stop offset="0.54" style="stop-color:rgb(50.196078%,50.196078%,50.196078%);stop-opacity:0.121569;"/>
<stop offset="1" style="stop-color:rgb(50.196078%,50.196078%,50.196078%);stop-opacity:0.101961;"/>
</linearGradient>
<clipPath id="clip4">
  <rect width="350" height="290"/>
</clipPath>
<g id="surface13" clip-path="url(#clip4)">
<path style=" stroke:none;fill-rule:nonzero;fill:url(#linear1);" d="M 232.402344 75.238281 L 246.949219 75.113281 L 247.109375 91.351562 L 232.5625 91.476562 Z M 232.402344 75.238281 "/>
</g>
<clipPath id="clip3">
  <rect width="350" height="290"/>
</clipPath>
<g id="surface15" clip-path="url(#clip3)">
<use xlink:href="#surface13" mask="url(#mask3)"/>
<path style=" stroke:none;fill-rule:nonzero;fill:rgb(90.196078%,90.196078%,90.196078%);fill-opacity:1;" d="M 232.671875 75.558594 L 246.734375 75.4375 L 246.882812 91.015625 L 232.824219 91.132812 Z M 232.671875 75.558594 "/>
<path style=" stroke:none;fill-rule:nonzero;fill:rgb(100%,100%,100%);fill-opacity:1;" d="M 242.40625 82.820312 C 242.417969 84.160156 241.269531 85.257812 239.835938 85.269531 C 238.402344 85.28125 237.230469 84.207031 237.21875 82.867188 C 237.207031 81.527344 238.355469 80.429688 239.789062 80.417969 C 241.222656 80.40625 242.394531 81.480469 242.40625 82.820312 Z M 242.40625 82.820312 "/>
<path style=" stroke:none;fill-rule:nonzero;fill:rgb(100%,100%,100%);fill-opacity:1;" d="M 242.175781 83.632812 C 242.1875 84.851562 241.144531 85.847656 239.839844 85.859375 C 238.539062 85.871094 237.476562 84.890625 237.464844 83.675781 C 237.453125 82.457031 238.496094 81.460938 239.800781 81.449219 C 241.101562 81.4375 242.164062 82.417969 242.175781 83.632812 Z M 242.175781 83.632812 "/>
<path style=" stroke:none;fill-rule:nonzero;fill:rgb(100%,100%,100%);fill-opacity:1;" d="M 239.28125 84.980469 L 240.378906 84.972656 L 240.398438 86.738281 L 239.300781 86.746094 Z M 239.28125 84.980469 "/>
<path style=" stroke:none;fill-rule:nonzero;fill:rgb(100%,100%,100%);fill-opacity:1;" d="M 239.941406 86.222656 C 241.441406 86.210938 242.664062 87.335938 242.679688 88.738281 L 242.703125 91.046875 L 237.300781 91.089844 L 237.277344 88.800781 C 237.261719 87.398438 238.464844 86.253906 239.964844 86.238281 Z M 239.941406 86.222656 "/>
<path style=" stroke:none;fill-rule:nonzero;fill:rgb(100%,100%,100%);fill-opacity:1;" d="M 240.726562 80.414062 C 240.734375 80.902344 240.3125 81.300781 239.792969 81.304688 C 239.273438 81.308594 238.847656 80.917969 238.839844 80.429688 C 238.835938 79.941406 239.253906 79.542969 239.777344 79.539062 C 240.296875 79.535156 240.722656 79.925781 240.726562 80.414062 Z M 240.726562 80.414062 "/>
<path style=" stroke:none;fill-rule:nonzero;fill:rgb(100%,100%,100%);fill-opacity:1;" d="M 240.082031 79.011719 C 240.585938 78.960938 241.097656 79.039062 241.558594 79.234375 C 241.972656 79.355469 242.363281 79.550781 242.695312 79.8125 C 243.300781 80.339844 243.425781 81.183594 243.449219 81.957031 C 243.46875 82.726562 243.421875 83.542969 243.792969 84.25 C 244.21875 85.023438 245.085938 85.496094 246.015625 85.464844 C 245.457031 85.769531 244.769531 85.789062 244.191406 85.515625 C 243.675781 85.296875 243.25 84.933594 242.964844 84.472656 C 242.789062 84.15625 242.640625 83.828125 242.523438 83.488281 C 242.128906 82.484375 241.597656 81.527344 240.945312 80.644531 C 240.847656 80.503906 240.730469 80.375 240.59375 80.265625 C 240.398438 80.121094 240.164062 80.035156 239.917969 80.011719 C 239.71875 79.984375 239.375 80.074219 239.25 79.890625 C 238.980469 79.484375 239.789062 79.0625 240.082031 79.011719 Z M 240.082031 79.011719 "/>
</g>
<mask id="mask4">
  <g filter="url(#alpha)">
<rect x="0" y="0" width="350" height="290" style="fill:rgb(0%,0%,0%);fill-opacity:0.501961;stroke:none;"/>
  </g>
</mask>
<mask id="mask5">
  <g filter="url(#alpha)">
<rect x="0" y="0" width="350" height="290" style="fill:rgb(0%,0%,0%);fill-opacity:0.501961;stroke:none;"/>
  </g>
</mask>
<linearGradient id="linear2" gradientUnits="userSpaceOnUse" x1="769.97" y1="356.2" x2="769.97" y2="269.16" gradientTransform="matrix(0.345162,-0.205442,0.219594,0.322918,-110.556029,76.107552)">
<stop offset="0" style="stop-color:rgb(50.196078%,50.196078%,50.196078%);stop-opacity:0.25098;"/>
<stop offset="0.54" style="stop-color:rgb(50.196078%,50.196078%,50.196078%);stop-opacity:0.121569;"/>
<stop offset="1" style="stop-color:rgb(50.196078%,50.196078%,50.196078%);stop-opacity:0.101961;"/>
</linearGradient>
<clipPath id="clip6">
  <rect width="350" height="290"/>
</clipPath>
<g id="surface19" clip-path="url(#clip6)">
<path style=" stroke:none;fill-rule:nonzero;fill:url(#linear2);" d="M 211.867188 7.363281 L 234.9375 7.167969 L 235.1875 32.917969 L 212.117188 33.113281 Z M 211.867188 7.363281 "/>
</g>
<clipPath id="clip5">
  <rect width="350" height="290"/>
</clipPath>
<g id="surface21" clip-path="url(#clip5)">
<use xlink:href="#surface19" mask="url(#mask5)"/>
<path style=" stroke:none;fill-rule:nonzero;fill:rgb(90.196078%,90.196078%,90.196078%);fill-opacity:1;" d="M 212.292969 7.871094 L 234.59375 7.679688 L 234.832031 32.386719 L 212.535156 32.574219 Z M 212.292969 7.871094 "/>
<path style=" stroke:none;fill-rule:nonzero;fill:rgb(100%,100%,100%);fill-opacity:1;" d="M 227.730469 19.394531 C 227.75 21.519531 225.925781 23.257812 223.65625 23.277344 C 221.382812 23.296875 219.527344 21.589844 219.503906 19.464844 C 219.484375 17.339844 221.308594 15.601562 223.578125 15.582031 C 225.851562 15.5625 227.710938 17.269531 227.730469 19.394531 Z M 227.730469 19.394531 "/>
<path style=" stroke:none;fill-rule:nonzero;fill:rgb(100%,100%,100%);fill-opacity:1;" d="M 227.367188 20.675781 C 227.386719 22.609375 225.726562 24.1875 223.664062 24.203125 C 221.601562 24.222656 219.910156 22.671875 219.894531 20.742188 C 219.875 18.808594 221.53125 17.230469 223.597656 17.210938 C 225.660156 17.195312 227.347656 18.746094 227.367188 20.675781 Z M 227.367188 20.675781 "/>
<path style=" stroke:none;fill-rule:nonzero;fill:rgb(100%,100%,100%);fill-opacity:1;" d="M 222.78125 22.8125 L 224.523438 22.796875 L 224.550781 25.59375 L 222.808594 25.609375 Z M 222.78125 22.8125 "/>
<path style=" stroke:none;fill-rule:nonzero;fill:rgb(100%,100%,100%);fill-opacity:1;" d="M 223.921875 24.539062 C 226.285156 24.515625 228.226562 26.285156 228.257812 28.5 L 228.300781 32.171875 L 219.722656 32.25 L 219.683594 28.578125 C 219.671875 26.371094 221.5625 24.570312 223.921875 24.539062 Z M 223.921875 24.539062 "/>
<path style=" stroke:none;fill-rule:nonzero;fill:rgb(100%,100%,100%);fill-opacity:1;" d="M 225.074219 15.570312 C 225.082031 16.339844 224.417969 16.972656 223.59375 16.980469 C 222.769531 16.988281 222.09375 16.367188 222.085938 15.59375 C 222.078125 14.820312 222.742188 14.191406 223.566406 14.183594 C 224.390625 14.175781 225.066406 14.796875 225.074219 15.570312 Z M 225.074219 15.570312 "/>
<path style=" stroke:none;fill-rule:nonzero;fill:rgb(100%,100%,100%);fill-opacity:1;" d="M 224.066406 13.335938 C 224.867188 13.253906 225.675781 13.378906 226.40625 13.695312 C 227.066406 13.882812 227.683594 14.195312 228.214844 14.609375 C 229.171875 15.453125 229.375 16.785156 229.40625 18.011719 C 229.441406 19.238281 229.367188 20.527344 229.949219 21.621094 C 230.636719 22.84375 232.011719 23.585938 233.484375 23.53125 C 232.59375 24.015625 231.507812 24.046875 230.585938 23.617188 C 229.765625 23.269531 229.082031 22.691406 228.628906 21.960938 C 228.347656 21.460938 228.113281 20.941406 227.929688 20.402344 C 227.296875 18.808594 226.457031 17.292969 225.421875 15.894531 C 225.265625 15.667969 225.082031 15.460938 224.867188 15.285156 C 224.554688 15.066406 224.183594 14.933594 223.796875 14.902344 C 223.476562 14.859375 222.929688 15 222.730469 14.707031 C 222.3125 14.085938 223.59375 13.417969 224.066406 13.335938 Z M 224.066406 13.335938 "/>
</g>
<mask id="mask6">
  <g filter="url(#alpha)">
<rect x="0" y="0" width="350" height="290" style="fill:rgb(0%,0%,0%);fill-opacity:0.501961;stroke:none;"/>
  </g>
</mask>
<mask id="mask7">
  <g filter="url(#alpha)">
<rect x="0" y="0" width="350" height="290" style="fill:rgb(0%,0%,0%);fill-opacity:0.501961;stroke:none;"/>
  </g>
</mask>
<linearGradient id="linear3" gradientUnits="userSpaceOnUse" x1="411.46" y1="100.6" x2="411.46" y2="15.23" gradientTransform="matrix(0.375179,0.150947,-0.161345,0.351001,-19.185018,-63.22824)">
<stop offset="0" style="stop-color:rgb(50.196078%,50.196078%,50.196078%);stop-opacity:0.25098;"/>
<stop offset="0.54" style="stop-color:rgb(50.196078%,50.196078%,50.196078%);stop-opacity:0.121569;"/>
<stop offset="1" style="stop-color:rgb(50.196078%,50.196078%,50.196078%);stop-opacity:0.101961;"/>
</linearGradient>
<clipPath id="clip8">
  <rect width="350" height="290"/>
</clipPath>
<g id="surface25" clip-path="url(#clip8)">
<path style=" stroke:none;fill-rule:nonzero;fill:url(#linear3);" d="M 113.84375 6.382812 L 137.59375 6.183594 L 137.84375 32.027344 L 114.09375 32.230469 Z M 113.84375 6.382812 "/>
</g>
<clipPath id="clip7">
  <rect width="350" height="290"/>
</clipPath>
<g id="surface27" clip-path="url(#clip7)">
<use xlink:href="#surface25" mask="url(#mask7)"/>
<path style=" stroke:none;fill-rule:nonzero;fill:rgb(90.196078%,90.196078%,90.196078%);fill-opacity:1;" d="M 114.324219 6.886719 L 137.195312 6.695312 L 137.441406 32.03125 L 114.570312 32.226562 Z M 114.324219 6.886719 "/>
<path style=" stroke:none;fill-rule:nonzero;fill:rgb(100%,100%,100%);fill-opacity:1;" d="M 129.898438 18.710938 C 129.917969 20.890625 128.050781 22.671875 125.722656 22.691406 C 123.394531 22.710938 121.492188 20.960938 121.46875 18.78125 C 121.449219 16.605469 123.316406 14.824219 125.644531 14.804688 C 127.972656 14.785156 129.878906 16.535156 129.898438 18.710938 Z M 129.898438 18.710938 "/>
<path style=" stroke:none;fill-rule:nonzero;fill:rgb(100%,100%,100%);fill-opacity:1;" d="M 129.527344 20.027344 C 129.546875 22.007812 127.847656 23.628906 125.730469 23.644531 C 123.617188 23.664062 121.886719 22.074219 121.867188 20.09375 C 121.847656 18.113281 123.546875 16.496094 125.660156 16.476562 C 127.777344 16.460938 129.507812 18.050781 129.527344 20.027344 Z M 129.527344 20.027344 "/>
<path style=" stroke:none;fill-rule:nonzero;fill:rgb(100%,100%,100%);fill-opacity:1;" d="M 124.824219 22.21875 L 126.613281 22.203125 L 126.640625 25.074219 L 124.851562 25.089844 Z M 124.824219 22.21875 "/>
<path style=" stroke:none;fill-rule:nonzero;fill:rgb(100%,100%,100%);fill-opacity:1;" d="M 125.929688 24.238281 C 128.363281 24.21875 130.351562 26.046875 130.375 28.324219 L 130.410156 32.085938 L 121.597656 32.164062 L 121.5625 28.402344 C 121.539062 26.125 123.492188 24.257812 125.929688 24.238281 Z M 125.929688 24.238281 "/>
<path style=" stroke:none;fill-rule:nonzero;fill:rgb(100%,100%,100%);fill-opacity:1;" d="M 122.71875 15.894531 C 122.71875 15.894531 125.261719 14.4375 125.757812 12.878906 C 126.523438 14.289062 127.527344 15.574219 128.734375 16.679688 Z M 122.71875 15.894531 "/>
</g>
<linearGradient id="linear4" gradientUnits="userSpaceOnUse" x1="118.53" y1="758.83" x2="118.53" y2="526.53" gradientTransform="matrix(0.408401,0,0,0.382082,0,0)">
<stop offset="0" style="stop-color:rgb(50.196078%,50.196078%,50.196078%);stop-opacity:0.25098;"/>
<stop offset="0.54" style="stop-color:rgb(50.196078%,50.196078%,50.196078%);stop-opacity:0.121569;"/>
<stop offset="1" style="stop-color:rgb(50.196078%,50.196078%,50.196078%);stop-opacity:0.101961;"/>
</linearGradient>
<mask id="mask8">
  <g filter="url(#alpha)">
<rect x="0" y="0" width="350" height="290" style="fill:rgb(0%,0%,0%);fill-opacity:0.501961;stroke:none;"/>
  </g>
</mask>
<linearGradient id="linear5" gradientUnits="userSpaceOnUse" x1="424.76" y1="252.76" x2="424.76" y2="157.57" gradientTransform="matrix(0.408401,0,0,0.382082,0,0)">
<stop offset="0" style="stop-color:rgb(50.196078%,50.196078%,50.196078%);stop-opacity:0.25098;"/>
<stop offset="0.54" style="stop-color:rgb(50.196078%,50.196078%,50.196078%);stop-opacity:0.121569;"/>
<stop offset="1" style="stop-color:rgb(50.196078%,50.196078%,50.196078%);stop-opacity:0.101961;"/>
</linearGradient>
<clipPath id="clip9">
  <rect width="350" height="290"/>
</clipPath>
<g id="surface30" clip-path="url(#clip9)">
<path style=" stroke:none;fill-rule:nonzero;fill:url(#linear5);" d="M 156.386719 60.203125 L 190.554688 60.203125 L 190.554688 96.570312 L 156.386719 96.570312 Z M 156.386719 60.203125 "/>
</g>
<mask id="mask9">
  <g filter="url(#alpha)">
<rect x="0" y="0" width="350" height="290" style="fill:rgb(0%,0%,0%);fill-opacity:0.501961;stroke:none;"/>
  </g>
</mask>
<linearGradient id="linear6" gradientUnits="userSpaceOnUse" x1="266.79" y1="132.04" x2="266.79" y2="50.65" gradientTransform="matrix(0.408401,0,0,0.382082,0,0)">
<stop offset="0" style="stop-color:rgb(50.196078%,50.196078%,50.196078%);stop-opacity:0.25098;"/>
<stop offset="0.54" style="stop-color:rgb(50.196078%,50.196078%,50.196078%);stop-opacity:0.121569;"/>
<stop offset="1" style="stop-color:rgb(50.196078%,50.196078%,50.196078%);stop-opacity:0.101961;"/>
</linearGradient>
<clipPath id="clip10">
  <rect width="350" height="290"/>
</clipPath>
<g id="surface33" clip-path="url(#clip10)">
<path style=" stroke:none;fill-rule:nonzero;fill:url(#linear6);" d="M 94.34375 19.351562 L 123.5625 19.351562 L 123.5625 50.449219 L 94.34375 50.449219 Z M 94.34375 19.351562 "/>
</g>
<mask id="mask10">
  <g filter="url(#alpha)">
<rect x="0" y="0" width="350" height="290" style="fill:rgb(0%,0%,0%);fill-opacity:0.501961;stroke:none;"/>
  </g>
</mask>
<linearGradient id="linear7" gradientUnits="userSpaceOnUse" x1="879.08" y1="629.37" x2="879.08" y2="507.77" gradientTransform="matrix(0.345212,-0.204193,0.218259,0.322965,-110.454772,76.145518)">
<stop offset="0" style="stop-color:rgb(50.196078%,50.196078%,50.196078%);stop-opacity:0.25098;"/>
<stop offset="0.54" style="stop-color:rgb(50.196078%,50.196078%,50.196078%);stop-opacity:0.121569;"/>
<stop offset="1" style="stop-color:rgb(50.196078%,50.196078%,50.196078%);stop-opacity:0.101961;"/>
</linearGradient>
<clipPath id="clip11">
  <rect width="350" height="290"/>
</clipPath>
<g id="surface36" clip-path="url(#clip11)">
<path style=" stroke:none;fill-rule:nonzero;fill:url(#linear7);" d="M 300.796875 62.40625 L 333.027344 62.101562 L 333.414062 98.085938 L 301.183594 98.386719 Z M 300.796875 62.40625 "/>
</g>
<mask id="mask11">
  <g filter="url(#alpha)">
<rect x="0" y="0" width="350" height="290" style="fill:rgb(0%,0%,0%);fill-opacity:0.501961;stroke:none;"/>
  </g>
</mask>
<linearGradient id="linear8" gradientUnits="userSpaceOnUse" x1="396.83" y1="225.01" x2="396.83" y2="121.04" gradientTransform="matrix(0.344977,-0.205751,0.219924,0.322744,-110.452485,76.148269)">
<stop offset="0" style="stop-color:rgb(50.196078%,50.196078%,50.196078%);stop-opacity:0.25098;"/>
<stop offset="0.54" style="stop-color:rgb(50.196078%,50.196078%,50.196078%);stop-opacity:0.121569;"/>
<stop offset="1" style="stop-color:rgb(50.196078%,50.196078%,50.196078%);stop-opacity:0.101961;"/>
</linearGradient>
<clipPath id="clip12">
  <rect width="350" height="290"/>
</clipPath>
<g id="surface39" clip-path="url(#clip12)">
<path style=" stroke:none;fill-rule:nonzero;fill:url(#linear8);" d="M 50.355469 35.738281 L 77.914062 35.480469 L 78.242188 66.242188 L 50.683594 66.5 Z M 50.355469 35.738281 "/>
</g>
<mask id="mask12">
  <g filter="url(#alpha)">
<rect x="0" y="0" width="350" height="290" style="fill:rgb(0%,0%,0%);fill-opacity:0.501961;stroke:none;"/>
  </g>
</mask>
<linearGradient id="linear9" gradientUnits="userSpaceOnUse" x1="236.43" y1="375.71" x2="236.43" y2="256.45" gradientTransform="matrix(0.375179,0.150947,-0.161345,0.351001,-19.188363,-63.225907)">
<stop offset="0" style="stop-color:rgb(50.196078%,50.196078%,50.196078%);stop-opacity:0.25098;"/>
<stop offset="0.54" style="stop-color:rgb(50.196078%,50.196078%,50.196078%);stop-opacity:0.121569;"/>
<stop offset="1" style="stop-color:rgb(50.196078%,50.196078%,50.196078%);stop-opacity:0.101961;"/>
</linearGradient>
<clipPath id="clip13">
  <rect width="350" height="290"/>
</clipPath>
<g id="surface42" clip-path="url(#clip13)">
<path style=" stroke:none;fill-rule:nonzero;fill:url(#linear9);" d="M 1.753906 65.492188 L 34.933594 65.210938 L 35.285156 101.320312 L 2.105469 101.601562 Z M 1.753906 65.492188 "/>
</g>
<mask id="mask13">
  <g filter="url(#alpha)">
<rect x="0" y="0" width="350" height="290" style="fill:rgb(0%,0%,0%);fill-opacity:0.501961;stroke:none;"/>
  </g>
</mask>
<linearGradient id="linear10" gradientUnits="userSpaceOnUse" x1="685.12" y1="40.19" x2="685.12" y2="-61.78" gradientTransform="matrix(0.364908,0.14592,-0.156008,0.33757,-12.5291,-59.862521)">
<stop offset="0" style="stop-color:rgb(50.196078%,50.196078%,50.196078%);stop-opacity:0.25098;"/>
<stop offset="0.54" style="stop-color:rgb(50.196078%,50.196078%,50.196078%);stop-opacity:0.121569;"/>
<stop offset="1" style="stop-color:rgb(50.196078%,50.196078%,50.196078%);stop-opacity:0.101961;"/>
</linearGradient>
<clipPath id="clip14">
  <rect width="350" height="290"/>
</clipPath>
<g id="surface45" clip-path="url(#clip14)">
<path style=" stroke:none;fill-rule:nonzero;fill:url(#linear10);" d="M 225.875 20.851562 L 253.546875 20.617188 L 253.835938 50.191406 L 226.164062 50.429688 Z M 225.875 20.851562 "/>
</g>
<mask id="mask14">
  <g filter="url(#alpha)">
<rect x="0" y="0" width="350" height="290" style="fill:rgb(0%,0%,0%);fill-opacity:0.501961;stroke:none;"/>
  </g>
</mask>
<linearGradient id="linear11" gradientUnits="userSpaceOnUse" x1="412.8" y1="499.65" x2="412.8" y2="373.23" gradientTransform="matrix(0.408401,0,0,0.382082,0,0)">
<stop offset="0" style="stop-color:rgb(50.196078%,50.196078%,50.196078%);stop-opacity:0.25098;"/>
<stop offset="0.54" style="stop-color:rgb(50.196078%,50.196078%,50.196078%);stop-opacity:0.121569;"/>
<stop offset="1" style="stop-color:rgb(50.196078%,50.196078%,50.196078%);stop-opacity:0.101961;"/>
</linearGradient>
<clipPath id="clip15">
  <rect width="350" height="290"/>
</clipPath>
<g id="surface48" clip-path="url(#clip15)">
<path style=" stroke:none;fill-rule:nonzero;fill:url(#linear11);" d="M 146.628906 142.605469 L 146.628906 143.300781 L 162.734375 169.425781 L 162.734375 184.984375 L 174.566406 190.90625 L 174.566406 169.425781 L 190.550781 143.300781 L 190.550781 142.605469 Z M 146.628906 142.605469 "/>
</g>
<mask id="mask15">
  <g filter="url(#alpha)">
<rect x="0" y="0" width="350" height="290" style="fill:rgb(0%,0%,0%);fill-opacity:0.101961;stroke:none;"/>
  </g>
</mask>
<clipPath id="clip16">
  <rect width="350" height="290"/>
</clipPath>
<g id="surface51" clip-path="url(#clip16)">
<path style=" stroke:none;fill-rule:nonzero;fill:rgb(0%,0%,0%);fill-opacity:1;" d="M 147.117188 142.945312 L 189.816406 142.945312 L 189.816406 143.632812 L 147.117188 143.632812 Z M 147.117188 142.945312 "/>
</g>
<mask id="mask16">
  <g filter="url(#alpha)">
<rect x="0" y="0" width="350" height="290" style="fill:rgb(0%,0%,0%);fill-opacity:0.2;stroke:none;"/>
  </g>
</mask>
<clipPath id="clip17">
  <rect width="350" height="290"/>
</clipPath>
<g id="surface54" clip-path="url(#clip17)">
<path style=" stroke:none;fill-rule:nonzero;fill:rgb(100%,100%,100%);fill-opacity:1;" d="M 163.511719 184.726562 L 163.511719 169.386719 L 147.847656 143.632812 L 147.117188 143.632812 L 162.777344 169.386719 L 162.777344 184.726562 Z M 163.511719 184.726562 "/>
</g>
<mask id="mask17">
  <g filter="url(#alpha)">
<rect x="0" y="0" width="350" height="290" style="fill:rgb(0%,0%,0%);fill-opacity:0.101961;stroke:none;"/>
  </g>
</mask>
<clipPath id="clip18">
  <rect width="350" height="290"/>
</clipPath>
<g id="surface57" clip-path="url(#clip18)">
<path style=" stroke:none;fill-rule:nonzero;fill:rgb(0%,0%,0%);fill-opacity:1;" d="M 162.777344 184.726562 L 174.28125 190.5625 L 174.28125 190.21875 L 163.511719 184.726562 Z M 162.777344 184.726562 "/>
</g>
<linearGradient id="linear12" gradientUnits="userSpaceOnUse" x1="738.57" y1="755.54" x2="738.57" y2="523.23" gradientTransform="matrix(0.408401,0,0,0.382082,0,0)">
<stop offset="0" style="stop-color:rgb(50.196078%,50.196078%,50.196078%);stop-opacity:0.25098;"/>
<stop offset="0.54" style="stop-color:rgb(50.196078%,50.196078%,50.196078%);stop-opacity:0.121569;"/>
<stop offset="1" style="stop-color:rgb(50.196078%,50.196078%,50.196078%);stop-opacity:0.101961;"/>
</linearGradient>
<linearGradient id="linear13" gradientUnits="userSpaceOnUse" x1="427.78" y1="756.43" x2="427.78" y2="522.45" gradientTransform="matrix(0.408401,0,0,0.382082,0,0)">
<stop offset="0" style="stop-color:rgb(50.196078%,50.196078%,50.196078%);stop-opacity:0.25098;"/>
<stop offset="0.54" style="stop-color:rgb(50.196078%,50.196078%,50.196078%);stop-opacity:0.121569;"/>
<stop offset="1" style="stop-color:rgb(50.196078%,50.196078%,50.196078%);stop-opacity:0.101961;"/>
</linearGradient>
<mask id="mask18">
  <g filter="url(#alpha)">
<rect x="0" y="0" width="350" height="290" style="fill:rgb(0%,0%,0%);fill-opacity:0.501961;stroke:none;"/>
  </g>
</mask>
<mask id="mask19">
  <g filter="url(#alpha)">
<rect x="0" y="0" width="350" height="290" style="fill:rgb(0%,0%,0%);fill-opacity:0.501961;stroke:none;"/>
  </g>
</mask>
<linearGradient id="linear14" gradientUnits="userSpaceOnUse" x1="426.61" y1="68.13" x2="426.61" y2="0" gradientTransform="matrix(0.408401,0,0,0.382082,0,0)">
<stop offset="0" style="stop-color:rgb(50.196078%,50.196078%,50.196078%);stop-opacity:0.25098;"/>
<stop offset="0.54" style="stop-color:rgb(50.196078%,50.196078%,50.196078%);stop-opacity:0.121569;"/>
<stop offset="1" style="stop-color:rgb(50.196078%,50.196078%,50.196078%);stop-opacity:0.101961;"/>
</linearGradient>
<clipPath id="clip20">
  <rect width="350" height="290"/>
</clipPath>
<g id="surface61" clip-path="url(#clip20)">
<path style=" stroke:none;fill-rule:nonzero;fill:url(#linear14);" d="M 162 0 L 186.460938 0 L 186.460938 26.03125 L 162 26.03125 Z M 162 0 "/>
</g>
<clipPath id="clip19">
  <rect width="350" height="290"/>
</clipPath>
<g id="surface63" clip-path="url(#clip19)">
<use xlink:href="#surface61" mask="url(#mask19)"/>
<path style=" stroke:none;fill-rule:nonzero;fill:rgb(90.196078%,90.196078%,90.196078%);fill-opacity:1;" d="M 162.777344 0.363281 L 185.941406 0.363281 L 185.941406 26.03125 L 162.777344 26.03125 Z M 162.777344 0.363281 "/>
<path style=" stroke:none;fill-rule:nonzero;fill:rgb(100%,100%,100%);fill-opacity:1;" d="M 178.371094 12.472656 C 178.371094 14.679688 176.457031 16.46875 174.097656 16.46875 C 171.738281 16.46875 169.824219 14.679688 169.824219 12.472656 C 169.824219 10.265625 171.738281 8.472656 174.097656 8.472656 C 176.457031 8.472656 178.371094 10.265625 178.371094 12.472656 Z M 178.371094 12.472656 "/>
<path style=" stroke:none;fill-rule:nonzero;fill:rgb(100%,100%,100%);fill-opacity:1;" d="M 177.980469 13.804688 C 177.980469 15.8125 176.242188 17.4375 174.097656 17.4375 C 171.953125 17.4375 170.214844 15.8125 170.214844 13.804688 C 170.214844 11.796875 171.953125 10.171875 174.097656 10.171875 C 176.242188 10.171875 177.980469 11.796875 177.980469 13.804688 Z M 177.980469 13.804688 "/>
<path style=" stroke:none;fill-rule:nonzero;fill:rgb(100%,100%,100%);fill-opacity:1;" d="M 173.195312 15.984375 L 175.007812 15.984375 L 175.007812 18.890625 L 173.195312 18.890625 Z M 173.195312 15.984375 "/>
<path style=" stroke:none;fill-rule:nonzero;fill:rgb(100%,100%,100%);fill-opacity:1;" d="M 174.292969 18.042969 C 176.757812 18.042969 178.757812 19.910156 178.757812 22.21875 L 178.757812 26.039062 L 169.828125 26.039062 L 169.828125 22.21875 C 169.828125 19.910156 171.828125 18.042969 174.292969 18.042969 Z M 174.292969 18.042969 "/>
<path style=" stroke:none;fill-rule:nonzero;fill:rgb(100%,100%,100%);fill-opacity:1;" d="M 172.097656 8.210938 C 171.824219 8.347656 171.550781 8.488281 171.28125 8.644531 C 171.042969 8.753906 170.84375 8.929688 170.707031 9.144531 C 170.675781 9.230469 170.628906 9.3125 170.574219 9.386719 C 170.449219 9.515625 170.246094 9.511719 170.070312 9.546875 C 169.5 9.675781 169.203125 10.261719 169.050781 10.789062 C 168.957031 11.105469 168.878906 11.425781 168.824219 11.75 C 168.769531 11.957031 168.777344 12.175781 168.84375 12.378906 C 168.882812 12.46875 168.9375 12.542969 168.96875 12.632812 C 169.074219 12.960938 168.777344 13.269531 168.703125 13.605469 C 168.667969 13.910156 168.722656 14.21875 168.863281 14.496094 C 168.890625 14.585938 168.933594 14.667969 168.988281 14.75 C 169.039062 14.804688 169.089844 14.859375 169.148438 14.914062 C 169.269531 15.039062 169.371094 15.183594 169.4375 15.34375 C 170.054688 15.453125 170.660156 15.613281 171.242188 15.824219 C 172.195312 16.171875 173.132812 16.664062 174.15625 16.617188 C 174.433594 16.605469 174.710938 16.550781 174.972656 16.460938 C 175.480469 16.28125 175.921875 15.960938 176.441406 15.808594 C 176.921875 15.703125 177.40625 15.628906 177.894531 15.578125 C 178.128906 15.535156 178.414062 15.371094 178.324219 15.164062 C 178.5625 15.25 178.832031 15.199219 179.023438 15.039062 C 179.199219 14.875 179.335938 14.683594 179.429688 14.46875 C 179.640625 14.113281 179.804688 13.734375 179.921875 13.34375 C 180.117188 12.582031 180.007812 11.78125 179.613281 11.09375 C 179.546875 10.957031 179.441406 10.835938 179.316406 10.742188 C 179.222656 10.675781 179.113281 10.636719 179.023438 10.570312 C 178.929688 10.488281 178.855469 10.394531 178.796875 10.292969 C 178.472656 9.785156 178.132812 9.296875 177.773438 8.835938 C 177.457031 8.339844 176.988281 7.941406 176.433594 7.691406 C 175.578125 7.386719 174.953125 7.871094 174.144531 7.902344 C 173.800781 7.855469 173.449219 7.835938 173.097656 7.847656 C 172.746094 7.925781 172.410156 8.046875 172.097656 8.210938 Z M 172.097656 8.210938 "/>
</g>
<mask id="mask20">
  <g filter="url(#alpha)">
<rect x="0" y="0" width="350" height="290" style="fill:rgb(0%,0%,0%);fill-opacity:0.501961;stroke:none;"/>
  </g>
</mask>
<mask id="mask21">
  <g filter="url(#alpha)">
<rect x="0" y="0" width="350" height="290" style="fill:rgb(0%,0%,0%);fill-opacity:0.501961;stroke:none;"/>
  </g>
</mask>
<linearGradient id="linear15" gradientUnits="userSpaceOnUse" x1="713.61" y1="139.13" x2="713.61" y2="71" gradientTransform="matrix(0.408401,0,0,0.382082,0,0)">
<stop offset="0" style="stop-color:rgb(50.196078%,50.196078%,50.196078%);stop-opacity:0.25098;"/>
<stop offset="0.54" style="stop-color:rgb(50.196078%,50.196078%,50.196078%);stop-opacity:0.121569;"/>
<stop offset="1" style="stop-color:rgb(50.196078%,50.196078%,50.196078%);stop-opacity:0.101961;"/>
</linearGradient>
<clipPath id="clip22">
  <rect width="350" height="290"/>
</clipPath>
<g id="surface67" clip-path="url(#clip22)">
<path style=" stroke:none;fill-rule:nonzero;fill:url(#linear15);" d="M 279.210938 27.128906 L 303.671875 27.128906 L 303.671875 53.160156 L 279.210938 53.160156 Z M 279.210938 27.128906 "/>
</g>
<clipPath id="clip21">
  <rect width="350" height="290"/>
</clipPath>
<g id="surface69" clip-path="url(#clip21)">
<use xlink:href="#surface67" mask="url(#mask21)"/>
<path style=" stroke:none;fill-rule:nonzero;fill:rgb(90.196078%,90.196078%,90.196078%);fill-opacity:1;" d="M 279.988281 27.492188 L 303.152344 27.492188 L 303.152344 53.160156 L 279.988281 53.160156 Z M 279.988281 27.492188 "/>
<path style=" stroke:none;fill-rule:nonzero;fill:rgb(100%,100%,100%);fill-opacity:1;" d="M 295.582031 39.597656 C 295.582031 41.804688 293.667969 43.59375 291.308594 43.59375 C 288.949219 43.59375 287.035156 41.804688 287.035156 39.597656 C 287.035156 37.390625 288.949219 35.601562 291.308594 35.601562 C 293.667969 35.601562 295.582031 37.390625 295.582031 39.597656 Z M 295.582031 39.597656 "/>
<path style=" stroke:none;fill-rule:nonzero;fill:rgb(100%,100%,100%);fill-opacity:1;" d="M 295.191406 40.933594 C 295.191406 42.9375 293.453125 44.566406 291.308594 44.566406 C 289.164062 44.566406 287.425781 42.9375 287.425781 40.933594 C 287.425781 38.925781 289.164062 37.296875 291.308594 37.296875 C 293.453125 37.296875 295.191406 38.925781 295.191406 40.933594 Z M 295.191406 40.933594 "/>
<path style=" stroke:none;fill-rule:nonzero;fill:rgb(100%,100%,100%);fill-opacity:1;" d="M 290.40625 43.109375 L 292.21875 43.109375 L 292.21875 46.019531 L 290.40625 46.019531 Z M 290.40625 43.109375 "/>
<path style=" stroke:none;fill-rule:nonzero;fill:rgb(100%,100%,100%);fill-opacity:1;" d="M 291.503906 45.167969 C 293.96875 45.167969 295.96875 47.039062 295.96875 49.347656 L 295.96875 53.167969 L 287.039062 53.167969 L 287.039062 49.347656 C 287.039062 47.039062 289.039062 45.167969 291.503906 45.167969 Z M 291.503906 45.167969 "/>
<path style=" stroke:none;fill-rule:nonzero;fill:rgb(100%,100%,100%);fill-opacity:1;" d="M 289.308594 35.339844 C 289.035156 35.472656 288.761719 35.617188 288.492188 35.769531 C 288.253906 35.882812 288.054688 36.058594 287.917969 36.269531 C 287.886719 36.359375 287.839844 36.441406 287.785156 36.515625 C 287.660156 36.640625 287.457031 36.636719 287.28125 36.675781 C 286.710938 36.800781 286.414062 37.390625 286.261719 37.917969 C 286.167969 38.234375 286.09375 38.554688 286.035156 38.875 C 285.984375 39.085938 285.988281 39.300781 286.054688 39.507812 C 286.09375 39.59375 286.152344 39.671875 286.179688 39.757812 C 286.285156 40.089844 285.988281 40.398438 285.914062 40.734375 C 285.878906 41.039062 285.933594 41.347656 286.074219 41.625 C 286.101562 41.710938 286.144531 41.796875 286.199219 41.875 C 286.25 41.933594 286.300781 41.988281 286.359375 42.039062 C 286.484375 42.167969 286.582031 42.3125 286.648438 42.472656 C 287.265625 42.578125 287.871094 42.742188 288.453125 42.953125 C 289.40625 43.300781 290.34375 43.789062 291.367188 43.746094 C 291.644531 43.734375 291.921875 43.679688 292.183594 43.585938 C 292.691406 43.410156 293.132812 43.085938 293.652344 42.933594 C 294.132812 42.832031 294.617188 42.753906 295.105469 42.707031 C 295.339844 42.664062 295.625 42.5 295.535156 42.292969 C 295.773438 42.375 296.042969 42.328125 296.234375 42.167969 C 296.410156 42.003906 296.546875 41.808594 296.640625 41.597656 C 296.851562 41.242188 297.015625 40.863281 297.132812 40.46875 C 297.328125 39.710938 297.21875 38.910156 296.824219 38.21875 C 296.757812 38.082031 296.65625 37.960938 296.527344 37.867188 C 296.433594 37.804688 296.324219 37.765625 296.234375 37.695312 C 296.144531 37.617188 296.066406 37.523438 296.007812 37.421875 C 295.683594 36.910156 295.34375 36.425781 294.984375 35.964844 C 294.667969 35.46875 294.199219 35.070312 293.644531 34.820312 C 292.792969 34.511719 292.167969 35 291.359375 35.027344 C 291.011719 34.980469 290.660156 34.964844 290.308594 34.976562 C 289.957031 35.050781 289.621094 35.175781 289.308594 35.339844 Z M 289.308594 35.339844 "/>
</g>
</defs>
<g id="surface1">
<use xlink:href="#surface9" mask="url(#mask0)"/>
<use xlink:href="#surface15" mask="url(#mask2)"/>
<use xlink:href="#surface21" mask="url(#mask4)"/>
<use xlink:href="#surface27" mask="url(#mask6)"/>
<path style=" stroke:none;fill-rule:nonzero;fill:url(#linear4);" d="M 0 201.175781 L 96.820312 201.175781 L 96.820312 289.933594 L 0 289.933594 Z M 0 201.175781 "/>
<path style=" stroke:none;fill-rule:nonzero;fill:rgb(100%,100%,100%);fill-opacity:1;" d="M 0.484375 201.859375 L 96.332031 201.859375 L 96.332031 289.25 L 0.484375 289.25 Z M 0.484375 201.859375 "/>
<path style=" stroke:none;fill-rule:nonzero;fill:rgb(7.45098%,4.705882%,71.764706%);fill-opacity:1;" d="M 10.21875 209.117188 L 86.601562 209.117188 L 86.601562 264.59375 L 10.21875 264.59375 Z M 10.21875 209.117188 "/>
<path style=" stroke:none;fill-rule:nonzero;fill:rgb(87.843137%,87.843137%,87.843137%);fill-opacity:1;" d="M 14.867188 270.519531 L 82.3125 270.519531 L 82.3125 273.429688 L 14.867188 273.429688 Z M 14.867188 270.519531 "/>
<path style=" stroke:none;fill-rule:nonzero;fill:rgb(87.843137%,87.843137%,87.843137%);fill-opacity:1;" d="M 25.628906 276.332031 L 71.550781 276.332031 L 71.550781 279.242188 L 25.628906 279.242188 Z M 25.628906 276.332031 "/>
<use xlink:href="#surface30" mask="url(#mask8)"/>
<path style=" stroke:none;fill-rule:nonzero;fill:rgb(90.196078%,90.196078%,90.196078%);fill-opacity:1;" d="M 157.46875 60.710938 L 189.832031 60.710938 L 189.832031 96.574219 L 157.46875 96.574219 Z M 157.46875 60.710938 "/>
<path style=" stroke:none;fill-rule:nonzero;fill:rgb(100%,100%,100%);fill-opacity:1;" d="M 179.253906 77.628906 C 179.253906 80.710938 176.585938 83.210938 173.289062 83.210938 C 169.992188 83.210938 167.320312 80.710938 167.320312 77.628906 C 167.320312 74.542969 169.992188 72.046875 173.289062 72.046875 C 176.585938 72.046875 179.253906 74.542969 179.253906 77.628906 Z M 179.253906 77.628906 "/>
<path style=" stroke:none;fill-rule:nonzero;fill:rgb(100%,100%,100%);fill-opacity:1;" d="M 178.710938 79.488281 C 178.710938 82.289062 176.285156 84.5625 173.289062 84.5625 C 170.292969 84.5625 167.863281 82.289062 167.863281 79.488281 C 167.863281 76.6875 170.292969 74.414062 173.289062 74.414062 C 176.285156 74.414062 178.710938 76.6875 178.710938 79.488281 Z M 178.710938 79.488281 "/>
<path style=" stroke:none;fill-rule:nonzero;fill:rgb(100%,100%,100%);fill-opacity:1;" d="M 172.023438 82.535156 L 174.554688 82.535156 L 174.554688 86.59375 L 172.023438 86.59375 Z M 172.023438 82.535156 "/>
<path style=" stroke:none;fill-rule:nonzero;fill:rgb(100%,100%,100%);fill-opacity:1;" d="M 172.664062 85.410156 L 174.453125 85.410156 C 177.402344 85.410156 179.792969 87.648438 179.792969 90.40625 L 179.792969 96.574219 L 167.320312 96.574219 L 167.320312 90.40625 C 167.320312 87.648438 169.714844 85.410156 172.664062 85.410156 Z M 172.664062 85.410156 "/>
<path style=" stroke:none;fill-rule:nonzero;fill:rgb(100%,100%,100%);fill-opacity:1;" d="M 170.488281 71.675781 C 170.101562 71.863281 169.726562 72.0625 169.359375 72.273438 C 169.019531 72.429688 168.738281 72.671875 168.542969 72.972656 C 168.5 73.09375 168.433594 73.210938 168.355469 73.3125 C 168.183594 73.488281 167.898438 73.484375 167.652344 73.539062 C 166.835938 73.714844 166.425781 74.535156 166.226562 75.277344 C 166.097656 75.71875 165.996094 76.164062 165.917969 76.613281 C 165.84375 76.90625 165.851562 77.210938 165.945312 77.496094 C 166 77.621094 166.078125 77.726562 166.117188 77.851562 C 166.265625 78.3125 165.847656 78.746094 165.746094 79.214844 C 165.695312 79.636719 165.773438 80.070312 165.96875 80.453125 C 166.011719 80.578125 166.070312 80.695312 166.144531 80.804688 C 166.214844 80.886719 166.289062 80.964844 166.367188 81.039062 C 166.542969 81.21875 166.679688 81.421875 166.773438 81.648438 C 167.636719 81.792969 168.484375 82.015625 169.304688 82.308594 C 170.628906 82.792969 171.945312 83.476562 173.386719 83.417969 C 173.773438 83.398438 174.15625 83.324219 174.519531 83.199219 C 175.230469 82.949219 175.847656 82.5 176.558594 82.28125 C 177.234375 82.136719 177.914062 82.03125 178.601562 81.960938 C 178.925781 81.898438 179.324219 81.671875 179.203125 81.382812 C 179.535156 81.5 179.910156 81.429688 180.175781 81.203125 C 180.429688 80.980469 180.632812 80.710938 180.773438 80.410156 C 181.0625 79.910156 181.289062 79.382812 181.449219 78.835938 C 181.722656 77.773438 181.570312 76.65625 181.019531 75.695312 C 180.925781 75.503906 180.785156 75.335938 180.613281 75.207031 C 180.480469 75.117188 180.324219 75.0625 180.203125 74.96875 C 180.074219 74.859375 179.96875 74.730469 179.886719 74.585938 C 179.4375 73.890625 178.957031 73.210938 178.453125 72.550781 C 177.957031 71.890625 177.390625 71.21875 176.585938 70.933594 C 175.390625 70.507812 174.523438 71.1875 173.386719 71.226562 C 172.878906 71.226562 172.457031 71.054688 171.921875 71.15625 C 171.417969 71.261719 170.9375 71.4375 170.488281 71.675781 Z M 170.488281 71.675781 "/>
<use xlink:href="#surface33" mask="url(#mask9)"/>
<path style=" stroke:none;fill-rule:nonzero;fill:rgb(90.196078%,90.196078%,90.196078%);fill-opacity:1;" d="M 95.273438 19.789062 L 122.945312 19.789062 L 122.945312 50.449219 L 95.273438 50.449219 Z M 95.273438 19.789062 "/>
<path style=" stroke:none;fill-rule:nonzero;fill:rgb(100%,100%,100%);fill-opacity:1;" d="M 113.898438 34.25 C 113.898438 36.886719 111.617188 39.023438 108.796875 39.023438 C 105.980469 39.023438 103.695312 36.886719 103.695312 34.25 C 103.695312 31.613281 105.980469 29.476562 108.796875 29.476562 C 111.617188 29.476562 113.898438 31.613281 113.898438 34.25 Z M 113.898438 34.25 "/>
<path style=" stroke:none;fill-rule:nonzero;fill:rgb(100%,100%,100%);fill-opacity:1;" d="M 113.4375 35.84375 C 113.4375 38.242188 111.359375 40.183594 108.796875 40.183594 C 106.234375 40.183594 104.160156 38.242188 104.160156 35.84375 C 104.160156 33.445312 106.234375 31.503906 108.796875 31.503906 C 111.359375 31.503906 113.4375 33.445312 113.4375 35.84375 Z M 113.4375 35.84375 "/>
<path style=" stroke:none;fill-rule:nonzero;fill:rgb(100%,100%,100%);fill-opacity:1;" d="M 107.714844 38.445312 L 109.878906 38.445312 L 109.878906 41.914062 L 107.714844 41.914062 Z M 107.714844 38.445312 "/>
<path style=" stroke:none;fill-rule:nonzero;fill:rgb(100%,100%,100%);fill-opacity:1;" d="M 109.042969 40.902344 C 111.980469 40.914062 114.351562 43.144531 114.351562 45.890625 L 114.351562 50.433594 L 103.695312 50.433594 L 103.695312 45.890625 C 103.695312 44.566406 104.261719 43.296875 105.265625 42.359375 C 106.265625 41.421875 107.625 40.898438 109.042969 40.902344 Z M 109.042969 40.902344 "/>
<path style=" stroke:none;fill-rule:nonzero;fill:rgb(100%,100%,100%);fill-opacity:1;" d="M 106.410156 29.160156 C 106.082031 29.320312 105.761719 29.492188 105.445312 29.675781 C 105.160156 29.808594 104.925781 30.015625 104.761719 30.273438 C 104.726562 30.375 104.671875 30.472656 104.605469 30.5625 C 104.457031 30.710938 104.195312 30.707031 104.003906 30.753906 C 103.320312 30.902344 102.96875 31.605469 102.777344 32.238281 C 102.667969 32.617188 102.578125 33 102.511719 33.386719 C 102.445312 33.636719 102.457031 33.902344 102.539062 34.152344 C 102.582031 34.253906 102.648438 34.347656 102.683594 34.453125 C 102.8125 34.835938 102.457031 35.214844 102.367188 35.597656 C 102.324219 35.960938 102.390625 36.332031 102.558594 36.660156 C 102.59375 36.765625 102.644531 36.867188 102.707031 36.960938 C 102.765625 37.03125 102.828125 37.097656 102.898438 37.160156 C 103.046875 37.3125 103.164062 37.488281 103.242188 37.679688 C 103.980469 37.808594 104.703125 38 105.398438 38.253906 C 106.535156 38.667969 107.660156 39.253906 108.875 39.203125 C 109.207031 39.1875 109.535156 39.125 109.84375 39.015625 C 110.453125 38.800781 110.984375 38.417969 111.601562 38.25 C 112.171875 38.128906 112.75 38.035156 113.335938 37.976562 C 113.613281 37.925781 113.953125 37.726562 113.851562 37.480469 C 114.132812 37.574219 114.445312 37.515625 114.667969 37.328125 C 114.882812 37.136719 115.058594 36.90625 115.175781 36.648438 C 115.425781 36.222656 115.617188 35.773438 115.753906 35.304688 C 115.980469 34.402344 115.851562 33.449219 115.386719 32.628906 C 115.300781 32.464844 115.179688 32.324219 115.03125 32.210938 C 114.921875 32.132812 114.785156 32.085938 114.679688 32.007812 C 114.570312 31.914062 114.480469 31.804688 114.410156 31.683594 C 114.023438 31.089844 113.613281 30.507812 113.183594 29.945312 C 112.804688 29.347656 112.25 28.867188 111.582031 28.5625 C 110.5625 28.183594 109.820312 28.78125 108.851562 28.816406 C 108.417969 28.816406 108.054688 28.667969 107.597656 28.753906 C 107.183594 28.839844 106.78125 28.972656 106.410156 29.160156 Z M 106.410156 29.160156 "/>
<use xlink:href="#surface36" mask="url(#mask10)"/>
<path style=" stroke:none;fill-rule:nonzero;fill:rgb(90.196078%,90.196078%,90.196078%);fill-opacity:1;" d="M 301.289062 63.433594 L 332.441406 63.171875 L 332.773438 97.6875 L 301.625 97.949219 Z M 301.289062 63.433594 "/>
<path style=" stroke:none;fill-rule:nonzero;fill:rgb(100%,100%,100%);fill-opacity:1;" d="M 322.851562 79.535156 C 322.878906 82.5 320.332031 84.925781 317.160156 84.953125 C 313.988281 84.980469 311.394531 82.597656 311.367188 79.632812 C 311.335938 76.664062 313.886719 74.238281 317.054688 74.210938 C 320.226562 74.183594 322.820312 76.566406 322.851562 79.535156 Z M 322.851562 79.535156 "/>
<path style=" stroke:none;fill-rule:nonzero;fill:rgb(100%,100%,100%);fill-opacity:1;" d="M 322.34375 81.328125 C 322.371094 84.027344 320.054688 86.230469 317.171875 86.257812 C 314.289062 86.28125 311.933594 84.113281 311.90625 81.417969 C 311.878906 78.722656 314.195312 76.515625 317.078125 76.492188 C 319.960938 76.464844 322.320312 78.632812 322.34375 81.328125 Z M 322.34375 81.328125 "/>
<path style=" stroke:none;fill-rule:nonzero;fill:rgb(100%,100%,100%);fill-opacity:1;" d="M 315.933594 84.3125 L 318.371094 84.292969 L 318.410156 88.203125 L 315.972656 88.222656 Z M 315.933594 84.3125 "/>
<path style=" stroke:none;fill-rule:nonzero;fill:rgb(100%,100%,100%);fill-opacity:1;" d="M 316.78125 87.078125 L 318.105469 87.066406 C 321.054688 87.039062 323.46875 89.257812 323.496094 92.019531 L 323.550781 97.75 L 311.542969 97.851562 L 311.488281 92.121094 C 311.460938 89.359375 313.832031 87.101562 316.78125 87.078125 Z M 316.78125 87.078125 "/>
<path style=" stroke:none;fill-rule:nonzero;fill:rgb(100%,100%,100%);fill-opacity:1;" d="M 319.144531 74.191406 C 319.152344 75.269531 318.226562 76.152344 317.074219 76.164062 C 315.921875 76.171875 314.980469 75.308594 314.96875 74.230469 C 314.960938 73.148438 315.886719 72.269531 317.039062 72.257812 C 318.191406 72.25 319.132812 73.113281 319.144531 74.191406 Z M 319.144531 74.191406 "/>
<path style=" stroke:none;fill-rule:nonzero;fill:rgb(100%,100%,100%);fill-opacity:1;" d="M 317.726562 71.066406 C 318.828125 70.871094 319.949219 71.203125 320.996094 71.566406 C 321.917969 71.832031 322.777344 72.269531 323.519531 72.847656 C 324.855469 74.019531 325.152344 75.90625 325.183594 77.601562 C 325.21875 79.296875 325.128906 81.113281 325.945312 82.644531 C 326.894531 84.359375 328.820312 85.410156 330.882812 85.339844 C 329.710938 86.070312 328.121094 86 326.835938 85.457031 C 325.6875 84.96875 324.730469 84.160156 324.097656 83.140625 C 323.707031 82.441406 323.382812 81.710938 323.125 80.960938 C 322.242188 78.734375 321.066406 76.617188 319.625 74.667969 C 319.40625 74.351562 319.148438 74.0625 318.847656 73.8125 C 318.414062 73.503906 317.894531 73.308594 317.351562 73.257812 C 316.90625 73.199219 316.128906 73.394531 315.867188 72.980469 C 315.28125 72.117188 317.074219 71.183594 317.726562 71.066406 Z M 317.726562 71.066406 "/>
<use xlink:href="#surface39" mask="url(#mask11)"/>
<path style=" stroke:none;fill-rule:nonzero;fill:rgb(90.196078%,90.196078%,90.196078%);fill-opacity:1;" d="M 50.792969 36.445312 L 77.429688 36.21875 L 77.714844 65.730469 L 51.078125 65.957031 Z M 50.792969 36.445312 "/>
<path style=" stroke:none;fill-rule:nonzero;fill:rgb(100%,100%,100%);fill-opacity:1;" d="M 69.226562 50.207031 C 69.253906 52.746094 67.074219 54.820312 64.363281 54.84375 C 61.652344 54.867188 59.433594 52.828125 59.410156 50.292969 C 59.386719 47.753906 61.5625 45.679688 64.273438 45.65625 C 66.984375 45.632812 69.203125 47.671875 69.226562 50.207031 Z M 69.226562 50.207031 "/>
<path style=" stroke:none;fill-rule:nonzero;fill:rgb(100%,100%,100%);fill-opacity:1;" d="M 68.796875 51.742188 C 68.820312 54.050781 66.839844 55.9375 64.375 55.957031 C 61.910156 55.980469 59.894531 54.125 59.871094 51.820312 C 59.847656 49.511719 61.828125 47.628906 64.292969 47.605469 C 66.757812 47.585938 68.777344 49.4375 68.796875 51.742188 Z M 68.796875 51.742188 "/>
<path style=" stroke:none;fill-rule:nonzero;fill:rgb(100%,100%,100%);fill-opacity:1;" d="M 63.316406 54.292969 L 65.398438 54.273438 L 65.433594 57.613281 L 63.351562 57.632812 Z M 63.316406 54.292969 "/>
<path style=" stroke:none;fill-rule:nonzero;fill:rgb(100%,100%,100%);fill-opacity:1;" d="M 64.605469 56.652344 C 67.441406 56.625 69.761719 58.757812 69.785156 61.410156 L 69.828125 65.796875 L 59.5625 65.882812 L 59.519531 61.496094 C 59.492188 58.84375 61.769531 56.675781 64.605469 56.652344 Z M 64.605469 56.652344 "/>
<path style=" stroke:none;fill-rule:nonzero;fill:rgb(100%,100%,100%);fill-opacity:1;" d="M 66.058594 45.644531 C 66.070312 46.566406 65.277344 47.320312 64.292969 47.328125 C 63.304688 47.335938 62.5 46.59375 62.492188 45.671875 C 62.480469 44.75 63.273438 43.996094 64.257812 43.988281 C 65.246094 43.980469 66.050781 44.722656 66.058594 45.644531 Z M 66.058594 45.644531 "/>
<path style=" stroke:none;fill-rule:nonzero;fill:rgb(100%,100%,100%);fill-opacity:1;" d="M 64.851562 42.953125 C 65.789062 42.785156 66.75 43.070312 67.648438 43.382812 C 68.4375 43.609375 69.171875 43.980469 69.808594 44.472656 C 70.953125 45.476562 71.195312 47.074219 71.234375 48.539062 C 71.269531 50.007812 71.183594 51.542969 71.882812 52.851562 C 72.699219 54.316406 74.339844 55.207031 76.101562 55.144531 C 75.101562 55.773438 73.742188 55.710938 72.640625 55.25 C 71.660156 54.832031 70.84375 54.140625 70.300781 53.269531 C 69.972656 52.671875 69.703125 52.046875 69.484375 51.40625 C 68.730469 49.5 67.726562 47.6875 66.488281 46.019531 C 66.304688 45.746094 66.082031 45.5 65.824219 45.289062 C 65.457031 45.019531 65.011719 44.855469 64.546875 44.808594 C 64.167969 44.761719 63.515625 44.929688 63.277344 44.574219 C 62.757812 43.851562 64.292969 43.054688 64.851562 42.953125 Z M 64.851562 42.953125 "/>
<use xlink:href="#surface42" mask="url(#mask12)"/>
<path style=" stroke:none;fill-rule:nonzero;fill:rgb(90.196078%,90.196078%,90.196078%);fill-opacity:1;" d="M 2.433594 66.199219 L 34.382812 65.925781 L 34.726562 101.324219 L 2.777344 101.597656 Z M 2.433594 66.199219 "/>
<path style=" stroke:none;fill-rule:nonzero;fill:rgb(100%,100%,100%);fill-opacity:1;" d="M 24.191406 82.710938 C 24.222656 85.753906 21.609375 88.242188 18.355469 88.269531 C 15.105469 88.296875 12.445312 85.855469 12.414062 82.8125 C 12.386719 79.769531 14.996094 77.277344 18.25 77.25 C 21.503906 77.222656 24.164062 79.667969 24.191406 82.710938 Z M 24.191406 82.710938 "/>
<path style=" stroke:none;fill-rule:nonzero;fill:rgb(100%,100%,100%);fill-opacity:1;" d="M 23.675781 84.550781 C 23.703125 87.316406 21.328125 89.578125 18.371094 89.605469 C 15.414062 89.628906 12.996094 87.40625 12.96875 84.640625 C 12.941406 81.875 15.316406 79.609375 18.273438 79.585938 C 21.230469 79.5625 23.648438 81.78125 23.675781 84.550781 Z M 23.675781 84.550781 "/>
<path style=" stroke:none;fill-rule:nonzero;fill:rgb(100%,100%,100%);fill-opacity:1;" d="M 17.101562 87.613281 L 19.601562 87.589844 L 19.640625 91.597656 L 17.140625 91.621094 Z M 17.101562 87.613281 "/>
<path style=" stroke:none;fill-rule:nonzero;fill:rgb(100%,100%,100%);fill-opacity:1;" d="M 17.832031 90.445312 L 19.464844 90.429688 C 22.414062 90.40625 24.828125 92.621094 24.855469 95.382812 L 24.914062 101.402344 L 12.597656 101.507812 L 12.539062 95.492188 C 12.511719 92.730469 14.878906 90.472656 17.832031 90.449219 Z M 17.832031 90.445312 "/>
<path style=" stroke:none;fill-rule:nonzero;fill:rgb(100%,100%,100%);fill-opacity:1;" d="M 14.167969 78.785156 C 14.167969 78.785156 17.714844 76.753906 18.410156 74.582031 C 18.410156 74.582031 20.042969 77.742188 22.566406 79.890625 Z M 14.167969 78.785156 "/>
<path style=" stroke:none;fill-rule:nonzero;fill:rgb(100%,100%,100%);fill-opacity:1;" d="M 58.0625 232.382812 C 58.113281 237.640625 53.601562 241.941406 47.980469 241.988281 C 42.363281 242.035156 37.765625 237.8125 37.714844 232.558594 C 37.664062 227.300781 42.179688 223 47.796875 222.953125 C 53.414062 222.90625 58.011719 227.128906 58.0625 232.382812 Z M 58.0625 232.382812 "/>
<path style=" stroke:none;fill-rule:nonzero;fill:rgb(100%,100%,100%);fill-opacity:1;" d="M 57.171875 235.5625 C 57.214844 240.34375 53.113281 244.25 48.003906 244.296875 C 42.894531 244.339844 38.714844 240.5 38.671875 235.71875 C 38.625 230.941406 42.726562 227.03125 47.835938 226.988281 C 52.945312 226.945312 57.125 230.785156 57.171875 235.5625 Z M 57.171875 235.5625 "/>
<path style=" stroke:none;fill-rule:nonzero;fill:rgb(100%,100%,100%);fill-opacity:1;" d="M 45.8125 240.851562 L 50.128906 240.816406 L 50.199219 247.738281 L 45.882812 247.773438 Z M 45.8125 240.851562 "/>
<path style=" stroke:none;fill-rule:nonzero;fill:rgb(100%,100%,100%);fill-opacity:1;" d="M 48.15625 245.738281 L 48.804688 245.730469 C 51.542969 245.707031 54.179688 246.703125 56.132812 248.5 C 58.082031 250.296875 59.191406 252.746094 59.210938 255.304688 L 59.300781 264.695312 L 38.03125 264.878906 L 37.9375 255.488281 C 37.910156 252.925781 38.96875 250.457031 40.886719 248.628906 C 42.804688 246.800781 45.417969 245.761719 48.15625 245.738281 Z M 48.15625 245.738281 "/>
<path style=" stroke:none;fill-rule:nonzero;fill:rgb(100%,100%,100%);fill-opacity:1;" d="M 40.746094 225.589844 C 40.746094 225.589844 46.871094 222.074219 48.074219 218.328125 C 48.074219 218.328125 50.898438 223.785156 55.253906 227.5 Z M 40.746094 225.589844 "/>
<use xlink:href="#surface45" mask="url(#mask13)"/>
<path style=" stroke:none;fill-rule:nonzero;fill:rgb(90.196078%,90.196078%,90.196078%);fill-opacity:1;" d="M 226.441406 21.433594 L 253.082031 21.207031 L 253.363281 50.195312 L 226.722656 50.421875 Z M 226.441406 21.433594 "/>
<path style=" stroke:none;fill-rule:nonzero;fill:rgb(100%,100%,100%);fill-opacity:1;" d="M 244.582031 34.957031 C 244.558594 32.464844 242.339844 30.464844 239.625 30.488281 C 236.914062 30.511719 234.734375 32.550781 234.757812 35.039062 C 234.78125 37.53125 237 39.535156 239.714844 39.511719 C 242.425781 39.488281 244.609375 37.449219 244.582031 34.957031 Z M 244.582031 34.957031 "/>
<path style=" stroke:none;fill-rule:nonzero;fill:rgb(100%,100%,100%);fill-opacity:1;" d="M 244.152344 36.460938 C 244.128906 34.195312 242.113281 32.375 239.648438 32.398438 C 237.183594 32.417969 235.203125 34.273438 235.226562 36.539062 C 235.246094 38.804688 237.265625 40.625 239.730469 40.605469 C 242.195312 40.582031 244.175781 38.730469 244.152344 36.460938 Z M 244.152344 36.460938 "/>
<path style=" stroke:none;fill-rule:nonzero;fill:rgb(100%,100%,100%);fill-opacity:1;" d="M 238.75 38.710938 L 240.832031 38.691406 L 240.867188 41.972656 L 238.785156 41.992188 Z M 238.75 38.710938 "/>
<path style=" stroke:none;fill-rule:nonzero;fill:rgb(100%,100%,100%);fill-opacity:1;" d="M 239.957031 41.285156 C 242.792969 41.261719 245.109375 43.390625 245.136719 46.042969 L 245.175781 50.265625 L 234.90625 50.351562 L 234.863281 46.132812 C 234.839844 43.476562 237.121094 41.308594 239.957031 41.285156 Z M 239.957031 41.285156 "/>
<path style=" stroke:none;fill-rule:nonzero;fill:rgb(100%,100%,100%);fill-opacity:1;" d="M 236.21875 31.726562 C 236.21875 31.726562 239.179688 30.0625 239.757812 28.289062 C 240.648438 29.90625 241.820312 31.378906 243.222656 32.636719 Z M 236.21875 31.726562 "/>
<use xlink:href="#surface48" mask="url(#mask14)"/>
<path style=" stroke:none;fill-rule:nonzero;fill:rgb(81.176471%,84.705882%,86.27451%);fill-opacity:1;" d="M 147.117188 142.945312 L 189.816406 142.945312 L 189.816406 143.632812 L 147.117188 143.632812 Z M 147.117188 142.945312 "/>
<use xlink:href="#surface51" mask="url(#mask15)"/>
<path style=" stroke:none;fill-rule:nonzero;fill:rgb(81.176471%,84.705882%,86.27451%);fill-opacity:1;" d="M 147.117188 143.632812 L 162.777344 169.386719 L 162.777344 184.726562 L 174.28125 190.21875 L 174.28125 169.386719 L 189.816406 143.632812 Z M 147.117188 143.632812 "/>
<use xlink:href="#surface54" mask="url(#mask16)"/>
<path style=" stroke:none;fill-rule:nonzero;fill:rgb(81.176471%,84.705882%,86.27451%);fill-opacity:1;" d="M 162.777344 184.726562 L 174.28125 190.5625 L 174.28125 190.21875 L 163.511719 184.726562 Z M 162.777344 184.726562 "/>
<use xlink:href="#surface57" mask="url(#mask17)"/>
<path style=" stroke:none;fill-rule:nonzero;fill:url(#linear12);" d="M 253.222656 199.917969 L 350.039062 199.917969 L 350.039062 288.675781 L 253.222656 288.675781 Z M 253.222656 199.917969 "/>
<path style=" stroke:none;fill-rule:nonzero;fill:rgb(100%,100%,100%);fill-opacity:1;" d="M 253.710938 200.601562 L 349.558594 200.601562 L 349.558594 287.992188 L 253.710938 287.992188 Z M 253.710938 200.601562 "/>
<path style=" stroke:none;fill-rule:nonzero;fill:rgb(7.45098%,4.705882%,71.764706%);fill-opacity:1;" d="M 263.4375 207.855469 L 339.824219 207.855469 L 339.824219 263.335938 L 263.4375 263.335938 Z M 263.4375 207.855469 "/>
<path style=" stroke:none;fill-rule:nonzero;fill:rgb(87.843137%,87.843137%,87.843137%);fill-opacity:1;" d="M 268.839844 271.128906 L 336.285156 271.128906 L 336.285156 274.035156 L 268.839844 274.035156 Z M 268.839844 271.128906 "/>
<path style=" stroke:none;fill-rule:nonzero;fill:rgb(87.843137%,87.843137%,87.843137%);fill-opacity:1;" d="M 279.601562 276.941406 L 325.523438 276.941406 L 325.523438 279.847656 L 279.601562 279.847656 Z M 279.601562 276.941406 "/>
<path style=" stroke:none;fill-rule:nonzero;fill:url(#linear13);" d="M 125.945312 199.617188 L 223.464844 199.617188 L 223.464844 289.019531 L 125.945312 289.019531 Z M 125.945312 199.617188 "/>
<path style=" stroke:none;fill-rule:nonzero;fill:rgb(100%,100%,100%);fill-opacity:1;" d="M 126.4375 200.304688 L 222.976562 200.304688 L 222.976562 288.332031 L 126.4375 288.332031 Z M 126.4375 200.304688 "/>
<path style=" stroke:none;fill-rule:nonzero;fill:rgb(7.45098%,4.705882%,71.764706%);fill-opacity:1;" d="M 136.238281 207.617188 L 213.171875 207.617188 L 213.171875 263.496094 L 136.238281 263.496094 Z M 136.238281 207.617188 "/>
<path style=" stroke:none;fill-rule:nonzero;fill:rgb(87.843137%,87.843137%,87.843137%);fill-opacity:1;" d="M 139.121094 270.1875 L 207.054688 270.1875 L 207.054688 273.117188 L 139.121094 273.117188 Z M 139.121094 270.1875 "/>
<path style=" stroke:none;fill-rule:nonzero;fill:rgb(87.843137%,87.843137%,87.843137%);fill-opacity:1;" d="M 149.957031 276.042969 L 196.214844 276.042969 L 196.214844 278.96875 L 149.957031 278.96875 Z M 149.957031 276.042969 "/>
<path style="fill:none;stroke-width:2;stroke-linecap:butt;stroke-linejoin:miter;stroke:rgb(22.745098%,82.352941%,62.352941%);stroke-opacity:1;stroke-dasharray:12,12;stroke-miterlimit:10;" d="M 213.582645 353.998615 C 213.582645 353.998615 212.578348 464.996231 310.578594 443.996959 C 408.578839 422.997686 411.582165 389.004219 523.575614 432.996366 " transform="matrix(0.408401,0,0,0.382082,-70.02042,-26.967325)"/>
<path style="fill:none;stroke-width:2;stroke-linecap:butt;stroke-linejoin:miter;stroke:rgb(22.745098%,82.352941%,62.352941%);stroke-opacity:1;stroke-dasharray:12,12;stroke-miterlimit:10;" d="M 947.58019 343.999935 C 947.58019 343.999935 948.584487 454.997551 850.584241 433.998279 C 752.583996 412.999006 749.58067 378.995315 637.577656 422.997686 " transform="matrix(0.408401,0,0,0.382082,-70.02042,-26.967325)"/>
<path style="fill:none;stroke-width:2;stroke-linecap:butt;stroke-linejoin:miter;stroke:rgb(22.745098%,82.352941%,62.352941%);stroke-opacity:1;stroke-dasharray:12,12;stroke-miterlimit:10;" d="M 595.578917 343.999935 C 595.578917 343.999935 582.580446 374.997888 601.576004 389.995908 C 620.581127 405.004151 599.576975 437.004017 599.576975 437.004017 " transform="matrix(0.408401,0,0,0.382082,-70.02042,-26.967325)"/>
<path style="fill:none;stroke-width:2;stroke-linecap:butt;stroke-linejoin:miter;stroke:rgb(22.745098%,82.352941%,62.352941%);stroke-opacity:1;stroke-dasharray:12,12;stroke-miterlimit:10;" d="M 329.000268 265.237328 C 329.000268 265.237328 343.997768 338.244049 416.995804 338.244049 C 490.003404 338.244049 554.001027 420.237314 539.998259 430.235994 " transform="matrix(0.408401,0,0,0.382082,-70.02042,-26.967325)"/>
<path style="fill:none;stroke-width:2;stroke-linecap:butt;stroke-linejoin:miter;stroke:rgb(22.745098%,82.352941%,62.352941%);stroke-opacity:1;stroke-dasharray:12,12;stroke-miterlimit:10;" d="M 434.996629 224.240695 C 434.996629 224.240695 415.781083 259.593901 436.909576 295.611641 C 447.067321 312.603262 463.451708 324.95337 482.581172 330.054946 C 527.889308 342.466395 547.726562 336.700286 577.013772 411.230323 " transform="matrix(0.408401,0,0,0.382082,-70.02042,-26.967325)"/>
<path style="fill:none;stroke-width:2;stroke-linecap:butt;stroke-linejoin:miter;stroke:rgb(22.745098%,82.352941%,62.352941%);stroke-opacity:1;stroke-dasharray:12,12;stroke-miterlimit:10;" d="M 757.997634 226.24452 C 757.997634 226.24452 773.349029 244.93326 744.626138 284.478141 C 733.186719 299.977117 717.42404 311.754704 699.308437 318.318254 C 670.30817 329.093928 641.996562 360.235011 641.996562 406.241207 " transform="matrix(0.408401,0,0,0.382082,-70.02042,-26.967325)"/>
<use xlink:href="#surface63" mask="url(#mask18)"/>
<use xlink:href="#surface69" mask="url(#mask20)"/>
<path style=" stroke:none;fill-rule:nonzero;fill:rgb(100%,100%,100%);fill-opacity:1;" d="M 183 233.046875 C 183.050781 238.039062 178.761719 242.125 173.425781 242.167969 C 168.089844 242.214844 163.726562 238.203125 163.675781 233.210938 C 163.628906 228.21875 167.914062 224.132812 173.25 224.089844 C 178.589844 224.042969 182.953125 228.054688 183 233.046875 Z M 183 233.046875 "/>
<path style=" stroke:none;fill-rule:nonzero;fill:rgb(100%,100%,100%);fill-opacity:1;" d="M 182.148438 236.070312 C 182.191406 240.605469 178.296875 244.320312 173.445312 244.363281 C 168.59375 244.402344 164.625 240.757812 164.582031 236.21875 C 164.535156 231.679688 168.433594 227.964844 173.285156 227.925781 C 178.136719 227.882812 182.105469 231.53125 182.148438 236.070312 Z M 182.148438 236.070312 "/>
<path style=" stroke:none;fill-rule:nonzero;fill:rgb(100%,100%,100%);fill-opacity:1;" d="M 171.363281 241.089844 L 175.460938 241.054688 L 175.527344 247.628906 L 171.425781 247.664062 Z M 171.363281 241.089844 "/>
<path style=" stroke:none;fill-rule:nonzero;fill:rgb(100%,100%,100%);fill-opacity:1;" d="M 173.898438 245.726562 C 179.480469 245.679688 184.042969 249.875 184.09375 255.09375 L 184.175781 263.722656 L 163.976562 263.894531 L 163.890625 255.265625 C 163.839844 250.046875 168.320312 245.777344 173.898438 245.726562 Z M 173.898438 245.726562 "/>
<path style=" stroke:none;fill-rule:nonzero;fill:rgb(100%,100%,100%);fill-opacity:1;" d="M 177.019531 223.855469 C 177.039062 225.671875 175.480469 227.15625 173.539062 227.175781 C 171.601562 227.195312 170.011719 225.738281 169.992188 223.921875 C 169.972656 222.109375 171.53125 220.621094 173.46875 220.605469 C 175.410156 220.585938 177 222.042969 177.019531 223.855469 Z M 177.019531 223.855469 "/>
<path style=" stroke:none;fill-rule:nonzero;fill:rgb(100%,100%,100%);fill-opacity:1;" d="M 174.371094 218.765625 C 176.222656 218.4375 178.109375 218.996094 179.871094 219.605469 C 181.394531 220.132812 182.9375 220.722656 184.121094 221.761719 C 186.367188 223.730469 186.847656 226.875 186.925781 229.757812 C 187.003906 232.636719 186.832031 235.664062 188.207031 238.246094 C 189.804688 241.132812 193.039062 242.898438 196.511719 242.78125 C 194.539062 244.015625 191.863281 243.894531 189.699219 242.984375 C 187.769531 242.167969 186.160156 240.804688 185.09375 239.089844 C 184.441406 237.914062 183.894531 236.6875 183.460938 235.421875 C 181.976562 231.671875 179.996094 228.113281 177.5625 224.824219 C 177.199219 224.292969 176.757812 223.808594 176.253906 223.386719 C 175.523438 222.863281 174.652344 222.535156 173.738281 222.449219 C 172.988281 222.351562 171.695312 222.679688 171.238281 221.984375 C 170.257812 220.535156 173.277344 218.960938 174.371094 218.765625 Z M 174.371094 218.765625 "/>
<path style=" stroke:none;fill-rule:nonzero;fill:rgb(100%,100%,100%);fill-opacity:1;" d="M 313.152344 233.941406 C 313.152344 238.78125 308.960938 242.707031 303.785156 242.707031 C 298.609375 242.707031 294.417969 238.78125 294.417969 233.941406 C 294.417969 229.101562 298.609375 225.175781 303.785156 225.175781 C 308.960938 225.175781 313.152344 229.101562 313.152344 233.941406 Z M 313.152344 233.941406 "/>
<path style=" stroke:none;fill-rule:nonzero;fill:rgb(100%,100%,100%);fill-opacity:1;" d="M 301.601562 239.203125 L 305.972656 239.203125 L 305.972656 246.214844 L 301.601562 246.214844 Z M 301.601562 239.203125 "/>
<path style=" stroke:none;fill-rule:nonzero;fill:rgb(100%,100%,100%);fill-opacity:1;" d="M 303.792969 244.148438 L 304.71875 244.148438 C 310.414062 244.148438 315.03125 248.46875 315.03125 253.796875 L 315.03125 263.433594 L 293.480469 263.433594 L 293.480469 253.816406 C 293.476562 251.253906 294.558594 248.796875 296.496094 246.984375 C 298.429688 245.167969 301.054688 244.148438 303.792969 244.148438 Z M 303.792969 244.148438 "/>
<path style=" stroke:none;fill-rule:nonzero;fill:rgb(100%,100%,100%);fill-opacity:1;" d="M 314.285156 242.78125 C 313.875 243.164062 294.683594 243.929688 293.457031 242.78125 C 294.273438 238.960938 293.457031 229.601562 293.457031 229.601562 C 293.457031 224.21875 298.121094 219.859375 303.871094 219.859375 C 309.621094 219.859375 314.285156 224.21875 314.285156 229.601562 C 314.285156 229.601562 313.058594 241.253906 314.285156 242.78125 Z M 314.285156 242.78125 "/>
</g>
</svg>
